<svg xmlns="http://www.w3.org/2000/svg" xmlns:xlink="http://www.w3.org/1999/xlink" viewBox="0 0 1900 460.86" xmlns:v="https://vecta.io/nano"><style><![CDATA[.B{isolation:isolate}.BB,.BK,.BR,.BS,.BU,.BV,.Bp,.Br,.Bs,.Bw,.Bx,.CA,.P,.CH,.CI,.Q,.CN,.CR,.CT,.CV,.R,.CY,.CZ,.Ca,.Cg,.S,.Ch,.Co,.T,.DE,.DF,.DT,.DV,.Dj,.Dp,.ER,.b,.EU,.EX,.EZ,.c,.k,.q,.t,.y,.z,.AJ,.G,.AR,.AT,.AU,.AV,.AX,.Ae,.Ai,.Al,.Ar,.As{mix-blend-mode:multiply}.Ax,.Bt,.Da,.ES,.Ad{mix-blend-mode:soft-light}.BJ,.DN{mix-blend-mode:screen}.Ea{opacity:.5}.Eb{opacity:.3}.Ec{fill-rule:evenodd}.Ed{fill:#fff}.Ee{clip-path:url(#C)}.Ef{fill:#872129}.Eg{opacity:.2}.Eh{opacity:.42}.Ei{fill:#fbbeaa}.Ej{fill:#f18380}.Ek{fill:#ffac9c}.El{fill:none}.Em{opacity:.58}.En{fill:#302d3b}.Eo{fill:#a2538a}.Ep{fill:#2743ab}.Eq{fill:#000e1b}.Er{fill:#842631}.Es{fill:#fed3a4}.Et{fill:#ffe148}.Eu{fill:#061d3e}.Ev{stroke-miterlimit:10}.Ew{fill:#ffc430}]]></style><defs><clipPath id="A"><path d="M0 0h1900v460.86H0z" class="El"/></clipPath><clipPath id="B"><path d="M-86.96-136.14h2017.14v697.92H-86.96z" class="El"/></clipPath><clipPath id="C"><path d="M-95.56-215.4h2026.79v810.72H-95.56z" class="El"/></clipPath><radialGradient id="D" cx="891.96" cy="19199.12" r="2044.39" gradientTransform="translate(0 -5690.5) scale(1 0.28)" xlink:href="#Dh"><stop offset="0" stop-color="#ffe0c2"/><stop offset=".27" stop-color="#ffdcc0"/><stop offset=".55" stop-color="#ffd0b9"/><stop offset=".82" stop-color="#ffbcae"/><stop offset="1" stop-color="#ffaba4"/></radialGradient><linearGradient id="E" x1="911.59" y1="623.17" x2="911.59" y2="-219.98" xlink:href="#Dh"><stop offset="0" stop-color="#a48495"/><stop offset="1" stop-color="#8b2c8d"/></linearGradient><radialGradient id="F" cx="1828.97" cy="-168.57" r="235.26" gradientTransform="translate(0 351.31) scale(1 1.04)" xlink:href="#Dh"><stop offset="0" stop-color="#ffd7b0"/><stop offset=".3" stop-color="#ffd3af"/><stop offset=".6" stop-color="#ffc7ac"/><stop offset=".91" stop-color="#ffb3a6"/><stop offset="1" stop-color="#ffaba4"/></radialGradient><radialGradient id="G" cx="24.23" cy="-916.39" r="214.7" gradientTransform="translate(0 1244.99) scale(1 1.16)" xlink:href="#F"/><radialGradient id="H" cx="889.19" cy="-1563.93" r="812.13" gradientTransform="translate(-60.56 2197.88) scale(1.06 1.28)" xlink:href="#Dh"><stop offset="0" stop-color="#10959f"/><stop offset=".36" stop-color="#0d90a3"/><stop offset=".8" stop-color="#0580ae"/><stop offset="1" stop-color="#0077b5"/></radialGradient><radialGradient id="I" cx="1767.06" cy="7226.72" r="264.78" gradientTransform="translate(345.16 -3664.72) scale(0.74 0.54)" xlink:href="#Dh"><stop offset="0" stop-color="#fffff6"/><stop offset=".34" stop-color="#fffdf2"/><stop offset=".69" stop-color="#fff6e6"/><stop offset="1" stop-color="#ffecd4"/></radialGradient><radialGradient id="J" cx="1701.83" cy="-720.81" r="213.48" gradientTransform="translate(345.16 1032.63) scale(0.74 1.13)" xlink:href="#Dh"><stop offset="0" stop-color="#ffe0c2"/><stop offset=".35" stop-color="#ffdcc0"/><stop offset=".7" stop-color="#ffd0b8"/><stop offset="1" stop-color="#ffbfae"/></radialGradient><radialGradient id="K" cx="20.51" cy="7212.15" r="277.29" gradientTransform="translate(167.88 -3664.72) scale(0.69 0.54)" xlink:href="#I"/><radialGradient id="L" cx="917.84" cy="7781.26" r="932" gradientTransform="translate(0 -3664.72) scale(1 0.54)" xlink:href="#Dh"><stop offset="0" stop-color="#fffff6"/><stop offset="1" stop-color="#fffbf6"/></radialGradient><radialGradient id="M" cx="112.8" cy="-729.24" r="220.97" gradientTransform="translate(167.88 1032.63) scale(0.69 1.13)" xlink:href="#J"/><linearGradient id="N" x1="917.07" y1="465.31" x2="917.07" y2="-46.71" xlink:href="#E"/><linearGradient id="O" x1="917.84" y1="87.81" x2="917.84" y2="-215.4" xlink:href="#Dh"><stop offset="0" stop-color="#d6847a"/><stop offset="1" stop-color="#8b2c8d"/></linearGradient><linearGradient id="P" x1="1811.85" y1="490.99" x2="1811.85" y2="-181.62" xlink:href="#Dh"><stop offset="0" stop-color="#d18477"/><stop offset="1" stop-color="#8b2c8d"/></linearGradient><linearGradient id="Q" x1="22.77" y1="509.42" x2="22.77" y2="-202.99" xlink:href="#P"/><linearGradient id="R" x1="439.35" y1="174.98" x2="439.35" y2="41.08" xlink:href="#E"/><linearGradient id="S" x1="432.82" y1="170.63" x2="432.82" y2="36.73" xlink:href="#Dh"><stop offset="0" stop-color="#f06336"/><stop offset="1" stop-color="#ff7921"/></linearGradient><linearGradient id="T" x1="489.88" y1="170.63" x2="489.88" y2="36.73" xlink:href="#Dh"><stop offset=".01" stop-color="#791d36"/><stop offset=".98" stop-color="#a64021"/></linearGradient><linearGradient id="U" x1="431.8" y1="164.95" x2="431.8" y2="40.76" xlink:href="#T"/><linearGradient id="V" x1="432.87" y1="164.95" x2="432.87" y2="43.2" xlink:href="#Dh"><stop offset="0" stop-color="#ffc7cb"/><stop offset="1" stop-color="#ffeab8"/></linearGradient><linearGradient id="W" x1="432.04" y1="153.89" x2="432.04" y2="56.43" xlink:href="#Dh"><stop offset=".01" stop-color="#063b6e"/><stop offset="1" stop-color="#1a5a72"/></linearGradient><linearGradient id="X" x1="589.69" y1="216.71" x2="589.69" y2="44.28" xlink:href="#E"/><linearGradient id="Y" x1="581.42" y1="210.65" x2="581.42" y2="38.21" xlink:href="#S"/><linearGradient id="Z" x1="650.69" y1="210.65" x2="650.69" y2="38.21" xlink:href="#T"/><linearGradient id="a" x1="580.4" y1="204.97" x2="580.4" y2="42.24" xlink:href="#T"/><linearGradient id="b" x1="581.48" y1="204.97" x2="581.48" y2="44.68" xlink:href="#V"/><linearGradient id="c" x1="580.66" y1="192.36" x2="580.66" y2="56.43" xlink:href="#Dh"><stop offset=".01" stop-color="#b00244"/><stop offset="1" stop-color="#ff023e"/></linearGradient><linearGradient id="d" x1="538.01" y1="120.02" x2="598.12" y2="120.02" xlink:href="#V"/><linearGradient id="e" x1="1193.01" y1="216.71" x2="1193.01" y2="44.28" xlink:href="#E"/><linearGradient id="f" x1="1202.69" y1="209.45" x2="1202.69" y2="37.02" xlink:href="#Dh"><stop offset=".02" stop-color="#746482"/><stop offset=".99" stop-color="#3e1b40"/></linearGradient><linearGradient id="g" x1="1133.43" y1="209.45" x2="1133.43" y2="37.02" xlink:href="#Dh"><stop offset=".02" stop-color="#523e63"/><stop offset=".99" stop-color="#24052e"/></linearGradient><linearGradient id="h" x1="1203.71" y1="203.78" x2="1203.71" y2="41.05" xlink:href="#g"/><linearGradient id="i" x1="1202.64" y1="203.78" x2="1202.64" y2="43.48" xlink:href="#V"/><linearGradient id="j" x1="1206.02" y1="171" x2="1206.02" y2="73.92" xlink:href="#Dh"><stop offset="0" stop-color="#e4512c"/><stop offset=".99" stop-color="#ed7021"/></linearGradient><linearGradient id="k" x1="1206.02" y1="145.27" x2="1206.02" y2="94.54" xlink:href="#E"/><linearGradient id="l" x1="1221.45" y1="116.01" x2="1221.45" y2="107.84" xlink:href="#E"/><linearGradient id="m" x1="1046.78" y1="164.05" x2="1046.78" y2="52.42" xlink:href="#E"/><linearGradient id="n" x1="1054.35" y1="155.97" x2="1054.35" y2="44.34" xlink:href="#f"/><linearGradient id="o" x1="985.09" y1="155.97" x2="985.09" y2="44.34" xlink:href="#g"/><linearGradient id="p" x1="1055.38" y1="150.29" x2="1055.38" y2="48.37" xlink:href="#g"/><linearGradient id="q" x1="1054.3" y1="150.29" x2="1054.3" y2="50.81" xlink:href="#V"/><linearGradient id="r" x1="1055.66" y1="117.52" x2="1055.66" y2="81.24" xlink:href="#E"/><linearGradient id="s" x1="1070.23" y1="249.71" x2="1070.23" y2="175.37" xlink:href="#E"/><linearGradient id="t" x1="1075.27" y1="244.32" x2="1075.27" y2="169.98" xlink:href="#f"/><linearGradient id="u" x1="1029.15" y1="244.32" x2="1029.15" y2="169.98" xlink:href="#g"/><linearGradient id="v" x1="1075.96" y1="240.55" x2="1075.96" y2="172.67" xlink:href="#g"/><linearGradient id="w" x1="1075.24" y1="240.55" x2="1075.24" y2="174.29" xlink:href="#V"/><linearGradient id="x" x1="1076.14" y1="229.22" x2="1076.14" y2="184.07" xlink:href="#c"/><radialGradient id="y" cx="947.87" cy=".53" r="46.78" xlink:href="#Dh"><stop offset="0" stop-color="#ffff93"/><stop offset="1" stop-color="#ffc8a6"/></radialGradient><linearGradient id="z" x1="514.68" y1="366.26" x2="514.68" y2="349.61" xlink:href="#Dh"><stop offset="0" stop-color="#ff7331"/><stop offset="1" stop-color="#ffb51b"/></linearGradient><linearGradient id="AA" x1="528.41" y1="458.31" x2="528.41" y2="358.61" xlink:href="#T"/><linearGradient id="AB" x1="728.76" y1="425.95" x2="728.76" y2="285.51" xlink:href="#Dh"><stop offset="0" stop-color="#f06336"/><stop offset="1" stop-color="#e77921"/></linearGradient><linearGradient id="AC" x1="887.56" y1="416.72" x2="887.56" y2="285.51" xlink:href="#T"/><linearGradient id="AD" x1="715.52" y1="285.92" x2="715.52" y2="272.96" xlink:href="#Dh"><stop offset="0" stop-color="#ff8f31"/><stop offset="1" stop-color="#ffb51b"/></linearGradient><linearGradient id="AE" x1="856.74" y1="405.7" x2="856.74" y2="274.42" xlink:href="#T"/><linearGradient id="AF" x1="702.15" y1="413.63" x2="702.15" y2="280.64" xlink:href="#Dh"><stop offset=".01" stop-color="#da5236"/><stop offset="1" stop-color="#fd8421"/></linearGradient><linearGradient id="AG" x1="554.63" y1="381.09" x2="816.77" y2="381.09" xlink:href="#Dh"><stop offset="0" stop-color="#892f74"/><stop offset="1" stop-color="#d69386"/></linearGradient><radialGradient id="AH" cx="620.42" cy="1913.71" r="46.45" gradientTransform="translate(0 -1244.2) scale(1 0.84)" xlink:href="#Dh"><stop offset="0" stop-color="#fc0"/><stop offset="1" stop-color="#ffb100"/></radialGradient><linearGradient id="AI" x1="618.41" y1="416.81" x2="618.41" y2="356.19" xlink:href="#Dh"><stop offset="0" stop-color="#b62f4a"/><stop offset=".43" stop-color="#fffefe"/></linearGradient><linearGradient id="AJ" x1="582.71" y1="364.99" x2="656.72" y2="364.99" xlink:href="#Dh"><stop offset="0" stop-color="#b62f4a"/><stop offset="1" stop-color="#f49361"/></linearGradient><linearGradient id="AK" x1="666.12" y1="411.76" x2="666.12" y2="356.19" xlink:href="#AJ"/><linearGradient id="AL" x1="720.05" y1="407.73" x2="720.05" y2="273.45" xlink:href="#Dh"><stop offset=".01" stop-color="#791d36"/><stop offset=".98" stop-color="#ce5221"/></linearGradient><linearGradient id="AM" x1="521.77" y1="458.31" x2="521.77" y2="362.17" xlink:href="#AG"/><linearGradient id="AN" x1="638.86" y1="458.3" x2="638.86" y2="407.76" xlink:href="#j"/><linearGradient id="AO" x1="496.98" y1="412.28" x2="788.37" y2="412.28" xlink:href="#Dh"><stop offset="0" stop-color="#ff7f31"/><stop offset="1" stop-color="#ff971b"/></linearGradient><linearGradient id="AP" x1="781.56" y1="457.91" x2="781.56" y2="407.76" xlink:href="#T"/><linearGradient id="AQ" x1="652.27" y1="458.31" x2="652.27" y2="411.67" xlink:href="#AL"/><linearGradient id="AR" x1="710.06" y1="333.09" x2="710.06" y2="269.48" xlink:href="#Dh"><stop offset="0" stop-color="#2c8e93"/><stop offset="1" stop-color="#1db381"/></linearGradient><linearGradient id="AS" x1="688.92" y1="333.09" x2="688.92" y2="319.63" xlink:href="#V"/><linearGradient id="AT" x1="693.37" y1="304.6" x2="693.37" y2="291.21" xlink:href="#Dh"><stop offset="0" stop-color="#ffb131"/><stop offset="1" stop-color="#ffcc1b"/></linearGradient><linearGradient id="AU" x1="844.29" y1="355.32" x2="844.29" y2="341.03" xlink:href="#z"/><linearGradient id="AV" x1="854.23" y1="476.28" x2="854.23" y2="347.83" xlink:href="#T"/><linearGradient id="AW" x1="811.12" y1="415.8" x2="897.06" y2="415.8" xlink:href="#AG"/><linearGradient id="AX" x1="640.93" y1="476.28" x2="640.93" y2="343.72" xlink:href="#S"/><linearGradient id="AY" x1="483.98" y1="460.64" x2="786.04" y2="460.64" xlink:href="#AO"/><linearGradient id="AZ" x1="728.9" y1="411.5" x2="728.9" y2="347.46" xlink:href="#V"/><linearGradient id="Aa" x1="728.7" y1="408.28" x2="728.7" y2="390.33" xlink:href="#S"/><linearGradient id="Ab" x1="726.77" y1="379.59" x2="726.77" y2="357.71" xlink:href="#S"/><linearGradient id="Ac" x1="721.47" y1="364.42" x2="721.47" y2="355.41" xlink:href="#Dh"><stop offset="0" stop-color="#f49361"/><stop offset="1" stop-color="#b62f4a"/></linearGradient><linearGradient id="Ad" x1="728.9" y1="411.5" x2="728.9" y2="347.46" xlink:href="#AJ"/><linearGradient id="Ae" x1="917.84" y1="237.46" x2="917.84" y2="227.06" xlink:href="#T"/><linearGradient id="Af" x1="917.02" y1="160.18" x2="917.02" y2="148.35" xlink:href="#AF"/><linearGradient id="Ag" x1="915.51" y1="341.04" x2="928.03" y2="341.04" xlink:href="#g"/><linearGradient id="Ah" x1="917.84" y1="234.92" x2="917.84" y2="153.78" xlink:href="#V"/><linearGradient id="Ai" x1="917.82" y1="210.65" x2="917.82" y2="182.88" xlink:href="#W"/><linearGradient id="Aj" x1="917.84" y1="234.92" x2="917.84" y2="210.29" xlink:href="#S"/><linearGradient id="Ak" x1="904.81" y1="277.63" x2="904.81" y2="229.62" xlink:href="#g"/><linearGradient id="Al" x1="917.84" y1="234.92" x2="917.84" y2="151.13" xlink:href="#AG"/><linearGradient id="Am" x1="315.24" y1="456.24" x2="315.24" y2="395.15" xlink:href="#Dh"><stop offset=".01" stop-color="#9c0244"/><stop offset="1" stop-color="#90023e"/></linearGradient><linearGradient id="An" x1="384.93" y1="508.21" x2="384.93" y2="419.95" xlink:href="#g"/><linearGradient id="Ao" x1="426.6" y1="508.21" x2="426.6" y2="410.98" xlink:href="#f"/><linearGradient id="Ap" x1="273.46" y1="508.21" x2="273.46" y2="421.45" xlink:href="#g"/><linearGradient id="Aq" x1="319.32" y1="508.21" x2="319.32" y2="417.61" xlink:href="#f"/><radialGradient id="Ar" cx="1478.76" cy="394.52" r="104.03" gradientTransform="matrix(-1, 0, 0, 1.24, 1765.26, -85.5)" xlink:href="#Dh"><stop offset=".02" stop-color="#523e63"/><stop offset=".99" stop-color="#3e1b40"/></radialGradient><linearGradient id="As" x1="273.21" y1="411.86" x2="273.21" y2="396.5" xlink:href="#Dh"><stop offset="0"/><stop offset="1" stop-color="#897b9a"/></linearGradient><linearGradient id="At" x1="466.02" y1="403.5" x2="434.26" y2="403.5" xlink:href="#AG"/><linearGradient id="Au" x1="360.98" y1="449.69" x2="360.98" y2="391.46" xlink:href="#Dh"><stop offset=".01" stop-color="#9c0244"/><stop offset="1" stop-color="#ff023e"/></linearGradient><linearGradient id="Av" x1="352.98" y1="371.77" x2="352.98" y2="348.79" xlink:href="#Dh"><stop offset=".01" stop-color="#ca002d"/><stop offset="1" stop-color="#d9431d"/></linearGradient><linearGradient id="Aw" x1="358.75" y1="395.29" x2="358.75" y2="360.25" xlink:href="#V"/><linearGradient id="Ax" x1="373.54" y1="360.8" x2="373.54" y2="352.22" xlink:href="#Av"/><linearGradient id="Ay" x1="325.79" y1="370.35" x2="391.96" y2="370.35" xlink:href="#Dh"><stop offset="0" stop-color="#9fa400"/><stop offset="1" stop-color="#b3b300"/></linearGradient><linearGradient id="Az" x1="328.96" y1="384.61" x2="387.44" y2="384.61" xlink:href="#Ay"/><linearGradient id="BA" x1="358.65" y1="395.29" x2="358.65" y2="367.36" xlink:href="#AG"/><linearGradient id="BB" x1="1359.35" y1="488.14" x2="1359.35" y2="171" xlink:href="#E"/><linearGradient id="BC" x1="1374.03" y1="455.97" x2="1374.03" y2="403.52" xlink:href="#T"/><linearGradient id="BD" x1="1372.63" y1="455.97" x2="1372.63" y2="424.92" xlink:href="#Dh"><stop offset="0" stop-color="#892f74"/><stop offset="1" stop-color="#f9efed"/></linearGradient><linearGradient id="BE" x1="1397.37" y1="413.31" x2="1350.69" y2="413.31" xlink:href="#BD"/><linearGradient id="BF" x1="1445.34" y1="486.58" x2="1445.34" y2="166.94" xlink:href="#Dh"><stop offset="0" stop-color="#ff8d36"/><stop offset="1" stop-color="#ffae21"/></linearGradient><linearGradient id="BG" x1="1440" y1="486.58" x2="1440" y2="166.94" xlink:href="#j"/><linearGradient id="BH" x1="1511.87" x2="1511.87" xlink:href="#BF"/><linearGradient id="BI" x1="1504.6" y1="486.58" x2="1504.6" y2="166.94" xlink:href="#j"/><linearGradient id="BJ" x1="1377.04" x2="1377.04" xlink:href="#BF"/><linearGradient id="BK" x1="1371.37" y1="486.58" x2="1371.37" y2="166.94" xlink:href="#j"/><linearGradient id="BL" x1="1326.22" x2="1326.22" y2="172.07" xlink:href="#BF"/><linearGradient id="BM" x1="1320.11" y1="486.58" x2="1320.11" y2="172.07" xlink:href="#j"/><linearGradient id="BN" x1="1444.61" y1="462.71" x2="1444.61" y2="453.72" xlink:href="#BF"/><linearGradient id="BO" x1="1443.62" y1="351.54" x2="1443.62" y2="342.7" xlink:href="#BF"/><linearGradient id="BP" x1="1442.43" y1="217.44" x2="1442.43" y2="208.57" xlink:href="#BF"/><linearGradient id="BQ" x1="1372.7" y1="459.39" x2="1328.67" y2="459.39" xlink:href="#j"/><linearGradient id="BR" x1="1369.38" y1="347.09" x2="1325.22" y2="347.09" xlink:href="#j"/><linearGradient id="BS" x1="1368.42" y1="213.11" x2="1321.04" y2="213.11" xlink:href="#j"/><linearGradient id="BT" x1="1442.06" y1="175.07" x2="1442.06" xlink:href="#BF"/><linearGradient id="BU" x1="1370.16" y1="172.56" x2="1320.11" y2="172.56" xlink:href="#j"/><linearGradient id="BV" x1="1461.23" y1="343.75" x2="1461.23" y2="316.08" xlink:href="#W"/><linearGradient id="BW" x1="1464.28" y1="316.09" x2="1464.28" y2="270.38" xlink:href="#Dh"><stop offset=".01" stop-color="#793636"/><stop offset=".98" stop-color="#926821"/></linearGradient><linearGradient id="BX" x1="1460.6" y1="343.75" x2="1460.6" y2="316.92" xlink:href="#AG"/><linearGradient id="BY" x1="1448.91" y1="305.16" x2="1448.91" y2="278.23" xlink:href="#Dh"><stop offset="0" stop-color="#706500"/><stop offset="1" stop-color="#818400"/></linearGradient><linearGradient id="BZ" x1="1446.75" y1="301" x2="1446.75" y2="286.33" xlink:href="#Dh"><stop offset="0" stop-color="#5e6860"/><stop offset="1" stop-color="#798633"/></linearGradient><linearGradient id="Ba" x1="1441.76" y1="286.33" x2="1441.76" y2="283.19" xlink:href="#BZ"/><linearGradient id="Bb" x1="1448.29" y1="302.18" x2="1448.29" y2="278.25" xlink:href="#Dh"><stop offset="0" stop-color="#877200"/><stop offset="1" stop-color="#b1a900"/></linearGradient><linearGradient id="Bc" x1="1070.06" y1="749.71" x2="1070.06" y2="726.27" gradientTransform="matrix(-0.45, 0.89, 0.89, 0.45, 1304.72, -980.56)" xlink:href="#BY"/><linearGradient id="Bd" x1="1067.68" y1="746.29" x2="1067.68" y2="734.67" gradientTransform="matrix(-0.45, 0.89, 0.89, 0.45, 1304.72, -980.56)" xlink:href="#BZ"/><linearGradient id="Be" x1="1071.59" y1="737.99" x2="1071.59" y2="733.1" gradientTransform="matrix(-0.45, 0.89, 0.89, 0.45, 1304.72, -980.56)" xlink:href="#BZ"/><linearGradient id="Bf" x1="1067.86" y1="749.71" x2="1067.86" y2="728.5" gradientTransform="matrix(-0.45, 0.89, 0.89, 0.45, 1304.72, -980.56)" xlink:href="#Bb"/><linearGradient id="Bg" x1="910.51" y1="438.37" x2="910.51" y2="406.18" gradientTransform="matrix(-0.89, 0.46, 0.46, 0.89, 2073.13, -518.97)" xlink:href="#Bb"/><linearGradient id="Bh" x1="850.93" y1="396.41" x2="850.93" y2="383.53" gradientTransform="matrix(-0.98, 0.22, 0.22, 0.98, 2209.36, -279.46)" xlink:href="#BZ"/><linearGradient id="Bi" x1="849.08" y1="396.64" x2="849.08" y2="366.48" gradientTransform="matrix(-0.98, 0.22, 0.22, 0.98, 2209.36, -279.46)" xlink:href="#Dh"><stop offset="0" stop-color="#a38400"/><stop offset="1" stop-color="#c9b800"/></linearGradient><linearGradient id="Bj" x1="1414.92" y1="308.13" x2="1414.92" y2="279.84" xlink:href="#Bb"/><linearGradient id="Bk" x1="1393" y1="302" x2="1393" y2="237.7" xlink:href="#BY"/><linearGradient id="Bl" x1="1407.24" y1="302.37" x2="1407.24" y2="221.87" xlink:href="#BY"/><linearGradient id="Bm" x1="1410.05" y1="303.59" x2="1410.05" y2="238.91" xlink:href="#BY"/><linearGradient id="Bn" x1="1393" y1="303.22" x2="1393" y2="237.7" xlink:href="#Bb"/><linearGradient id="Bo" x1="1407.4" y1="303.22" x2="1407.4" y2="221.87" xlink:href="#BZ"/><linearGradient id="Bp" x1="1406.95" y1="303.59" x2="1406.95" y2="272.33" xlink:href="#BZ"/><linearGradient id="Bq" x1="895.76" y1="478.83" x2="895.76" y2="445.74" gradientTransform="matrix(-0.87, -0.49, -0.49, 0.87, 2399.69, 318.38)" xlink:href="#Bb"/><linearGradient id="Br" x1="1403.3" y1="343.32" x2="1403.3" y2="300.7" xlink:href="#j"/><linearGradient id="Bs" x1="1403.41" y1="312.03" x2="1403.41" y2="298.22" xlink:href="#Dh"><stop offset="0" stop-color="#ff682c"/><stop offset=".99" stop-color="#ff8621"/></linearGradient><linearGradient id="Bt" x1="1403.34" y1="313.8" x2="1403.34" y2="310.26" xlink:href="#T"/><linearGradient id="Bu" x1="1403.32" y1="343.32" x2="1403.32" y2="312.91" xlink:href="#AG"/><linearGradient id="Bv" x1="1414.08" y1="454.28" x2="1414.08" y2="380.4" xlink:href="#AR"/><linearGradient id="Bw" x1="1433.91" y1="434.39" x2="1394.09" y2="434.39" xlink:href="#Dh"><stop offset="0" stop-color="#ffeab8"/><stop offset="1" stop-color="#ffc7cb"/></linearGradient><linearGradient id="Bx" x1="1422.51" y1="408.18" x2="1405.66" y2="408.18" xlink:href="#Bw"/><linearGradient id="By" x1="1414.05" y1="454.24" x2="1414.05" y2="380.4" xlink:href="#BD"/><linearGradient id="Bz" x1="1474.56" y1="454.24" x2="1474.56" y2="417.11" xlink:href="#j"/><linearGradient id="CA" x1="1474.06" y1="454.24" x2="1474.06" y2="426.95" xlink:href="#BD"/><linearGradient id="CB" x1="1480.33" y1="190.92" x2="1408.66" y2="190.92" xlink:href="#Bw"/><linearGradient id="CC" x1="1428.62" y1="190.92" x2="1408.66" y2="190.92" xlink:href="#AG"/><linearGradient id="CD" x1="1486.96" y1="202.68" x2="1410.45" y2="202.68" xlink:href="#Au"/><linearGradient id="CE" x1="1483.63" y1="202.9" x2="1412.88" y2="202.9" xlink:href="#Bw"/><linearGradient id="CF" x1="1483.63" y1="202.35" x2="1412.88" y2="202.35" xlink:href="#AG"/><linearGradient id="CG" x1="1201.31" y1="490.99" x2="1201.31" y2="339.28" xlink:href="#E"/><linearGradient id="CH" x1="1203.71" y1="342.65" x2="1203.71" y2="258.75" xlink:href="#E"/><linearGradient id="CI" x1="1310.95" x2="1310.95" y2="339.28" xlink:href="#BF"/><linearGradient id="CJ" x1="1262.09" y1="486.58" x2="1262.09" y2="339.28" xlink:href="#Dh"><stop offset=".02" stop-color="#923621"/><stop offset=".99" stop-color="#791d36"/></linearGradient><linearGradient id="CK" x1="1212.58" x2="1212.58" y2="339.28" xlink:href="#BF"/><linearGradient id="CL" x1="1177.39" y1="486.58" x2="1177.39" y2="339.28" xlink:href="#j"/><linearGradient id="CM" x1="1261.57" y1="351.04" x2="1261.57" y2="339.28" xlink:href="#BF"/><linearGradient id="CN" x1="1177.39" y1="486.58" x2="1177.39" y2="403.69" xlink:href="#Dh"><stop offset="0" stop-color="#892f74"/><stop offset="1" stop-color="#ebcac4"/></linearGradient><linearGradient id="CO" x1="1246.3" y1="311.27" x2="1246.3" y2="255.38" xlink:href="#BY"/><linearGradient id="CP" x1="1254.22" y1="309.89" x2="1254.22" y2="284.18" xlink:href="#Bb"/><linearGradient id="CQ" x1="1237.38" y1="311.27" x2="1237.38" y2="271.78" xlink:href="#Bb"/><linearGradient id="CR" x1="1243.27" y1="339.28" x2="1243.27" y2="309.89" xlink:href="#j"/><linearGradient id="CS" x1="1243.11" y1="321.39" x2="1243.11" y2="305.34" xlink:href="#Bs"/><linearGradient id="CT" x1="1243.09" y1="321.39" x2="1243.09" y2="318.1" xlink:href="#T"/><linearGradient id="CU" x1="1241.73" y1="339.28" x2="1241.73" y2="320.41" xlink:href="#AG"/><linearGradient id="CV" x1="1291.59" y1="453.6" x2="1217.42" y2="453.6" xlink:href="#Bw"/><linearGradient id="CW" x1="1678.56" y1="517.49" x2="1678.56" y2="287.99" xlink:href="#Dh"><stop offset="0" stop-color="#c63d2c"/><stop offset=".99" stop-color="#ed7021"/></linearGradient><linearGradient id="CX" x1="1672.41" y1="517.49" x2="1672.41" y2="287.99" xlink:href="#Dh"><stop offset=".02" stop-color="#a13821"/><stop offset=".99" stop-color="#791d36"/></linearGradient><linearGradient id="CY" x1="1622.88" y1="388.76" x2="1622.88" y2="295.63" xlink:href="#Dh"><stop offset="0" stop-color="#da422c"/><stop offset=".99" stop-color="#ed7021"/></linearGradient><linearGradient id="CZ" x1="1591.96" y1="517.49" x2="1591.96" y2="287.99" xlink:href="#j"/><linearGradient id="Ca" x1="1585.77" y1="517.49" x2="1585.77" y2="287.99" xlink:href="#CJ"/><linearGradient id="Cb" x1="1692.45" y1="517.49" x2="1692.45" y2="422.74" xlink:href="#j"/><linearGradient id="Cc" x1="1684.99" y1="517.49" x2="1684.99" y2="422.64" xlink:href="#CJ"/><linearGradient id="Cd" x1="1779.75" y1="517.49" x2="1779.75" y2="422.74" xlink:href="#j"/><linearGradient id="Ce" x1="1772.29" y1="517.49" x2="1772.29" y2="422.64" xlink:href="#CJ"/><linearGradient id="Cf" x1="1717.12" y1="435.94" x2="1717.12" y2="415.09" xlink:href="#j"/><linearGradient id="Cg" x1="1661.89" y1="445.46" x2="1661.89" y2="419.63" xlink:href="#CJ"/><linearGradient id="Ch" x1="1684.49" y1="429.87" x2="1684.49" y2="281.4" xlink:href="#V"/><linearGradient id="Ci" x1="1644.62" y1="430.5" x2="1644.62" y2="284.37" xlink:href="#Dh"><stop offset="0" stop-color="#ffa790"/><stop offset="1" stop-color="#ffcc8b"/></linearGradient><linearGradient id="Cj" x1="1755.42" y1="431.72" x2="1755.42" y2="413.01" xlink:href="#Dh"><stop offset="0" stop-color="#ff7279"/><stop offset="1" stop-color="#ff9559"/></linearGradient><linearGradient id="Ck" x1="1589.01" y1="360.06" x2="1589.01" y2="346.02" xlink:href="#Dh"><stop offset="0" stop-color="#b62f4a"/><stop offset="1" stop-color="#fffefe"/></linearGradient><linearGradient id="Cl" x1="1696.24" y1="432.53" x2="1696.24" y2="380.98" xlink:href="#Ck"/><linearGradient id="Cm" x1="1623.99" y1="328.14" x2="1623.99" y2="288.15" xlink:href="#W"/><linearGradient id="Cn" x1="1650.1" y1="402.61" x2="1650.1" y2="360.06" xlink:href="#W"/><radialGradient id="Co" cx="1640.93" cy="340.77" r="20.96" gradientTransform="matrix(1, 0, 0, 1, 0, 0)" xlink:href="#AH"/><linearGradient id="Cp" x1="1721.76" y1="406.76" x2="1721.76" y2="396.95" xlink:href="#W"/><radialGradient id="Cq" cx="1764.64" cy="412.11" r="16.21" gradientTransform="matrix(1, 0, 0, 1, 0, 0)" xlink:href="#AH"/><linearGradient id="Cr" x1="1764.64" y1="425.51" x2="1764.64" y2="414.53" xlink:href="#Dh"><stop offset="0" stop-color="#ff6231"/><stop offset="1" stop-color="#ff971b"/></linearGradient><linearGradient id="Cs" x1="1632.46" y1="394.35" x2="1632.46" y2="281.74" xlink:href="#Dh"><stop offset="0"/><stop offset="1" stop-color="#cc5a4a"/></linearGradient><radialGradient id="Ct" cx="1618.02" cy="284.5" r="14.73" gradientTransform="matrix(1, 0, 0, 1, 0, 0)" xlink:href="#AH"/><linearGradient id="Cu" x1="23.44" y1="373.82" x2="23.44" y2="-53.47" xlink:href="#Dh"><stop offset="0" stop-color="#ffe3cc"/><stop offset=".31" stop-color="#ffe5d0"/><stop offset=".62" stop-color="#ffecdc"/><stop offset=".93" stop-color="#fff8f0"/><stop offset="1" stop-color="#fffbf6"/></linearGradient><radialGradient id="Cv" cx="1005.78" cy="-346.53" r="189.64" gradientTransform="matrix(-1, 0, 0, 1.08, 1036.7, 600)" xlink:href="#I"/><radialGradient id="Cw" cx="1019.58" cy="-1030.52" r="160.29" gradientTransform="matrix(-1, 0, 0, 1.2, 1036.7, 1558.41)" xlink:href="#Dh"><stop offset="0" stop-color="#ffb3c2"/><stop offset=".45" stop-color="#ffb5be"/><stop offset=".9" stop-color="#ffbdb2"/><stop offset="1" stop-color="#ffbfae"/></radialGradient><radialGradient id="Cx" cx="1034.27" cy="7172.04" r="148.55" gradientTransform="matrix(-1, 0, 0, 0.54, 1036.7, -3664.72)" xlink:href="#I"/><radialGradient id="Cy" cx="1026.85" cy="-1137.32" r="139.9" xlink:href="#Cw"/><linearGradient id="Cz" x1="13.36" y1="381.09" x2="13.36" y2="-49.49" xlink:href="#P"/><linearGradient id="DA" x1="29.53" y1="303.81" x2="29.53" y2="-74.08" xlink:href="#AT"/><linearGradient id="DB" x1="29.31" y1="8.1" x2="29.31" y2="-101.51" xlink:href="#T"/><linearGradient id="DC" x1="34.71" y1="8.1" x2="34.71" y2="-101.51" xlink:href="#j"/><linearGradient id="DD" x1="29.52" y1="303.81" x2="29.52" y2="279.26" xlink:href="#AT"/><linearGradient id="DE" x1="13.63" y1="285.51" x2="13.63" y2="-48.06" xlink:href="#Dh"><stop offset="0" stop-color="#ff6d25"/><stop offset=".99" stop-color="#f43844"/></linearGradient><linearGradient id="DF" x1="65.59" y1="288.73" x2="65.59" y2="-21.8" xlink:href="#DE"/><linearGradient id="DG" x1="101.43" y1="290.99" x2="101.43" y2="-3.4" xlink:href="#DE"/><linearGradient id="DH" x1="1820.12" x2="1820.12" xlink:href="#Cu"/><radialGradient id="DI" cx="1812.64" cy="-346.53" r="189.64" gradientTransform="translate(0 600) scale(1 1.08)" xlink:href="#I"/><radialGradient id="DJ" cx="1826.43" gradientTransform="translate(0 1558.41) scale(1 1.2)" xlink:href="#Cw"/><radialGradient id="DK" cx="1841.13" cy="7172.04" r="148.55" gradientTransform="translate(0 -3664.72) scale(1 0.54)" xlink:href="#I"/><radialGradient id="DL" cx="1833.7" cy="-1137.32" r="139.9" gradientTransform="translate(0 1558.41) scale(1 1.2)" xlink:href="#Cw"/><linearGradient id="DM" x1="1830.19" y1="381.09" x2="1830.19" y2="-49.49" xlink:href="#P"/><linearGradient id="DN" x1="1814.25" y1="8.1" x2="1814.25" y2="-101.51" xlink:href="#T"/><linearGradient id="DO" x1="1808.85" y1="8.1" x2="1808.85" y2="-101.51" xlink:href="#j"/><linearGradient id="DP" x1="1726.21" y1="58.39" x2="1905.39" y2="58.39" xlink:href="#AT"/><linearGradient id="DQ" x1="1872.91" y1="123.14" x2="1872.91" y2="-68.1" xlink:href="#DE"/><linearGradient id="DR" x1="1826.35" y1="131.47" x2="1826.35" y2="-44.86" xlink:href="#DE"/><linearGradient id="DS" x1="1782.19" y1="139.67" x2="1782.19" y2="-22.91" xlink:href="#DE"/><linearGradient id="DT" x1="1745.19" y1="146.06" x2="1745.19" y2="-4.03" xlink:href="#DE"/><linearGradient id="DU" x1="1871.02" y1="143.95" x2="1871.02" y2="118.15" xlink:href="#DE"/><linearGradient id="DV" x1="1829.28" y1="150.18" x2="1829.28" y2="126.31" xlink:href="#DE"/><linearGradient id="DW" x1="1784.97" y1="157.93" x2="1784.97" y2="136.05" xlink:href="#DE"/><linearGradient id="DX" x1="1750.04" y1="163.83" x2="1750.04" y2="143.3" xlink:href="#DE"/><linearGradient id="DY" x1="1750.7" y1="188.46" x2="1750.7" y2="161.85" xlink:href="#DE"/><linearGradient id="DZ" x1="1784.97" y1="182.58" x2="1784.97" y2="154.83" xlink:href="#DE"/><linearGradient id="Da" x1="1832.12" y1="174.19" x2="1832.12" y2="146.06" xlink:href="#DE"/><linearGradient id="Db" x1="1873.87" y1="167.27" x2="1873.87" y2="138.6" xlink:href="#DE"/><path id="Dc" d="M438.54 458.2A22.15 22.15 0 1 1 415 437.49a22.14 22.14 0 0 1 23.54 20.71z"/><path id="Dd" d="M770,305.36s-16.73,11.53-33.24,13.29l11.31-15Z"/><path id="De" d="M1044.54,271.39s-20.2,2.19-35.56-4.12l17.1-7.84Z"/><path id="Df" d="M1197.49,287.74s-19.75-4.78-32.06-15.91l18.74-1.6Z"/><path id="Dg" d="M915.28,194.34s-17.94,9.55-34.54,9.41l13-13.65Z"/><linearGradient id="Dh" gradientUnits="userSpaceOnUse"/></defs><g class="B"><g><g clip-path="url(#A)"><g clip-path="url(#B)"><g class="Ec Ee"><path d="M-95.56-215.4l-9.28 826.4 2067.32 4.06-31.25-830.46H-95.56z" fill="url(#D)"/><path class="G Eg" d="M1793.92-215.4l41.04 28.37-130.01 105.9h-89.09l-79.34 27.66-1230.77-13.3-66.22-34.74-112.44-3.11-120.1-91.95 41.35-18.83-159.26-4.58-22.3 835.04 2073.41 8.1 16.21-839.09-162.48.53z" fill="url(#E)"/></g><g class="Ec Ee"><path d="M1931.23-215.4L1675.89-46.71l16 534.6 239.34 60.42V-215.4z" fill="url(#F)"/><path d="M-95.56-215.4L142.78-59.92l16.38 535.03-254.72 73.22V-215.4z" fill="url(#G)"/><path d="M159.16 475.11l1425.71 6.63 91.02-528.45L142.78-59.92l16.38 535.03z" fill="url(#H)"/><path d="M1704.95-65.91l-89.09-7.27-8.52 561.07h84.55l13.06-553.8z" fill="url(#I)"/><path d="M1615.86-73.18l-30.99 26.47v528.45l22.47 6.15 8.52-561.07z" fill="url(#J)"/><path d="M130.85-92.98h102.42l-7.01 580.87-84.73 4.19-10.68-585.06z" fill="url(#K)"/><path d="M-95.5 509.42l236.6-41.34h85.16l23-7.44 1335.61 4.67 22.79 1.5 84.8-3.43 238.77 27.61v57.32l-239.34-60.42h-84.55l-22.47-6.15-1335.71-6.36-22.9 12.51-84.73 4.19-237.09 56.25.06-38.91z" fill="url(#L)"/><path d="M233.27-92.98l19.52 32.68-3.63 535.68-22.9 12.51 7.01-580.87z" fill="url(#M)"/><path class="P Eg" d="M252.7-46.71l-3.44 507.35 7.25-.17L282.15-11l1249.32 26.65 38.32 449.61 15.08.05V-29.61L252.7-46.71z" fill="url(#N)"/><path class="Q Eb" d="M-95.56-53.47h29.96L117.34 8.1l114.13 47.73 20.66-19.1 1332.74 51.08 28.93-25.56 92.46-34.97 19.95-19.18 178.42-102.15 26.6 27.62V-215.4H-95.56v161.93z" fill="url(#O)"/><path class="R Eg" d="M1931.23-165.07L1721.46-33.75l-22.8 489.72 232.57 35.02-238.77-27.61 11.92-505.12 226.85-139.88v16.55z" fill="url(#P)"/><path class="S Eg" d="M-95.56-185l212.9 125.08 17.16 525.23-230 44.11 236.6-41.34-9.73-532.48-226.93-138.59V-185z" fill="url(#Q)"/></g><g class="Ee"><g class="Ec"><path class="T Eh" d="M382.25 174.26l-1.54-133.18h117.27l-5.68 133.9-110.05-.72z" fill="url(#R)"/><path d="M375.72 169.92l-1.53-133.19h117.27l-5.69 133.9-110.05-.71z" fill="url(#S)"/><path d="M491.46 36.73l2.53 1.02-4.33 132.88h-3.89l5.69-133.9z" fill="url(#T)"/><path d="M381.43 164.95l-1.82-124.19h104.38v2.44l-102.23.28 1.17 121.47h-1.5z" fill="url(#U)"/><path d="M381.76 43.48l1.17 121.47h98.22l2.84-121.75-102.23.28z" fill="url(#V)"/><path d="M395.87 153.89l-1.08-97.46h74.51l-3.35 97.46h-70.08z" fill="url(#W)"/><g fill="#ffa200"><path d="M408.85 125.13c-5.86-2.6-9.68-34.4 0-40.58s28.21 5.71 29.55 18.31-20.87 26.14-29.55 22.27zm17.46 1.25c-2-4.14 13-15.72 16.26-15.32s7.92 11.42 3.22 16.53-18.27 1.33-19.48-1.21zm-1.22-2.85c-1.07-1-5.46.62-5.64 2.15s4 3.53 5.28 2.28 1.27-3.63.36-4.43z"/></g><path d="M434.64 64.14c-5.87 4.29-1.5 20.68 3.82 22.56s17.67-8.59 18.75-11.28-7-13.17-9.43-14.24-10.4.95-13.14 2.96z" fill="#ff4f00"/><path class="b Ea Ef" d="M379.61 40.76l2.15 11.16 1.29-4.96h100.82l.12-6.2H379.61z"/><path class="c Eh" d="M519.75 216l-1.54-171.72h142.96l-6.96 172.43-134.46-.71z" fill="url(#X)"/><path d="M511.48 209.94l-1.54-171.73h142.97l-6.97 172.44-134.46-.71z" fill="url(#Y)"/><path d="M652.91 38.21l2.52 1.02-5.61 171.42h-3.88l6.97-172.44z" fill="url(#Z)"/><path d="M517.18 204.97l-1.82-162.73h130.08v2.44l-127.93.28 1.17 160.01h-1.5z" fill="url(#a)"/><path d="M517.51 44.96l1.17 160.01h122.64l4.12-160.29-127.93.28z" fill="url(#b)"/><path d="M532.03 191.76l-1.49-133.85 100.24-1.48-3.5 135.94-95.25-.61z" fill="url(#c)"/><path d="M553.8 136.79c13.16 0-11.6-43.5-3.63-50.13s44.28 7.66 47.75 27.06-39.35 21.18-41.07 23.07 8.73-.89 14.86 3.39-9.82 16.92-21.54 14.56-15.65-25-8.76-26.68 9.34 8.73 12.39 8.73z" fill="url(#d)"/><g fill="#ae90ff"><path d="M552.68 134c2.4 1 4.76-4.3 3.4-9s-8.43-10.6-11.64-8.19 4.32 15.47 8.24 17.19zm-3.75-20.95c-.78 1 1 5.06 3.62 5.14s.48-5.14-.57-5.71a2.52 2.52 0 0 0-3.05.57zm27.84 23.64c.45-2 12-8 22.25-5.67s-3 14.3-11.13 13.45-12.14-3.34-11.12-7.78z"/></g><g fill="#ffa200"><path d="M592 79.57c-3.42 7.43 6 39.08 20.15 35.31S623.48 75.33 620 73.6s-26.46 2.53-28 5.97zm-2.11.74c3.24-3.53-13.42-10-16-5.65s7 11.72 10.26 13 5.74-7.35 5.74-7.35z"/></g><path class="b Ea Ef" d="M515.36 42.24l2.15 10.91 2.19-5.45 125.63 1.39v-8.33l-129.97 1.48z"/><path class="k Eh" d="M1262.95 216l1.54-171.72h-142.96l6.97 172.43 134.45-.71z" fill="url(#e)"/><path d="M1272.64 208.74l1.53-171.72h-142.96l6.97 172.43 134.46-.71z" fill="url(#f)"/><path d="M1131.21 37.02l-2.53 1.01 5.61 171.42h3.89l-6.97-172.43z" fill="url(#g)"/><path d="M1266.93 203.78l1.82-162.73h-130.07v2.43l127.92.28-1.17 160.02h1.5z" fill="url(#h)"/><path d="M1266.6 43.76l-1.17 160.02H1142.8l-4.12-160.3 127.92.28z" fill="url(#i)"/><path class="b Ea Ef" d="M1268.75 41.05l-2.15 10.9-2.18-5.45-125.63 1.4v-8.34l129.96 1.49z"/><path d="M1162.34 171V73.92h87.37l-3.03 97.08h-84.34z" fill="url(#j)"/></g><g class="q Ec Eg"><path d="M1216.92 118.51s2.28-18.24-3.3-22.8-27.87 5.07-29.89 13.68 7.09 9.12 7.09 9.12-11.15-2.53-13.93 0-.26 18.5 5.06 19.76 8.11 0 8.11 0-2.36 1.69-2.36 2.45 1.85 3.38 3.71 2.28.68-4 .68-4 1.69 4.31 3.46 5.16 13.43 2.95 17.82-2.79-2.37-11.82-2.37-11.82 8.11 7.17 13.52 4.81 14.86-16.72 10.81-21.62-18.41 5.77-18.41 5.77z" fill="url(#k)"/><path d="M1219.28 107.87c-2 .24-1.77 7.3-.68 8s6.25-2.28 6.51-4-3.04-4.34-5.83-4z" fill="url(#l)"/></g><g class="Ec"><path class="t Eh" d="M1114.7 163.34l1.54-110.92H977.33l2.91 111.63 134.46-.71z" fill="url(#m)"/><path d="M1122.27 155.26l1.54-110.92H984.9l2.91 111.63 134.46-.71z" fill="url(#n)"/><path d="M984.9 44.34l-2.53 1.02 1.56 110.61h3.88L984.9 44.34z" fill="url(#o)"/><path d="M1116.57 150.29l1.82-101.92H992.37v2.43l123.87.29-1.17 99.2h1.5z" fill="url(#p)"/><path d="M1116.24 51.09l-1.17 99.2H992.44l-.07-99.49 123.87.29z" fill="url(#q)"/><path class="b Ea Ef" d="M1118.39 48.37l-2.15 10.91-2.18-5.46-121.58 1.4v-8.34l125.91 1.49z"/></g><path class="y Eg" d="M1011.98 81.24h87.37v36.28h-87.37z" fill="url(#r)"/><g class="Ec"><path class="z Eh" d="M1115.46 249.24l1.03-73.87h-92.51l1.94 74.34 89.54-.47z" fill="url(#s)"/><path d="M1120.51 243.85l1.02-73.87h-92.51l1.94 74.34 89.55-.47z" fill="url(#t)"/><path d="M1029.02 169.98l-1.68.68 1.03 73.66h2.59l-1.94-74.34z" fill="url(#u)"/><path d="M1116.71 240.54l1.21-67.87h-83.93v1.62l82.5.19-.78 66.06h1z" fill="url(#v)"/><path d="M1116.49 174.48l-.78 66.06h-81.67l-.05-66.25 82.5.19z" fill="url(#w)"/><path class="b Ea Ef" d="M1117.92 172.67l-1.43 7.26-1.46-3.63-80.96.93v-5.55l83.85.99z"/></g><path d="M1052.95 184.07h46.4v45.15h-46.4z" fill="url(#x)"/><g class="Ec Ed"><path d="M1062.84 220.6c-4.4-1.95-7.27-25.83 0-30.48s21.19 4.29 22.2 13.75-15.68 19.62-22.2 16.73zm13.16.94c-1.48-3.11 9.79-11.8 12.21-11.5s5.95 8.58 2.42 12.41-13.77 1-14.63-.91zm-1-2.14c-.81-.73-4.1.47-4.24 1.61s3 2.66 4 1.72a2.63 2.63 0 0 0 .24-3.33z"/></g><path d="M886.28 23.43s65.09-11.92 123.19 1.25c0 0-60.67 6.61-123.19-1.25z" fill="#ffa08e"/><path d="M893.42 23.16s57.65-6.4 108.91 1.43c0 0-53.64 4.26-108.91-1.43z" fill="#ffffc0"/><path d="M886.28 23.43l6.09-38.16s46.92-20 113.29 0l3.81 39.41s-50.08-11.17-123.19-1.25z" fill="url(#y)"/><path class="AJ Ea" d="M893.42 22.31L900-17.33s15.25-3.72 20.39-4.4l-6.45 42.26-20.52 1.78z" fill="#efd4d7"/><g class="Ec"><path d="M456,358.61s18.28-23,117.39,4.5l-89.88,3.15Z" fill="url(#z)"/><path d="M483.45 358.61l89.92 4.5v95.06l-89.39.14-.53-99.7z" fill="url(#AA)"/><path d="M888.61 285.51l-313.2 7.19-6.49 133.25 304.17-9.23 15.52-131.21z" fill="url(#AB)"/><path d="M880.56,416.72,902,291.8s-2.63-5.39-13.42-6.29L873.09,416.72Z" fill="url(#AC)"/><path class="b Ea Ef" d="M880.16 285.7l7.5 8.89 7.09 40.55-2.93 18.51-27.04-5.48 15.38-62.47z"/><path d="M561.61 285.92s145.56-18.13 307.83-11.5l-19.92 6.35s-176.78-.99-287.91 5.15z" fill="url(#AD)"/><path d="M880.82 280.64L861.41 405.7h-28.76c3-47 9.21-95.43 16.87-124.93 13.93-9.34 23.68-7.51 31.3-.13z" fill="url(#AE)"/><path d="M561.61 285.92s-9.33 67.53-6.19 127.71l276.44-1.39s6.35-86.45 17.66-131.47c0 0-216.22-1.41-287.91 5.15z" fill="url(#AF)"/><g class="Ef"><path class="b Ea" d="M668.29 364.13h6.96l4.58 48.32-36.4-.18 24.86-48.14zm89.92-6.19l13.47 2.84 9.88 49.91-41.55-.21 18.2-52.54z"/></g><path class="AR Eb" d="M555.28 357.43L593 398.68c2.89 3.1 102.41-1.49 102.41-1.49l2.12-26.62 4.36-25.19-3 42.21 117.84 3-2.73 26.22-258.68-5.39s-1.53-17.98-.04-53.99z" fill="url(#AG)"/><path d="M668.29 411.76s-59.92 11.06-102 .43c0 0 .44-27.32 13.31-46.36a.12.12 0 0 1 0-.05 44.76 44.76 0 0 1 8.64-9.59l3.82 4.59h.21c1.73.19 14.38 1.51 30 1.87h.25c12.06.26 21.86.52 33.8-1.32h0l9.87-5.17s8.09 22.93 2.1 55.6z" fill="url(#AH)"/><path class="AT Eb" d="M668.29 411.76s-59.92 11.06-102 .43c0 0 .44-27.32 13.31-46.36-.55.94-10.59 20.83-8.69 35.69 0 0 30.44 6.47 90.23.19 0 0 6.84-24.27 5.11-45.52.02 0 8.03 22.9 2.04 55.57z" fill="url(#AI)"/><path class="AU Eb" d="M592.1 360.78l1.67 2.48-11.06 3.94a307.37 307.37 0 0 0 34.52 2 212.11 212.11 0 0 0 39.49-3.55l-6.64-1.65 6.32-2.67s-33.79 3.72-64.3-.55z" fill="url(#AJ)"/><path class="AV Eb" d="M668.29 411.76l-6-14.34 3.88-24.06-4.49-6.74 4.84 1s.56-7.48-.2-11.46c-.05.03 8.17 18.93 1.97 55.6z" fill="url(#AK)"/><path d="M742.56 273.45c-12.36 1.05-27-.49-38.58 7.78 0 0-8.78 74.36-5.83 126.5 0 0 4.58-86.1 11.91-126.41 12.14-6.9 19.86-5.64 32.5-7.87z" fill="url(#AL)"/><path class="AX Eb" d="M554.64 362.17s-3.29 36.82-6.44 40.42-64.2 3.33-64.2 3.33v52.39h75.59z" fill="url(#AM)"/><path d="M497,408s-6.29,31.33-7.64,50.32l296.7-.4,2.33-50.14S606.17,424.48,497,408Z" fill="url(#AN)"/><path d="M497 408l104.92 4.26c54 1.45 186.47-4.48 186.47-4.48S588.42 428 497 408z" fill="url(#AO)"/><path d="M774.9,457.91s-1.31-35.17,3.73-49.29l9.74-.86L786,457.9Z" fill="url(#AP)"/><path d="M631.25 458.31S628 425.42 628 412.24l48.47-.57c-16.83.46-29.74 1.73-42.85 4.79.04 0-3.05 8.3-2.37 41.85z" fill="url(#AQ)"/><path d="M490.64 445.86s-.44 9.38 2.4 10.87 132.9.83 135-.22 3.13-4.92 3.13-4.92 1.59 4.24 3 4.92 130.39-.45 136.23-1.8 16.19-8.85 16.19-8.85l-.56 12-296.7.4 1.31-12.4z" class="Er"/><g class="Ef"><path class="b Ea" d="M704 281.23l6.08.09s-5.89 33.08-7.14 51.82H699l5-51.91zm-76 131.01l.6 13.76 3.35 1.37 1.71-10.86s21.11-3.89 32-4.34z"/></g><path d="M551.35,410.39l3.28-27.58s0,24.68,4.94,27.92Z" class="Er"/><path class="Ad Es" d="M555.76 351.12s10.61-58.4 13.16-60.95 55.85-10.33 55.85-10.33-46.07 3.6-63.16 6.08l-5.85 65.2z"/><path class="Ae Ea Eo" d="M579.12,287s-10.86,26.87-10.2,46.16l98.53,7.45,2.27-3.79,147-1,7.47-55.07a53.84,53.84,0,0,1,30.36-6.89l-30.81.6Z"/><path d="M643 274.37s-26.89 5.41-63.92 5c0 0-9.86 15.57-13.59 46.83 0 0 46.92 4.35 99.89 6.87.73 0 .79-3.84 1.52-3.85l144.55-3 5.65-45.56a104.19 104.19 0 0 1 37.46-6.84l-4.72-4.34L643 274.37z" fill="url(#AR)"/><path d="M812.31 319.63l-4 1.83c-54.91 3.52-92.39 4.15-140.83 4.16l-1.34 1.13s-71.43-.52-99.94-5.37l-.64 4.84 99.89 6.87 1.52-3.85 144.55-3z" fill="url(#AS)"/><path d="M814.42 302.58l-4.23-.13-142.39 2.15v-3.77l-96.47-2.72 2.42-6.9 95.94 1.57-.42 3.22 142.21-4.14 3.94 2.64-1 8.08z" fill="url(#AT)"/><path class="Ad Es" d="M849.88 269.48S834 268.33 813 279.67c0 0-111.53-3.06-208 1.7 0 0-22-.91-25.82-2 0 0 34.92 1.91 63.92-5-.1 0 140.51-.56 206.78-4.89z"/><path class="Ai Ea" d="M854.6 273.82l-4.72-4.34A74.43 74.43 0 0 0 813 279.67l-5.36 44.09s-82.22 5.41-133.69 3.37l-3.57-38.2-6.79 40-98-2.72 99.89 6.87 1.52-3.85 144.55-3 5.65-45.56c10.29-4.18 18.12-6.23 37.4-6.85z" fill="#b981a6"/><g class="Eo"><path class="Ae Ea" d="M665.41 333.09l5.03-46.11 3.47 42.15-6.97.11-1.53 3.85zm5.44-47.22l3.87-9 27.79-3.05-27.07 5.97-4.59 6.08z"/></g><g class="Es"><path class="Ad" d="M674.72 276.87l-7.27 2.97-2.79 43.15 6.19-37.12 3.87-9z"/><path class="Ad" d="M667.45 279.84l3.4 6.03 3.87-9-7.27 2.97z"/></g><path d="M791.53,347.83s22.55-19.47,105.53,7.49h-72Z" fill="url(#AU)"/><path d="M825.87,347.83s68,6.14,71.19,7.49-20.62,121-20.62,121H811.12Z" fill="url(#AV)"/><path class="Al Eb" d="M897.06,355.32s-18.13,98.31-28,108.06-57.93,12.9-57.93,12.9h65.32S893.16,401,897.06,355.32Z" fill="url(#AW)"/><path d="M463 476.28l-7-117.67c7.08-4.64 18.68-5.09 27.47 0l.53 99.7 302-.41 5.49-110.07c10.34-6.29 23.59-4.61 34.34 0l-14.71 128.45z" fill="url(#AX)"/><path d="M484 458.31s48.48 11.69 302-.41z" fill="url(#AY)"/><path d="M683.05,411.5l2.81-3.22s-4.76-27.75,0-53.59l8.14,3s33.37,1.74,59.67-2.3l8.83-8,4.33,12.39s5.64,16.86,5.92,45.5l2,3Z" fill="url(#AZ)"/><path d="M684.65 398.62s11 2.12 30.65 2.84 56.78-11.13 56.78-11.13l.67 15-57.09 2.15c-12.79.62-29.8.78-29.8.78l-1.21-9.64z" fill="url(#Aa)"/><path d="M683.75 379.25s11.28.76 36.42 0 49.62-6.78 49.62-6.78a50.9 50.9 0 0 0-3.71-14.76s-17 9.07-44.83 10.94-37.12 0-37.12 0-.44 5.41-.38 10.6z" fill="url(#Ab)"/><path class="Ar Eb" d="M694 357.71l2.39 1.48-7.12 4.33s22.43 3.12 62.42-2.26l-1.08-2.07 3.06-3.78s-34.31 4.31-59.67 2.3z" fill="url(#Ac)"/><path class="As" d="M762.5 347.46s-11.34 23.49-8.83 55.08c-29.72 3.59-63.82 8.67-69.18-5.7l1.37 11.44-2.81 3.22 91.7-3.13-2-3s.38-37.5-10.25-57.91z" opacity=".53" fill="url(#Ad)"/><path d="M876.22 234.63s27.06 6.16 83.23.29c0 0-30.45-17.48-83.23-.29z" fill="url(#Ae)"/><path d="M886.17 160.18l1.51-4.75s26.29-15.92 59.59 0l.6 4.75s-36.61-9.32-61.7 0z" fill="url(#Af)"/><path d="M922.47 493.66l-6.96-305.25h3.53l8.99 305.25h-5.56z" fill="url(#Ag)"/><path d="M876.22 234.63l9.95-74.45s30.85-14.39 61.7 0l11.58 74.74s-40.45-13.66-83.23-.29z" fill="url(#Ah)"/><path class="Ax Ed" d="M893.09 157.64v-4.76l8.01-2.58v5.27l-8.01 2.07z"/><path d="M880,206.71s42.68-15.63,75.74,3.94l-3.52-22.71s-29.36-13.91-70.3,4.39Z" fill="url(#Ai)"/><path d="M878.53,217.36s41.13-15.9,78.2,0l2.72,17.56s-32.24-12.31-83.23-.29Z" fill="url(#Aj)"/><path d="M904.43 229.77l-1.14 47.86h2.5l.54-48.01-1.9.15z" fill="url(#Ak)"/><path class="BB Eb" d="M876.22 234.63s33.86-8.72 50.89-19.38c10.8-6.76 9-64.12 9-64.12l11.18 4.3 12.18 79.49s-28.53-12.31-83.25-.29z" fill="url(#Al)"/><path d="M271.73,395.15s19.9,58.25,27.75,61,59.27-57.34,59.27-57.34L328,395.71Z" fill="url(#Am)"/><path d="M384.47 419.95l24.56 88.26h-5.5l-42.7-86.76 23.64-1.5z" fill="url(#An)"/><path d="M417.97 410.98l44.42 97.23h-4.95L390.8 411.5l27.17-.52z" fill="url(#Ao)"/><path d="M425.01 411.77l-2.26 9.68H281.24l-6.6-11.48 150.37 1.8z" fill="#1c001d"/><path d="M281.24 421.45l-37.65 86.76h5.22l54.52-86.76h-22.09z" fill="url(#Ap)"/><path d="M337.6 421.45l-30.51 86.76h-6l11.3-86.76s14.49-8.64 25.21 0z" fill="url(#Aq)"/><path d="M482.05 411.86l3.24-16.71-264.59 1.86 2.73 14.85h258.62z" fill="url(#Ar)"/><g fill="#1c001d"><path d="M387.86 432.13s-8.74-.2-13.17 17.48l-13.86-28.16h24.1zm-100.64 14.95s-2.76-11.73-9.12-18.38l3.14-7.25h22.09l-15.8 23.88zm46.62-14.95s-14.6-9.71-23.21 2.43l1.71-13.11s13.48-9.25 25.26 0zm91.66-4.67s-13.92-2.47-15.34 12.13l-12.5-18.14h25.09z"/></g><path class="BJ Ea" d="M293.96 396.5l-3.25 15.36-35.04-.69-3.21-14.09 41.5-.58z" fill="url(#As)"/><path class="BK" d="M463.41 411.86l2.61-16.71h-31.76v15.83l29.15.88z" opacity=".64" fill="url(#At)"/><g class="Ed"><path d="M256.32 397.08a6.26 6.26 0 0 0 5.65 3.7c4.09 0 6.45-3.7 6.45-3.7zm55.85 55.77a23.79 23.79 0 0 1 0 8.89c-.94 4.75-2.91 6.34-2.91 6.34s-2.51-8.78 2.91-15.23zm120.33-3.24s0 6.63 4.86 8.74c0 0-.78-6.97-4.86-8.74z"/></g><path d="M268.42,396.5v-5s146.73,4,181.72,1.39l3.39,2.52-50.87,1.71s-34.81,50-41.68,52.53-45.8-53.8-45.8-53.8Z" fill="url(#Au)"/><path class="b Ea Ef" d="M316.31,393.39s36.55,49.26,46.85,49.53,36.55-47.34,36.55-47.34,33.6-1.17,50.43-3.2l3.39,3-50.87,1.71S366.91,448.75,361,449.61c-7.48,1.09-45.8-53.8-45.8-53.8l-46.76.69v-5Z"/><path d="M364.76 364.94s3.34-12.72-6.11-15.58c-10.36-3.13-21.69 7.15-16.89 17.44 3.24 7.05 19.66 6.77 23-1.86z" fill="url(#Av)"/><path d="M392 367.36c-1.1 7.18-4.26 18.55-13.3 27.93l-39.27-1.09a43.63 43.63 0 0 1-14.05-26.76.87.87 0 0 1 0-.11 44.51 44.51 0 0 1-.39-5.9l67.61-1.18a43.13 43.13 0 0 1-.6 7.11z" fill="url(#Aw)"/><path d="M331.42,362.27s2.6,5.94,6.88,6.21,6.15-7.08,6.15-7.08Z" class="Ed"/><path d="M361.35,360.8s4.94-8.74,13.76-8.58a10.85,10.85,0,0,1,10.62,8Z" fill="url(#Ax)"/><path d="M325.79 370.13l66.21-2.77-1.25 6h-64.21z" fill="url(#Ay)"/><path d="M329,380s43.36,2.69,58.48,2.43a69.7,69.7,0,0,1-3.77,6.68s-38.16.78-49.91-1A78.9,78.9,0,0,1,329,380Z" fill="url(#Az)"/><path class="BR Em" d="M392 367.36c-1.1 7.18-4.26 18.55-13.3 27.93l-39.27-1.09a43.63 43.63 0 0 1-14.05-26.76c.25 1.53 2.49 15.21 19.11 19.21 17.38 4.2 44.24-10.95 47.51-19.29z" fill="url(#BA)"/><path class="BS Eh" d="M1299.67 488.14l136.88-7.09v-5.44L1425.02 171l-133.42 7.23-9.45 175.94 17.52 133.97z" fill="url(#BB)"/><path d="M1352.83,417.11s-1.07-6.1-2.14-7.6-6.42-6-6.42-6h59.52s-5.35,4.49-6.42,6-2.14,7.6-2.14,7.6l12,7.81c0,13.28-6.46,31.05-6.46,31.05H1347.3s-6.46-17.77-6.46-31.05Z" fill="url(#BC)"/><path class="BU Eb" d="M1340.84 424.92s4.61 14.67 26.45 19.17 37.14-.32 37.14-.32l-3.16 10.7-54 1.5s-6.85-20.18-6.43-31.05z" fill="url(#BD)"/><path class="BV Eb" d="M1395.22 417.11h-42.39l-2.14-7.6h46.68l-2.15 7.6z" fill="url(#BE)"/><path d="M1450.73 486.58l-4.43-319.64h-6.34l6.07 319.64h4.7z" fill="url(#BF)"/><path d="M1439.96 166.94h-5.98l8.01 319.64h4.04l-6.07-319.64z" fill="url(#BG)"/><g fill="#c93d51"><path d="M1321.04 218.7l184.82-1.26-135.7-2.55-49.12 3.81zm5.67 132.85h179.15l-135.7-1.91-43.45 1.91z"/></g><path d="M1513.2 486.58l3.34-319.64h-8.11l-1.23 319.64h6z" fill="url(#BH)"/><path d="M1508.43 166.94h-7.65l1.25 319.64h5.17l1.23-319.64z" fill="url(#BI)"/><path d="M1383.93 486.58l-5.66-319.64h-8.11l7.76 319.64h6.01z" fill="url(#BJ)"/><path d="M1370.16 166.94l-5.34 1.71 7.93 317.93h5.17l-7.76-319.64z" fill="url(#BK)"/><path d="M1334.68 486.58l-9.66-314.51h-7.25l11.54 314.51h5.37z" fill="url(#BL)"/><path d="M1317.77 172.07h-6.85l13.76 314.51h4.63l-11.54-314.51z" fill="url(#BM)"/><path d="M1505.86 461.09v-7.37l-122.5.75v8.24l122.5-1.62z" fill="url(#BN)"/><path d="M1505.86 351.55v-7.37l-124.48-1.48.14 7.93 124.34.92z" fill="url(#BO)"/><path d="M1505.86 217.44v-7.37l-126.85-1.51.14 7.95 126.71.93z" fill="url(#BP)"/><path d="M1372.04 454.47l-43.37 2.62v7.23l44.03-.72-.66-9.13z" fill="url(#BQ)"/><path d="M1369.38 342.63l-44.15 2.35v6.57h44.15v-8.92z" fill="url(#BR)"/><path d="M1368.14 207.51l-47.1 2.46v8.73l47.38-2.34-.28-8.85z" fill="url(#BS)"/><path d="M1505.86 166.94l-1.26 8.13h-126.19l-.14-8.13h127.59z" fill="url(#BT)"/><path d="M1370.16 166.94l-50.04 5.13.92 6.11 49.12-3.11v-8.13z" fill="url(#BU)"/><g class="Ef"><path class="b Ea" d="M1449.08 367.6l-5.74 3.83-3.85 15.37-.9-35.76 9.85.56.64 16zm-118.85-10.54h0l-5-5.51 4.69-.28.31 5.79zm-9.19-138.36l4.71 7.77v-8.13l-4.71.36zm125.97-.87v8.64l-5.85 3.72-5.56 1.65-.33-13.5 11.74-.51z"/></g><path d="M1479,343.75a49.28,49.28,0,0,0,8.06-26.83s-20.71-1.88-51.75,0a55.31,55.31,0,0,0,8.31,26.41Z" fill="url(#BV)"/><path d="M1465,316.09l-1.21-8.32,5.77-11.88s1.23-9.55-2.89-16.63l-2.88-1.81s.78-5.89,2-7.07H1465a45.56,45.56,0,0,0-2.36,8.54l2.82,1.31s4,7.23,2.43,14.72l-8.07,9.49-1,4.82a9.64,9.64,0,0,1,1.32,6.83Z" fill="url(#BW)"/><path d="M1482.92 317.14a3.38 3.38 0 0 1-2.91 2.8c-2.49.2-2.49-2.8-2.49-2.8a17.55 17.55 0 0 1 5.4 0z" class="Ed"/><path class="Bp Em" d="M1485.85 327.76s-3.13 12.45-23.62 12.34-26.88-23.18-26.88-23.18.48 14.49 8.31 26.41l35.38.42s5.64-8.05 6.81-15.99z" fill="url(#BX)"/><path d="M1461.27,305.16l-1.68-2.47a22.15,22.15,0,0,1-14.46-3.35c-7.36-4.62-8.58-21.09-8.58-21.09a25.67,25.67,0,0,1,16.92,6.3c6,5.2,6.25,17.05,6.25,17.05l1.46,2.65Z" fill="url(#BY)"/><path class="Br Eb" d="M1453.6 292.06l-5.31 8.94s-5.35-1.52-8.38-8.55l8.38-6.12s4.13 2.8 5.31 5.73z" fill="url(#BZ)"/><path class="Bs Eb" d="M1446.14 284.43l-8.24 1.9-.5-2.26 7.19-.88 1.55 1.24z" fill="url(#Ba)"/><path class="Bt Ea Et" d="M1451.67 289l.71-5.3s-5.77-4.44-12.47-5.22v1.24a43.81 43.81 0 0 1 11.76 9.28z"/><path d="M1460 302.18s-7.11-18-23.49-23.93c.04 0 14.61 5.95 23.49 23.93z" fill="url(#Bb)"/><path d="M1463.58,311l3.36-2.25a14,14,0,0,1,6.27-10.17c5.83-3.63,17,2.08,20.4,5,0,0-5.56,6.35-12.92,8.39s-13.2-3-13.2-3l-3.38,4Z" fill="url(#Bc)"/><path class="Bw Eb" d="M1486,302.64s-5.72-.66-8.76-.07l2.74,9.56a27.26,27.26,0,0,0,7-3Z" fill="url(#Bd)"/><path class="Bx Eb" d="M1476.51,303.26l-.53,9.14a20.09,20.09,0,0,1-3.36-.69l2.39-8.19Z" fill="url(#Be)"/><path d="M1467.11 308.92s5.45-5.67 10.44-6.92 16.06 1.57 16.06 1.57-12.1-2.17-17.1-.31a35.93 35.93 0 0 0-9.4 5.66z" fill="url(#Bf)"/><path class="Bt Ea Et" d="M1477.65 297.36s-3.39 3.93-4.28 6.51l-6.43 4.83s1.31-5.75 4.49-8.29a15.1 15.1 0 0 1 6.22-3.05z"/><path d="M1468.83,292.3l-.19-1.75s4.81-5.29,1.08-14.13-13-14.13-13-14.13-3.46,8.81-1.89,15.27c2,8.35,12.74,13,12.74,13l.64,2.07Z" fill="url(#Bg)"/><path class="Bt Ea Et" d="M1469.89 276.84l-5.57-1.18-4.59-8.87 1.78-1s6.36 5.31 8.38 11.05z"/><path class="CA Eb" d="M1464.63 278l-6.31 5.82s5 5 9.29 6.71c0 0-.81-8.53-2.98-12.53z" fill="url(#Bh)"/><path d="M1468.64 290.55a113.47 113.47 0 0 0-4-14.12c-2.49-6.76-7.85-14.14-7.85-14.14s5.22 7.89 7.38 14.24 4.47 14.02 4.47 14.02z" fill="url(#Bi)"/><path d="M1414.24,304.09s4-8.75,8.07-24.25c0,0-8.56,10.67-13.45,22.53s5.38,1.72,5.38,1.72Z" fill="url(#Bj)"/><path d="M1401.36,302s.4-36.78-16.71-64.3c0,0,1.46,24.12,3.66,36.32s10.7,28,10.7,28Z" fill="url(#Bk)"/><path d="M1404.94,302.37s1.47-42.39,9.3-80.5a131.32,131.32,0,0,0-12,30c-3.91,16-.89,50.1-.89,50.1Z" fill="url(#Bl)"/><path d="M1408.66,303.59s6.61-20.88,8.81-38.2,1.27-26.48,1.27-26.48-7.74,18.09-12,35.27a261.89,261.89,0,0,0-5.6,29Z" fill="url(#Bm)"/><path d="M1384.65 237.7s6.6 19 10 34.13 6.5 31.39 6.5 31.39l.19-1.22s.18-39.47-16.69-64.3z" fill="url(#Bn)"/><path class="CH Eb" d="M1414.24 221.87s-4.6 9.46-9.3 31.28-2.44 50.07-2.44 50.07h-1.33s-1.34-33 0-47.38 13.07-33.97 13.07-33.97z" fill="url(#Bo)"/><path class="CI Eb" d="M1407 272.33l-1.78 30.89 3.41.37s-2.02-26.97-1.63-31.26z" fill="url(#Bp)"/><path d="M1395.63,308.68s0-9.88-.78-19.54-6.11-22.13-6.11-22.13,0,17.32,1.09,25a104.51,104.51,0,0,0,3.67,15.48Z" fill="url(#Bq)"/><path d="M1418.06,343.14l4.45-41.87s-25.43-1.89-38.42,1.21l5,40.84Z" fill="url(#Br)"/><path d="M1421.37,312h2.36l1.29-12.14a114.35,114.35,0,0,0-43.23.81l1.16,10.72,2.3.61v-.88a150.28,150.28,0,0,1,36,.2Z" fill="url(#Bs)"/><path d="M1423.73 312l-2.55 1.77s-19.8-1.16-35.72 0l-2.51-2.38s21.37-2.95 40.78.61z" fill="url(#Bt)"/><path class="CN Em" d="M1421.18 313.8s-22.63 2-30 7l2.28 18.45s8 4 24.65 3.93l-29 .18-3.58-29.52a179 179 0 0 1 35.65-.04z" fill="url(#Bu)"/><path d="M1405.66 417.11l3.58-36.71h9.7l3.57 36.71s12.54 12.53 11.49 21.89-12.8 15.25-12.8 15.25h-6.46-1.27-6.45s-11.73-5.89-12.8-15.25 11.44-21.89 11.44-21.89z" fill="url(#Bv)"/><path d="M1433.76 440.39L1394.2 439s-.94-4.06 2.83-10.6l35.25 2.41a16.32 16.32 0 0 1 1.48 9.58z" fill="url(#Bw)"/><path d="M1422.51 417.11h-16.85l1.74-17.86 13.47.99 1.64 16.87z" fill="url(#Bx)"/><path class="CR Eb" d="M1434 439s-5.31 8.2-19.89 6.27-13.73-19.87-4.31-27.92l1.72-36.94h-2.26l-3.58 36.71s-12.49 12.13-11.46 21.88 12.8 15.25 12.8 15.25h14.18s11.55-5.58 12.8-15.25z" fill="url(#By)"/><path d="M1487.1,454.24s12.72-18.57,3.14-37.13h-31.12s-9.81,17.28,2.08,36.92Z" fill="url(#Bz)"/><path class="CT Eb" d="M1492.83 440.39s-2.19 8.63-18.26 8.51-18.67-21.9-18.67-21.9-3.23 11.82 5.3 27.08l25.9.21s4.81-7.44 5.73-13.9z" fill="url(#CA)"/><path d="M1478.59 197v-7.37h1.74v-8.67h-51.7l-18.58 3.53.41 7.07-1.8.64v8.67l69.93-3.87z" fill="url(#CB)"/><path class="CV Em" d="M1428.63 180.96v7.23h-3.22l.5 11.09-17.25 1.59v-8.67l1.8-.64-.41-7.07 18.58-3.53z" fill="url(#CC)"/><path d="M1486.97 209.85v-14.34l-54.86 2.03-21.65 2.28v2.02h2.42v5.07h-1.54l-.88 2.03 76.51.91z" fill="url(#CD)"/><path d="M1412.88 201.84l23.11-2.15 47.64-1.9V208l-47.64-1.6-23.11.51v-5.07z" fill="url(#CE)"/><path class="CY Em" d="M1483.63 197.79v1.69l-45.7 1.86.58 5.14-25.63.43v-5.07l23.11-2.15 47.64-1.9z" fill="url(#CF)"/><g class="Ef"><path class="b Ea" d="M1505.86 217.44l-4.86 7.39v-7.36l4.86-.03zm0 134.11l-4.34 6.26-.02-6.3 4.36.04z"/></g><path class="CZ Eh" d="M1268.65 352.7l-25.54-5.61-14.46-7.81s-2.52 1.64-17.81 4.47l-3.48-4.47-52.36 14.38-31.16 6.26-7.84 118.84 27.87.88L1244.66 491l42-2.72z" fill="url(#CG)"/><path class="Ca Eh" d="M1224.49 311.37l-6.78-1.2 4.19-24-4.24 9.37v-8l-3.42 15.52-2.84 6.27a128.73 128.73 0 0 0 0-36.61l-2.4 29.67s-2.39-30.06-7.75-43.64v42.13c-2.84-8.53-6.78-19.27-10.51-25.73 0 0 4.94 19 6.68 32l-5.48-8.77V309a57.91 57.91 0 0 0-9 1.27l1.32 13.28 2.76 1.21 2.24 17.89h28.4l3.14-18.88 2.33-1.75z" fill="url(#CH)"/><path d="M1316.18 486.58l-.38-147.3h-10.08l3.49 147.3h6.97z" fill="url(#CI)"/><path d="M1305.72 339.28l-90.75 2.19 2.84 145.11h91.4l-3.49-147.3z" fill="url(#CJ)"/><path d="M1217.81 486.58l-.38-147.3h-10.07l3.48 147.3h6.97z" fill="url(#CK)"/><path d="M1207.36 339.28l-63.42 2.24v145.06h66.9l-3.48-147.3z" fill="url(#CL)"/><path d="M1305.72 339.28l-1.51 11.76h-86.78v-11.76h88.29z" fill="url(#CM)"/><g class="Eo"><path class="Ae Ea" d="M1238.09 486.58l-6.21-135.54h-14.45l.38 135.54h20.28z"/><path class="Cg" d="M1304.21 351.04l-86.4 45.56-.38-45.56h86.78z" opacity=".67"/></g><path class="Ch Eb" d="M1210.84 486.58l-3.48-82.19-24.71-.7 4.84 61.58h-23v-29.43h-20.55v50.74h66.9z" fill="url(#CN)"/><path d="M1257.05,307.08l4.24-24.3L1250.8,306a129.17,129.17,0,0,0,0-36.61L1248.36,299s-2.38-30.06-7.74-43.64v54.51L1231.3,295v16.28Z" fill="url(#CO)"/><path d="M1257.05 309.06v-24.88l-5.66 25.71 5.66-.83z" fill="url(#CP)"/><path d="M1244.66,310.44s-7.64-26.69-14.55-38.66c0,0,7.39,28.49,7.28,39.49Z" fill="url(#CQ)"/><path d="M1257.05 339.28l4.51-27.08-36.58-2.31 3.67 29.39h28.4z" fill="url(#CR)"/><path d="M1263.89 308l-1.37 10.65-2.32 1.75-33.79 1-2.76-1.21-1.31-13.28s16.05-4.16 41.55 1.09z" fill="url(#CS)"/><path d="M1260.2,320.4l-33.79,1-2.76-1.21s13.74-3.37,38.87-1.53Z" fill="url(#CT)"/><path class="Co Em" d="M1252.31 320.63s-14.38 1.08-21 2.76v14l25.7 1.9h-28.4l-2.24-17.89s15.23-1.55 25.94-.77z" fill="url(#CU)"/><path d="M1291.6 465.31v-3.91h-4.31v-7.8l2.15-.81V441.9h-72.01v23.37l74.17.04z" fill="url(#CV)"/><path class="Cg Eo" d="M1230.11 441.9v8.35l59.33 2.54-2.15.81h-59.53v8.91h5.6l.13 2.8-16.06-.04V441.9h12.68z" opacity=".67"/><path d="M1645.9,288l3.7,1.05s40.93,95.06,52.69,130.26c14.56,43.56,7,98.19,7,98.19H1705s-2.38-64.56-12.91-100.91S1645.9,288,1645.9,288Z" fill="url(#CW)"/><path d="M1638.56,293.35s36.49,85.5,48.87,131.72c11.71,43.75,9.41,92.42,9.41,92.42H1705s6-46.41-8.15-94.57c-11.41-39-51-134.93-51-134.93Z" fill="url(#CX)"/><path class="b Ea Ef" d="M1709.85 456l-4.64 12.56-6.16 2.52-8.21-41.27 15.42 3.85a210.92 210.92 0 0 1 3.59 22.34z"/><path d="M1566.4,298.29s56.24,5.15,79.5-2.66l33.45,82.9-2,2.72s-32.1,12.06-84.26,5.61Z" fill="url(#CY)"/><path d="M1562.81 288l3.7 1.05 45.56 130.26c14.56 43.56 7.14 98.19 7.14 98.19h-4.42s-2.38-64.56-12.91-100.91L1562.81 288z" fill="url(#CZ)"/><path d="M1555.47,293.35s30.16,85.29,41.74,131.72c11.47,46,9.94,92.42,9.94,92.42h7.64s6-46.41-8.15-94.57C1595.18,384,1562.81,288,1562.81,288Z" fill="url(#Ca)"/><path d="M1698.35 517.49h6.31s2-56.23-11.21-92l-13.32-2.74s21.81 45.25 18.22 94.74z" fill="url(#Cb)"/><path d="M1670 422.74s16.79 25.65 24.45 94.75h5.55s0-51.13-14.7-94.16a97.62 97.62 0 0 0-15.3-.59z" fill="url(#Cc)"/><path d="M1785.65 517.49h6.35s2-56.23-11.22-92l-13.31-2.74s21.76 45.25 18.18 94.74z" fill="url(#Cd)"/><path d="M1757.31 422.74s16.79 25.65 24.45 94.75h5.51s-1.65-49.86-14.7-94.16a97.62 97.62 0 0 0-15.26-.59z" fill="url(#Ce)"/><path d="M1711.91 435.94h87.37s-10.81-11.44-24.67-15.11c-49.21-13.06-106.78.19-109 .66L1635 435.94s36-13.44 52.28-10.45 24.63 10.45 24.63 10.45z" fill="url(#Cf)"/><path d="M1611.86 435.94l2.61 9.52s48.87-18.69 65.94-17.67 22.77 10.87 22.77 10.87l8.73-2.72s-14.25-16-31.12-16.3-68.93 16.3-68.93 16.3z" fill="url(#Cg)"/><path d="M1799.28 435.94l-7.97 2.73h-88.13l8.73-2.73h87.37z" class="Er"/><path d="M1796.22,415.09s-23.93-16-50.62-17.76c-22-1.42-50.31,2.77-50.31,2.77s-20.61-82.47-41.77-115.73c0,0-48.89-6.76-80.76.12,0,0,36.36,90.45,43.3,145.38,0,0,51.61-21.37,76.39-20.81s29.3,10.57,29.3,10.57Z" fill="url(#Ch)"/><path d="M1720.1 424.76a13.59 13.59 0 0 1-6.52 5.74h0c-.83-.46-11.28-6.3-20.3-9.21h-.08a31.48 31.48 0 0 0-7.23-1.59 35.14 35.14 0 0 0-3.72 0c-8.16.35-19.88 3-31.25 5.58h-.19c-16 3.62-31.2 7.06-34.82 3.74-4-3.63-9.29-22-17.48-48a.75.75 0 0 1 0-.16c-7.71-24.52-18-55.85-32-88.25 0 0-.72-9.35 6.35-8.08 0 0 24.39 28.85 48.34 131.74 2.81 12.09 51.74-14.56 69.74-16.07s32 12.85 32 12.85a22.55 22.55 0 0 1-2.84 11.71z" fill="url(#Ci)"/><path d="M1714.34 429.81s53.87 4.27 77.94.06a17.58 17.58 0 0 0 3.94-14.78s-26.24 2.34-73.39-2.08c0-.01 1.17 8.41-8.49 16.8z" fill="url(#Cj)"/><path class="DE Eb" d="M1586.69 346c1.46 4.09 3 8.86 4.63 14q-2.32-6.85-4.63-14z" fill="url(#Ck)"/><path class="DF Eb" d="M1794 427.52l-1.72 2.35s-18.24 5.55-78.71.63h0a77 77 0 0 0-20.3-9.21h-.08a43 43 0 0 0-11-1.61h-1.41c-6.59.26-18.1 2.67-29.84 5.56h-.19c-16 3.62-31.2 7.06-34.82 3.74-4-3.63-9.29-22-17.48-48 7.31 20.73 14.08 37.6 19.29 45 17.21 4.52 42.44-6.08 60.82-8.39l-1.27-8.83 3.92 8h6.11l9.69-6.8-4.57 7.87s20.33 6 26.63 6.81l1 .14c8.93 1.31 48.43 8.49 73.93 2.74z" fill="url(#Cl)"/><path d="M1576.41 288.95l58.55 16.35 20.84-17.15 6.09 11.8-7.75 8.32 12.94 3.53 4.48 11.49-36.6-11.36-40.15 16.21-4.62-11.29 10.33-6.28-15.62-5.27-8.49-16.35z" fill="url(#Cm)"/><g class="Eu"><path d="M1590.19 316.85l-10.26 9.42 3.41 9.34 11.47-7.47-4.62-11.29zm-5.29-11.55l-9.37 9.43-4.76-11.85 5.64-13.93 8.49 16.35z"/></g><path d="M1607.75 367.08l40.55 4.96 35.29-11.98 3.65 11.42-11.16 4.04 13.73 4.38 2.64 9-42.35-7.92-32.44 21.63-3.2-12.13 10.69-9.15-13.85-3.03-3.55-11.22z" fill="url(#Cn)"/><g class="Eu"><path d="M1607.75 367.08l-10.26 10.82 3.07 9.77 10.74-9.37-3.55-11.22zm6.71 23.4l-9.53 11.26 2.82 8.52 9.91-7.65-3.2-12.13z"/></g><path d="M1614.11 344.55l31.78 8.84 21.87-14.53-28.45-10.72-25.2 16.41z" fill="url(#Co)"/><g class="Eu"><path d="M1663.22 422.37l-1.33-13.38 10.52-3.86v15.48l-9.19 1.76zm24.52-2.74l12.61-18.87s6.4-.26 14.44 6l-17.93 16.16z"/></g><path d="M1714.79 406.76l21.42-7.71 34.09 3.56a102.21 102.21 0 0 0-13.91-3.83 120.46 120.46 0 0 0-29.09-1.57l3.94.42s-37.19-2-58 7.21c0 0 11-4.15 21-4.47l20.62-1.46-14.44 1.85s12.22 4.56 14.37 6z" fill="url(#Cp)"/><path d="M1742 414.53l9.4-5.94 35.91 7s-26.17.46-45.31-1.06z" fill="url(#Cq)"/><path d="M1742 414.53l16.9 11 28.41-10s-28.21.34-45.31-1z" fill="url(#Cr)"/><path class="DN Ea" d="M1579.93 283.21s40.41 53.24 58.63 109.3l46.43 1.84s-9.78-85.05-34.89-110.41c0 0-42.55-4.42-70.17-.73z" fill="url(#Cs)"/><path d="M1597.49 281.63L1624 288l14.57-5.21s-21.71-3.03-41.08-1.16z" fill="url(#Ct)"/><path d="M112.47 366.45l-178.07 7.37V-53.47l174.52 79.26 3.55 340.66z" fill="url(#Cu)"/><path d="M100.15 349.64L93.17 36.73l-145-66.34v383.78l151.98-4.53z" fill="url(#Cv)"/><path d="M-51.83 340.06H65.85L62.3 55.83-51.79 11.61l-.08 14.18L50.14 64.63l6.59 265.7-108.56-.49v10.22z" fill="url(#Cw)"/><path d="M-51.87 25.79L50.14 64.63l6.59 265.7-108.56-.49-.04-304.05z" class="Ed"/><path d="M-51.87 25.79v8.78l97.62 33.1 4.14 262.24 6.84.42-6.59-265.7-102.01-38.84z" fill="url(#Cx)"/><path class="DT Eg" d="M62.3 55.83l30.87-19.1-145-66.34.04 41.22L62.3 55.83z" fill="#bd2266"/><path d="M53.21 188.41l-105.04-15.85-.04 15.85 105.32 9.38-.24-9.38z" fill="url(#Cy)"/><path class="DV Eg" d="M104.27 366.79l-4.12 7.03-177.69 7.27V-43.12l4.73-6.37 1.68 423.31h5.53l169.87-7.03z" fill="url(#Cz)"/><path d="M-58.29-74.08v371.21l175.55 6.68.08-295.71-175.63-82.18z" opacity=".85" fill="url(#DA)"/><path d="M-56.13-101.51l-9.02 1.3 4.31 24.94L117.34 8.1h6.43l-179.9-109.61z" fill="url(#DB)"/><path d="M125.55-7.61L123.77 8.1-56.13-77.87v-23.64l181.68 93.9z" fill="url(#DC)"/><path d="M-58.29 297.13l2.16-17.87 173.45 12.27-.06 12.28-175.55-6.68z" fill="url(#DD)"/><g fill="#ffffb8"><path class="Da" d="M-30.5 147.93V-3.4L95 41.71l-.92 127.43-124.58-21.21zm4.29 22.7v109.21l119.38 9.98-1.16-104.18-118.22-15.01z"/></g><path d="M2.46-48.06l2.32 331.63 20.03 1.94-1.45-323.79-20.9-9.78z" fill="url(#DE)" class="Ea"/><path d="M53.45-21.8l3.31 309.05 20.98 1.48-5.65-301.8-18.64-8.73z" fill="url(#DF)" class="Ea"/><path d="M93.17-3.4v293.22l16.52 1.17-1.22-286.82-15.3-7.57z" fill="url(#DG)" class="Ea"/><path d="M1731.08 366.45l178.07 7.37V-53.47l-174.52 79.26-3.55 340.66z" fill="url(#DH)"/><path d="M1743.41 349.64l6.98-312.91 144.99-66.34v383.78l-151.97-4.53z" fill="url(#DI)"/><path d="M1895.38 340.06H1777.7l3.55-284.23 114.1-44.22.08 14.18-102.02 38.84-6.58 265.7 108.55-.49v10.22z" fill="url(#DJ)"/><path d="M1895.43 25.79l-102.02 38.84-6.58 265.7 108.55-.49.05-304.05z" class="Ed"/><path d="M1895.43 25.79v8.78l-97.63 33.1-4.13 262.24-6.84.42 6.58-265.7 102.02-38.84z" fill="url(#DK)"/><path class="DT Eg" d="M1781.25 55.83l-30.86-19.1 144.99-66.34-.03 41.22-114.1 44.22z" fill="#bd2266"/><path d="M1790.34 188.41l105.04-15.85.05 15.85-105.32 9.38.23-9.38z" fill="url(#DL)"/><path class="Dj Eg" d="M1739.29 366.79l4.12 7.03 177.69 7.27V-43.12l-4.73-6.37-1.69 423.31h-5.53l-169.86-7.03z" fill="url(#DM)"/><path d="M1899.69-101.51l9.01 1.3-4.31 24.94L1726.21 8.1h-6.42l179.9-109.61z" fill="url(#DN)"/><path d="M1718.01-7.61l1.78 15.71 179.9-85.97v-23.64l-181.68 93.9z" fill="url(#DO)"/><path d="M1726.21 8.1v140.25l13.08-2.35-11.41 19.8 10.31-1.65-7.11 25.81 170.77-29.71 3.54-29.83-10.64 6.59 10.64-27.87-10.38 6.84 4.93-189.16L1726.21 8.1z" opacity=".85" fill="url(#DP)"/><g fill="#ff8147"><path d="M1726.21 148.35l168.8-32.37-159 32.37h-9.8zm1.67 17.45l166.87-28.79-157.19 29.44-9.68-.65z"/></g><g fill="#d6616d"><path d="M1905.39 130.42h-8.12l-2.52 6.59 10.64-6.59zm0-21.28l-10.25 1.77-.13 5.07 10.38-6.84z"/></g><g fill="#bd4a72"><path class="Dp Eg" d="M1738.17 147.94l162.03-25.2 5.19-13.6-10.38 6.84-156.84 31.96zm-.61 18.51l166.31-23.24 1.52-12.79-10.64 6.59-157.19 29.44z"/></g><path class="Da" d="M1743.41 25.79l115.87-45.61-7.29 132.38-112.7 23.18 4.12-109.95z" fill="#ffffb8"/><path d="M1888.12-68.1l-12.68 187.83-17.74 3.41 9.83-180.91 20.59-10.33z" fill="url(#DQ)" class="Ea"/><path d="M1838.44-44.86l-8.25 173.27-15.94 3.06 5.14-167.41 19.05-8.92z" fill="url(#DR)" class="Ea"/><path d="M1792.49-22.91l-5.52 160-15.09 2.58 3.2-154.43 17.41-8.15z" fill="url(#DS)" class="Ea"/><path d="M1738.17 2.51v143.55l14.05-2.69-.42-147.4-13.63 6.54z" fill="url(#DT)" class="Ea"/><path d="M1884.34 118.15L1876 140.3l-18.3 3.65 9.53-22.64 17.11-3.16z" fill="url(#DU)" class="Ea"/><path d="M1841.13 126.31l-6.96 22.04-16.75 1.83 7.06-19.76 16.65-4.11z" fill="url(#DV)" class="Ea"/><path d="M1796.43 136.05l-5.26 18.83-17.66 3.05 6.7-18.58 16.22-3.3z" fill="url(#DW)" class="Ea"/><path d="M1760.79 143.3l-7.63 18.14-13.87 2.39 8.44-17.89 13.06-2.64z" fill="url(#DX)" class="Ea"/><path d="M1746.04 164.76l-6.2 23.7 14.73-2.56 7-24.05-15.53 2.91z" fill="url(#DY)" class="Ea"/><path d="M1780.76 157.93l-7.25 24.65 16.6-2.89 6.32-24.86-15.67 3.1z" fill="url(#DZ)" class="Ea"/><path d="M1829.28 147.94l-7.8 26.25 15.09-2.45 6.2-25.68-13.49 1.88z" fill="url(#Da)" class="Ea"/><path d="M1868.91 141.31l-7.41 25.96 14.84-2.58 9.9-26.09-17.33 2.71z" fill="url(#Db)" class="Ea"/></g></g><path d="M439.061 173.347l49.187 56.883-25.189 21.781-49.187-56.883z" class="Ek"/><g class="Ep"><path d="M436.93 237.21l-30.23-39.82 32.33-24.04 31.6 36.56-33.7 27.3z"/><path d="M437.32 196.84a16.65 16.65 0 1 1 1.68-23.49 16.65 16.65 0 0 1-1.68 23.49zm49.18 56.88a16.65 16.65 0 1 1 1.71-23.48 16.64 16.64 0 0 1-1.71 23.48z"/></g><g class="Eq"><path d="M387,286.9s-8.26,11.37-5.08,55.72c1.36,18.89,10.21,80.06,12.38,118.37l44.21-2.79-8.16-159.63Z"/><path d="M394.33 460.99l9.47 143.42h38.16l-3.42-146.21-44.21 2.79z"/><use xlink:href="#Dc"/><use xlink:href="#Dc"/><path d="M313.65 457.07l-27.49 141.09 36.9 9.75 34.04-142.24-43.45-8.6z"/><circle cx="335.37" cy="461.37" r="22.15" transform="matrix(.244969 -.969531 .969531 .244969 -194.1 673.5)"/><path d="M350.79,298s-9.26,9.61-17.56,50.26c-3.79,18.55-11.9,71.26-19.58,108.85l43.45,8.6,40.37-168.43Z"/><circle cx="335.37" cy="461.37" r="22.15" transform="matrix(.244969 -.969531 .969531 .244969 -194.1 673.5)"/></g><g class="Ep"><path d="M350.79,298,342,210.13l6.15-42.54h78.29s19.43,38.21,4.29,87l-.32,44Z"/><path d="M426.46 200.89a16.65 16.65 0 1 1 16.63-16.68 16.64 16.64 0 0 1-16.63 16.68z"/></g><path d="M376.02 131.68l1.34 34.71h28.97l-2.17-13.82-28.14-20.89z" class="Ek"/><path d="M402.5 155.49a9.9 9.9 0 0 0 2.12 0l.87 5.56c-14.1-.91-18.6-15.32-18.6-15.32h0c3.11 3.48 11.91 9.41 15.61 9.76z" class="Eq"/><path d="M382.18,136.12s1.82,6.37,4,9.62,15,13.6,22,9c5.34-3.51,6.4-12.45,6.67-18.65.32-7.18.42-15.39-.59-21.9l-24.11-4.78-8.89,19.67Z" class="Ek"/><g class="Eq"><path d="M406.44 129.06c0 1.45.84 2.61 1.83 2.6s1.79-1.2 1.77-2.65-.84-2.61-1.83-2.6-1.79 1.2-1.77 2.65zm-10.37-.44c0 1.45.84 2.62 1.83 2.6s1.79-1.19 1.77-2.64-.84-2.62-1.83-2.61-1.79 1.2-1.77 2.65zm15.03-7.46a.61.61 0 0 0 .51-.28.6.6 0 0 0-.19-.82 5.13 5.13 0 0 0-5.18-.12.6.6 0 0 0 .56 1 3.93 3.93 0 0 1 4 .08.62.62 0 0 0 .3.14zm-9.7.22a.6.6 0 0 0 .49-.24.61.61 0 0 0-.13-.84 5.38 5.38 0 0 0-5.84-.24.6.6 0 0 0 .62 1 4.15 4.15 0 0 1 4.51.19.66.66 0 0 0 .35.13zm3.6 22.47q.3 0 .6 0a.594.594 0 1 0-.13-1.18 5.57 5.57 0 0 1-5.63-4 .6.6 0 0 0-1.14.37 6.86 6.86 0 0 0 6.3 4.81zm.27-4.71a2.51 2.51 0 0 0 1.44-.42 1.83 1.83 0 0 0 .72-1.27c.21-1.48-1.81-9-2.21-10.48a.6.6 0 0 0-.74-.42.59.59 0 0 0-.41.73c.91 3.36 2.31 9.06 2.18 10a.61.61 0 0 1-.24.46 1.5 1.5 0 0 1-1 .17.6.6 0 0 0-.68.5.59.59 0 0 0 .49.68 2.34 2.34 0 0 0 .45.05zM376 110.17s-16.06-4.89-1.06 22l1.57 12.92 5.3-7.4 3.66-6.7 2.36 6.15h1.35l-.37-14.66s5.31-1.77 5-8.77c0 0 23.69 6.87 27.32-1.43l-4.13-5.97-2.88 1.55a16.45 16.45 0 0 0 4.21-10l-5.54 4.88s4-5 0-11.42l-7-.33s-1.71 3.66-7.61 6.32c-7.12 3.2-25.84.42-22.18 12.86z"/></g><circle cx="380.11" cy="133.08" r="5.79" class="Ek"/><path d="M394.25 179.27l6.24-11.6 7.52 11s2.42-8.72 2.41-11l-5.34-9.17-4.76 6.5-23.42-10.55-1.9 13.14z" class="Ed"/><path d="M390.18,99.07l2.35-.35a32.59,32.59,0,0,1-5.06,9.69A27.13,27.13,0,0,1,376,117a28.48,28.48,0,0,1-6.91,1.57,14.46,14.46,0,0,1-.48-4,36.27,36.27,0,0,0,21.59-15.52Z" class="Ep"/><g class="Ek"><path d="M308,227.64a16.65,16.65,0,1,1-22.23,7.76A16.65,16.65,0,0,1,308,227.64Z"/><path d="M287.84 232.14l26.41-32.55 16.38 32.66-16.93 20.87-25.86-20.98z"/></g><g class="Ep"><path d="M297.85 203.87l40.28-32.92 22.95 23.78-30.45 37.52-32.78-28.38z"/><path d="M337.66 197.17a16.65 16.65 0 1 1 23.42-2.44 16.64 16.64 0 0 1-23.42 2.44z"/></g><g class="Ek"><path d="M313.4 231.78l44.46 58.66-18.41 15.82-51.31-52.77 25.26-21.71z"/><path d="M289.92 230a16.65 16.65 0 1 1-1.78 23.47 16.65 16.65 0 0 1 1.78-23.47zm50.82 59.14a12.14 12.14 0 1 1-1.29 17.12 12.14 12.14 0 0 1 1.29-17.12z"/><path d="M357.86,290.43c7.19,4,21.32,16.94,20.5,18.87s-14.85-6.76-14.85-6.76Z"/><path d="M357.86,290.43c10.08,10.05,25.25,34.29,24,36.2s-13.61-13.07-13.61-13.07,10.17,14.69,7.84,17-11.65-14-11.65-14,7.44,18,5.09,18.81-9.16-16.9-9.16-16.9,2.86,16.36.58,16.55-4.47-13.28-5.45-15.95-9.87-.59-16.06-12.82Z"/><path d="M338.29 292a12.14 12.14 0 1 0 16.71-4 12.14 12.14 0 0 0-16.71 4zm125.82-62.91l53.44-47.94 17.07 16.67-47.1 54.95-23.41-23.68z"/><path d="M464 253a16.65 16.65 0 1 1 23.54-.27A16.65 16.65 0 0 1 464 253zm54.48-55.73a12.13 12.13 0 1 1 17.16-.2 12.13 12.13 0 0 1-17.16.2z"/><path d="M521.57 199.46a12.14 12.14 0 1 0-5.48-16.26 12.14 12.14 0 0 0 5.48 16.26z"/><path d="M532.48 199.4a12.14 12.14 0 1 0-16.33-5.29 12.14 12.14 0 0 0 16.33 5.29z"/><path d="M518.61,170.33c3.81-5.13,12.73-8,12.73-8s16.66-6.72,23.44-5.47c4.91.9-5.52,4.88-9,6.3,4.74.51,13.51,0,13.79,1.23.69,3-15.95,4-15.95,4s15.48.84,15.23,2.75-16,2.33-16,2.33,13.92,1.26,13,3.24-18.94-.67-17.93,2a14.58,14.58,0,0,1-1.54,14l-10.3-1.72Z"/></g><path d="M561.73 186.44L585.62 134a5.88 5.88 0 0 0-2.94-7.78l-29.95-13.52a5.88 5.88 0 0 0-7.78 2.94l-23.9 52.49a5.89 5.89 0 0 0 2.94 7.78l30 13.52a5.88 5.88 0 0 0 7.74-2.99z" class="Eq"/><path d="M576.82,126.18l4.86,2.2a3.46,3.46,0,0,1,1.73,4.58l-23.09,50.71a3.46,3.46,0,0,1-4.57,1.73l-30-13.53a3.46,3.46,0,0,1-1.73-4.57l23.09-50.71a3.45,3.45,0,0,1,4.58-1.73l4.86,2.19Z" fill="#1a7dfb"/><path d="M514.16,189.51s-2.23-16.27-.1-21.14c3.74-8.56,15.68-8.83,17.28-6.08s-8.24,4.62-8.79,7.45c-1.09,5.65,11.79,12.31,7.36,21.79Z" class="Ek"/><path d="M1378.12 295.14l32.77-86.31c4.39-9.21 10.87-9.81 17.85-7.25 6.59 2.41 10.65 10.38 8.51 17.07l-33.69 84.68a13.12 13.12 0 0 1-16 8.66l-.48-.14a13.11 13.11 0 0 1-8.96-16.71z" class="Ei"/><path d="M1437.25,218.65a11.43,11.43,0,0,0,.52-2.64c-1-3.72-3.57-6.14-7.42-7.95-6.43-3-15.8-2.66-18.38,0l-2.08,3.42-18.1,47.66a91.51,91.51,0,0,0,24.54,12.1Z" class="Ej"/><path d="M1413.94 202.22l-27.3 44.78c6.64 8.24 29.45 20.44 44.08 20.66l9.06-48.11c1.75-9.62-1-14.3-7.47-17.32s-15.79-2.67-18.37-.01z" fill="#1d1b24"/><g fill="#93929c"><path d="M1448,489.52l13-137.46c.07-15.18-15.66-31.72-38.72-28.11-20.83,3.25-27.17,24.19-25.46,44s6.34,122.59,6.34,122.59a22.41,22.41,0,1,0,44.81-1.06Z"/><path d="M1500.79,486.78l-13-137.46c-2.78-14.92-21.33-28.2-43.31-20.33-19.85,7.11-22.14,28.86-16.73,48S1457,496.24,1457,496.24a22.41,22.41,0,1,0,43.81-9.46Z"/></g><path d="M1427.71,377c5.42,19.17,29.27,119.21,29.27,119.21" stroke="#5e5d63" stroke-width=".75" class="El Ev"/><path d="M1431.57 197.87s-11.32 2-13.53 2.62a7.91 7.91 0 0 0-5.66 5.08c-1.39 3.37-8.64 25.34-9.32 27.72s.14 4.76 1.2 7.63 6.48 15.91 6.48 15.91l.82 42.06h59.86l10.74-83.06c.57-4.83-1.89-14.19-7.62-15.42s-21.65-2.54-21.65-2.54z" class="Ei"/><path d="M1410.91 265.68l.26 13.17c20 1.85 50.88.53 62.87-.11l1.76-13.58c-16.31.51-42.46 1.1-64.89.52z" class="Ej"/><path d="M1426.21 198.4s2.63 10.21 13.37 19.39c9.84-5.41 15.42-10.72 20.41-19.27l14.69.91c2.46.28 7.88 5.06 8.67 10.11s-6.61 62.27-6.61 62.27-47.08 3-71.59 0l-3.4-38.91a12 12 0 0 1 .61-4.53c.49-1.72 8.94-22.06 10.37-24.52a8.67 8.67 0 0 1 5.08-4c1.56-.46 8.4-1.45 8.4-1.45z" class="En"/><path d="M1487.74 348.67c-.55-7.11-8.15-34.28-16.32-49.78h-59.86c-5.33 12.06-11.4 38.3-13.15 44.09s-1.42 12.47 4.65 19.36 21.7 14.75 25.31 14.75 28.87-5 45.38-11.91c8.25-3.47 14.54-9.41 13.99-16.51z" fill="#93929c"/><path d="M1515.69 295.14l-32.77-86.31c-4.39-9.21-10.87-9.81-17.84-7.25-6.6 2.41-10.65 10.38-8.52 17.07l33.7 84.68a13.1 13.1 0 0 0 16 8.66l.48-.14a13.11 13.11 0 0 0 8.95-16.71z" class="Ei"/><path d="M1502.1 259.35l-19.18-50.52a22.25 22.25 0 0 0-1.82-3.17 16.18 16.18 0 0 0-15.83-.73c-8.2 4-8.2 11.87-7.49 15.91l.33 1.69 19.81 49.8a93.93 93.93 0 0 0 24.18-12.98z" class="Ej"/><path d="M1481 204.24l27.62 44.14c-5.63 6.3-25.92 19.92-42.21 22.66l-11.15-53.85c-.71-4.05-.71-11.92 7.49-15.91s16.11-.22 18.25 2.96z" class="En"/><g class="Ei"><path d="M1506.15 231.37l-14 63.56c-2.16 7.94 0 15.4 9.15 17.22 5.61 1.11 13.18-1.84 15.1-10.78l7.21-68.78c1.21-6.48-1.37-11-6.32-11.82-5.99-1.01-9.29 2.36-11.14 10.6z"/><path d="M1514.82 237.93c5.1.68 8.61-3.86 8.65-6.46.18-1.94 2.86-5.76 3.37-8.68.41-2.29 1.68-7.82 2.63-11.53a18.8 18.8 0 0 0 .9-2.53c1.4-3.56-1-6.14-3.55-4.89.14-3.23-3.81-4.82-5.66-2.74 1.21-3.72 2.89-9.79 3.33-11.9.52-2.45.19-3.35-1.34-4.28a3.1 3.1 0 0 0-4.68 1.44c-.79 2-1.84 7.85-3.4 12.5a80 80 0 0 0-.31-9.8c-.26-2.43-.83-3.16-2.53-3.56a3 3 0 0 0-3.9 2.75c-.12 2.27.14 7.1 0 12.06 0 1.11-.11 2.12-.17 3a48.85 48.85 0 0 0-2.51.41c-2 .39-2.3 2-2.64 3.68s.54 3.57 1.14 7.12 2.05 7.77 2.89 13.7c-.58 3.28-.04 8.66 7.78 9.71z"/></g><path d="M1518.6 210.58a2.66 2.66 0 0 1-.34-.9 3.31 3.31 0 0 1 0-.94.33.33 0 0 1 .26-.28.3.3 0 0 1 .34.26h0a3.8 3.8 0 0 0 .17.72 2.25 2.25 0 0 0 .35.6 2.62 2.62 0 0 0 1.14.81 3.69 3.69 0 0 0 2.75.06.5.5 0 0 1 .21-.05.6.6 0 0 1 .64.57h0a1.51 1.51 0 0 0 .08.51 2.08 2.08 0 0 0 .28.47 2.25 2.25 0 0 0 .43.37 2.54 2.54 0 0 0 .54.29 2.76 2.76 0 0 0 1.23.21 1.88 1.88 0 0 0 .6-.11c.1 0 .14-.08.23-.11a1.84 1.84 0 0 0 .26-.24h0a.29.29 0 0 1 .37 0 .29.29 0 0 1 .06.42 1.53 1.53 0 0 1-.22.32 1.79 1.79 0 0 1-.38.31 2.37 2.37 0 0 1-.82.32 3.58 3.58 0 0 1-1.69-.1 4.18 4.18 0 0 1-.8-.32 3.17 3.17 0 0 1-.69-.58 2.64 2.64 0 0 1-.5-.8.75.75 0 0 1 0-.16 5 5 0 0 1-1.21.11 4.61 4.61 0 0 1-1.81-.49 3.66 3.66 0 0 1-1.48-1.27zm7.68-4.61a7.37 7.37 0 0 0 .22-.89.31.31 0 0 0-.26-.36.29.29 0 0 0-.3.11 7.61 7.61 0 0 0-.51.76 16.85 16.85 0 0 0-.94 1.78l-.39 1c-.13.32-.21.63-.29.88a7.75 7.75 0 0 0-.22.9.31.31 0 0 0 .25.36.3.3 0 0 0 .3-.11s.23-.3.52-.77l.46-.81.47-1a13.88 13.88 0 0 0 .69-1.82zM1521 203a7.93 7.93 0 0 0 .14-.87.32.32 0 0 0-.3-.34.3.3 0 0 0-.28.14s-.2.3-.44.76l-.37.82-.37.94a14 14 0 0 0-.5 1.84 7.31 7.31 0 0 0-.12.88.31.31 0 0 0 .29.34.35.35 0 0 0 .28-.14 7 7 0 0 0 .44-.77 14.61 14.61 0 0 0 .74-1.76l.28-1c.08-.34.21-.57.21-.84zm-13.49 6.8a.3.3 0 0 0 .23.32l.21.05a3.21 3.21 0 0 0 .56.1 7.46 7.46 0 0 0 2 0l.29.1.75.24 1 .31 1.1.5a6.3 6.3 0 0 1 1.17.62l1.19.76c.4.27.74.63 1.12.94l.55.47.47.56a8.94 8.94 0 0 1 .89 1.08l.71 1.12a8.86 8.86 0 0 1 .5 1 5.54 5.54 0 0 1 .4.93l.23.77.21.68a.3.3 0 0 0 .59-.14s0-.25-.1-.7c0-.22-.08-.49-.13-.79a4.51 4.51 0 0 0-.31-1c-.15-.37-.26-.81-.47-1.22l-.71-1.26a11.36 11.36 0 0 0-.96-1.24l-.52-.6c-.18-.19-.39-.36-.59-.55a14.52 14.52 0 0 0-1.23-1l-1.32-.79a5.59 5.59 0 0 0-1.31-.58l-1.2-.45a4 4 0 0 0-.63-.14 7.92 7.92 0 0 0 1.11-.46 5.17 5.17 0 0 0 1.39-1 3.25 3.25 0 0 0 .56-.8 2.92 2.92 0 0 0 .3-.89 8.16 8.16 0 0 0 .12-1.71 4.73 4.73 0 0 0-.38-1.7 2.26 2.26 0 0 0-1.3-1.33 3 3 0 0 0-1.53 0l-1.87.53-.71.19a.29.29 0 0 0-.21.37.31.31 0 0 0 .31.23h0l.73-.08 1.92-.32a2 2 0 0 1 1 0c.28.13.41.39.59.77a3.6 3.6 0 0 1 .25 1.31 6.51 6.51 0 0 1-.14 1.44 2 2 0 0 1-.21.63 2.25 2.25 0 0 1-.34.48 4.79 4.79 0 0 1-1.06.84 8.82 8.82 0 0 1-2.4.91 8.32 8.32 0 0 1-1.82.22 5.65 5.65 0 0 1-.7 0h0a.3.3 0 0 0-.29.3z" class="Ej"/><g class="Ei"><path d="M1388 231.37l14 63.56c2.16 7.94 0 15.4-9.16 17.22-5.6 1.11-13.17-1.84-15.09-10.78l-7.21-68.78c-1.22-6.48 1.37-11 6.32-11.82 5.99-1.01 9.32 2.36 11.14 10.6z"/><path d="M1379.33 237.93c-5.1.68-8.62-3.86-8.66-6.46-.17-1.94-2.85-5.76-3.37-8.68-.4-2.29-1.67-7.82-2.62-11.53a18.8 18.8 0 0 1-.9-2.53c-1.4-3.56 1-6.14 3.55-4.89-.15-3.23 3.81-4.82 5.65-2.74-1.21-3.72-2.88-9.79-3.33-11.9-.51-2.45-.18-3.35 1.35-4.28a3.1 3.1 0 0 1 4.68 1.44c.78 2 1.83 7.85 3.4 12.5a80 80 0 0 1 .31-9.8c.26-2.43.83-3.16 2.53-3.56a3 3 0 0 1 3.9 2.75c.12 2.27-.14 7.1 0 12.06l.17 3a48.85 48.85 0 0 1 2.51.41c2 .39 2.3 2 2.64 3.68s-.55 3.57-1.14 7.12-2 7.77-2.9 13.7c.58 3.28.04 8.66-7.77 9.71z"/></g><path d="M1374.12 211.86a4.61 4.61 0 0 1-1.82.49 4.92 4.92 0 0 1-1.2-.11.75.75 0 0 1 0 .16 2.85 2.85 0 0 1-.5.8 3.23 3.23 0 0 1-.7.58 3.71 3.71 0 0 1-.8.32 3.53 3.53 0 0 1-1.68.1 2.37 2.37 0 0 1-.82-.32 1.79 1.79 0 0 1-.38-.31 1.22 1.22 0 0 1-.22-.32.29.29 0 0 1 .43-.4h0a1.84 1.84 0 0 0 .26.24c.09 0 .12.08.23.11a1.87 1.87 0 0 0 .59.11 2.73 2.73 0 0 0 1.23-.21 2.14 2.14 0 0 0 .54-.29 2 2 0 0 0 .44-.37 2.08 2.08 0 0 0 .28-.47 2.26 2.26 0 0 0 .08-.51h0a.6.6 0 0 1 .64-.57.5.5 0 0 1 .21.05 3.69 3.69 0 0 0 2.75-.06 2.59 2.59 0 0 0 1.13-.81 2.28 2.28 0 0 0 .36-.6 3.16 3.16 0 0 0 .16-.72h0a.3.3 0 0 1 .34-.26.31.31 0 0 1 .25.28 3 3 0 0 1 0 .94 2.91 2.91 0 0 1-.35.9 3.57 3.57 0 0 1-1.45 1.25zm-5.56-4l.47 1c.15.3.32.57.46.81l.52.77a.3.3 0 0 0 .3.11.32.32 0 0 0 .25-.36 7.75 7.75 0 0 0-.22-.9l-.29-.88-.39-1a16.85 16.85 0 0 0-.94-1.78 6.62 6.62 0 0 0-.52-.76.27.27 0 0 0-.29-.11.3.3 0 0 0-.26.36 7.37 7.37 0 0 0 .22.89 13.88 13.88 0 0 0 .69 1.84zm4.78-4l.29 1a14.61 14.61 0 0 0 .74 1.76 7 7 0 0 0 .44.77.34.34 0 0 0 .28.14.31.31 0 0 0 .29-.34 7.31 7.31 0 0 0-.12-.88 14 14 0 0 0-.5-1.84l-.37-.94-.37-.82-.44-.76a.33.33 0 0 0-.29-.14.32.32 0 0 0-.29.34 7.93 7.93 0 0 0 .14.87l.2.87zm13 5.66h0a5.65 5.65 0 0 1-.7 0 8.32 8.32 0 0 1-1.82-.22 8.82 8.82 0 0 1-2.4-.91 4.79 4.79 0 0 1-1.06-.84 2.76 2.76 0 0 1-.35-.48 2 2 0 0 1-.2-.63 6 6 0 0 1-.14-1.44 3.6 3.6 0 0 1 .25-1.31c.18-.38.31-.64.59-.77a2 2 0 0 1 1 0l1.92.32.73.08h0a.31.31 0 0 0 .32-.23.29.29 0 0 0-.21-.37l-.71-.19-1.87-.53a3 3 0 0 0-1.53 0 2.23 2.23 0 0 0-1.28 1.31 4.73 4.73 0 0 0-.38 1.7 7.54 7.54 0 0 0 .12 1.71 2.66 2.66 0 0 0 .29.89 3.89 3.89 0 0 0 .56.8 5.5 5.5 0 0 0 1.39 1 8.55 8.55 0 0 0 1.12.46 4 4 0 0 0-.63.14l-1.2.45a5.41 5.41 0 0 0-1.31.58l-1.32.79c-.44.29-.82.66-1.24 1l-.59.55-.51.6a10.19 10.19 0 0 0-.93 1.23l-.71 1.26a11.18 11.18 0 0 0-.47 1.22 3.71 3.71 0 0 0-.31 1l-.14.79-.1.7a.31.31 0 0 0 .21.34.3.3 0 0 0 .38-.2l.22-.68.23-.77a6.4 6.4 0 0 1 .39-.93 11 11 0 0 1 .51-1l.71-1.12a8.85 8.85 0 0 1 .88-1.08l.48-.56c.17-.17.37-.31.55-.47.38-.31.72-.67 1.12-.94l1.19-.76a6.3 6.3 0 0 1 1.17-.62l1.1-.5c.33-.14.67-.21.95-.31l.76-.24.29-.1a7.46 7.46 0 0 0 2 0 3.21 3.21 0 0 0 .56-.1l.21-.05a.3.3 0 0 0 .23-.32.3.3 0 0 0-.36-.22z" class="Ej"/><path d="M1453.83,136.56c1.36-3.28,8.2-4.76,12-2.95s7.66,6.5,8.26,19.29-.49,22.58,1.8,29a11,11,0,0,1-5.74-2.51c0,1.69-.27,5.79-.27,5.79s-4.38-.31-5.58-4.25c0,0-1.37,3-1.31,4.69-2.24-1.17-9.18-3.23-9.18-15.47Z" fill="#1d1b24"/><path d="M1409.2 179.07c.71-9.29 3.45-24.66 3.45-24.66l6.55-.34 2.23 33.71c.49 6.05 2.22 7.76 2.22 7.76s-8.33-1.14-9.62-9a36.27 36.27 0 0 0-.3 4.62s-5.25-2.81-4.53-12.09z" class="En"/><path d="M1453.55,176.71v21.73s-1.73,7.49-13.21,7.49c-8.85,0-9.62-7.71-9.62-7.71V176.71Z" class="Ei"/><path d="M1430.72,194.82c7.2,3.42,17.72.36,22.83-9.07v-9h-22.83Z" class="Ej"/><path d="M1416.45 160a119.48 119.48 0 0 0 .71 15.58c.93 7.38 3.55 15.58 16.62 15.58s19.72-5.91 22.52-15.58c1.7-5.85 5.2-14.49 3.72-24.49s-7.43-16.51-21.62-16.89-23.4 6.01-21.95 25.8z" class="Ei"/><g fill="#403d4f"><path d="M1444.14 164.67a2.09 2.09 0 1 1-2.05-2.49 2.31 2.31 0 0 1 2.05 2.49zm-19.03 0a2.09 2.09 0 1 1-2-2.49 2.31 2.31 0 0 1 2 2.49zm12.89-7.24a1.1 1.1 0 0 1 .22-.22 3.32 3.32 0 0 1 .67-.5 4.91 4.91 0 0 1 1-.44 4.69 4.69 0 0 1 1.25-.23 4.78 4.78 0 0 1 1.25 0 4.66 4.66 0 0 1 1.06.15l1 .27a.66.66 0 0 1 .43.82.65.65 0 0 1-.62.46h-.09-.91a3.89 3.89 0 0 0-.9 0 4.92 4.92 0 0 0-1 .08 8.82 8.82 0 0 0-1 .18c-.32.05-.57.19-.83.22a3.68 3.68 0 0 1-.54.18c-.12 0-.23.09-.23.08a.65.65 0 0 1-.88-.33.65.65 0 0 1 0-.56zm-12.5.98a.4.4 0 0 0-.17-.07c-.07 0-.23-.08-.39-.16s-.19 0-.28-.09a1.17 1.17 0 0 0-.3-.11 4.5 4.5 0 0 0-.68-.18 3.55 3.55 0 0 0-.72-.09 2.45 2.45 0 0 0-.66 0h-.68-.14a.65.65 0 0 1-.23-1.25s.31-.13.81-.29a3.09 3.09 0 0 1 .87-.15 3.32 3.32 0 0 1 1 0 3.58 3.58 0 0 1 1.84.74 2.26 2.26 0 0 1 .49.49.87.87 0 0 1 .14.21v.25a.66.66 0 0 1-1 .67z"/></g><path d="M1430.74,173.39h0a3.08,3.08,0,0,1-2.29-1,1.09,1.09,0,0,1-.32-.85c.05-.28.45-3.81.6-5.15a.5.5,0,0,1,.55-.43.49.49,0,0,1,.43.54c0,.2-.55,4.83-.6,5.19a2.11,2.11,0,0,0,1.65.72.49.49,0,0,1,0,1Z" class="Ej"/><path d="M1431,179.88s4.13-.08,6.75-2.55" stroke="#73102a" stroke-linecap="round" stroke-width=".5" class="El Ev"/><path d="M1447.54 130c-14.19-4.43-24.27 1.15-27.47 5.33a7 7 0 0 1-4.84-6c-2.79 1.51-3.16 6.72 1.48 7.42-5.09 1.68-8.12 6.84-8 13.2s6.19 10.53 7.69 10.9c0 0 2.66-8.09 6.61-12.34a18.31 18.31 0 0 0 13.62 13.49 31.13 31.13 0 0 0-1.51-5.81 23.19 23.19 0 0 0 9.92 4.88 22.5 22.5 0 0 0-.17-6.52c2.51 4.59 6.86 11.58 13.21 13.53h4s2.93-5 2.89-13.86-3.24-19.78-17.43-24.22z" class="En"/><path d="M1455.8,169.62c.2-3.49,1.13-7.57,5.37-6.94,5,.75,5.47,14.2-5,12.58Z" class="Ei"/><path d="M1461.58 170.51a.51.51 0 0 1-.43-.26 1.45 1.45 0 0 0-1.18-.79 1.7 1.7 0 0 0-1.45.83.51.51 0 0 1-.58.19.49.49 0 0 1-.32-.51 5.92 5.92 0 0 1 3.37-5 .49.49 0 1 1 .31.93 4.77 4.77 0 0 0-2.42 2.81 2.52 2.52 0 0 1 1.14-.22 2.4 2.4 0 0 1 2 1.3.5.5 0 0 1-.19.67.53.53 0 0 1-.25.05z" class="Ej"/><path d="M1460.93 178.32c-1.2-9.24-4.75-24.43-4.75-24.43h-6.56l-.44 33.78c-.17 6.07-1.8 7.87-1.8 7.87s8.25-1.58 9.13-9.45a38.33 38.33 0 0 1 .54 4.59s5.09-3.12 3.88-12.36z" class="En"/><g stroke="#fff" class="El Ev"><path d="M748.93 298.54S733.85 358 815 369s82 68.06 82 68.06m-6.12-256.68s33.82 31.85 10.54 90.05S899 369.83 946 400.37c28.07 18.23 33 36.24 32.67 60.9m48.82-207.08s19.67 43.43-19.1 82.2c-44.58 45.39-16.54 102.94-16.54 102.94m202.71-174.86s-34.82 31.29-21.65 81.21-24.63 61.07-61 67.37-42.35 27.55-42.35 27.55"/></g><g class="Ew"><path d="M807.24 260.1c-7.93 11.4-83.39 47.93-122.11 50.25a11.92 11.92 0 0 1-3.67-.28 43.6 43.6 0 0 1-18.41-10.2A46.7 46.7 0 0 1 651 280.61a51.83 51.83 0 0 1-2.69-11.74 39.67 39.67 0 0 1 .57-12.07 67.18 67.18 0 0 1 2.68-9.46h0a49.57 49.57 0 0 1 3.9-8.08l28.85-49.32c3.48-5.88 6.27-11.06 8.31-15.43a96.68 96.68 0 0 0 4.48-11.07 23.85 23.85 0 0 0 1.32-6.56 12.64 12.64 0 0 0-.28-3.07 6.07 6.07 0 0 0-.22-.79 6.39 6.39 0 0 0-4.72-4.56c-3.5-1-8.47-.48-14.32 1.54a51.47 51.47 0 0 0-16.82 9.29 82.2 82.2 0 0 0-11.51 11.83 9.83 9.83 0 0 1-10.55 3.52 41.06 41.06 0 0 1-15-7.92A34.64 34.64 0 0 1 614.32 151a36.12 36.12 0 0 1-1.53-19.2c1.33-6.76 4.78-13.14 10.27-19 9.06-9.58 22.74-17.59 40.67-23.83 12.63-4.36 24.57-6.72 35.53-7 11.16-.23 21.31 1.32 30.14 4.66a60.54 60.54 0 0 1 23.27 15.43 66.5 66.5 0 0 1 14.13 23.72 70 70 0 0 1 3.42 29.92c-1.51 15.8-7.94 32.69-19.18 50.53l-13.27 21.13 41.08-14.27c5.56-2.23 17.55-1.79 26.3 12.47a45.24 45.24 0 0 1 3.45 6.72c3.99 9.52 2.89 21.72-1.36 27.82z"/><path class="ER Ea" d="M698.15 153.81a6.07 6.07 0 0 0-.22-.79 6.39 6.39 0 0 0-4.72-4.56c-3.5-1-8.47-.48-14.32 1.54a51.47 51.47 0 0 0-16.82 9.29 82.2 82.2 0 0 0-11.51 11.83 9.83 9.83 0 0 1-10.56 3.52 41.06 41.06 0 0 1-15-7.92A34.64 34.64 0 0 1 614.32 151a36.12 36.12 0 0 1-1.53-19.2c.16.9 2.9 15.76 11.54 24.67a15 15 0 0 0 22.34-1.26c4.27-5.26 12.16-12 26.17-15.94 19.91-5.71 24.33 8.13 25.31 14.54zM807.24 260.1c-7.93 11.4-83.39 47.93-122.11 50.25a11.92 11.92 0 0 1-3.67-.28 43.6 43.6 0 0 1-18.41-10.2A46.7 46.7 0 0 1 651 280.61a51.83 51.83 0 0 1-2.69-11.74c7.15 10.93 22.57 27.09 49.6 22.07 37.87-7 99.23-34.2 107.25-65.37a45.24 45.24 0 0 1 3.45 6.72c3.98 9.51 2.88 21.71-1.37 27.81zm-37.02-104.39c-1.51 15.8-7.94 32.69-19.18 50.53l-13.27 21.13s-14.9 6.56-21.66 4.54c-5.81-1.68 38.73-38.69 54.11-76.2z"/></g><g class="Ed"><path class="ES" d="M742.88 101.27c9.45 7.29 13.12 18.36 8.12 24.73s-16.71 5.63-26.16-1.66-13.12-18.34-8.13-24.73 16.71-5.61 26.17 1.66zm19.63 39.16c.31 4.48-2.34 8.32-5.91 8.57s-6.73-3.19-7-7.68 2.33-8.33 5.91-8.58 6.68 3.2 7 7.69zm-53.06 104.39s36.68-9 54.56-18.35 25.4-10.35 27.56-3.48c3.43 10.94-44.13 27.34-82.12 21.83zM669.75 96.9s-20.75 15.25-28.56 26.93-12.44 14.09-17.21 8.61c-7.59-8.73 17.13-32.56 45.77-35.54zM685 204.31s-.15 14.61-7 33.58-11.69 24.81-17.93 21.22c-9.96-5.71 2.1-25.11 24.93-54.8z"/></g><g class="Ew"><use xlink:href="#Dd"/><use xlink:href="#Dd"/><path d="M769.94 305.35a22.84 22.84 0 0 0-15.62 5.57c-5.8 5.25-17.57 7.73-17.57 7.73s4.61-7.25 5.29-15.28a9 9 0 0 0-.12-2.43c0-.39-.13-.8-.2-1.21a39.15 39.15 0 0 0-1.7-6c1.61-4.65 5.43-5.59 8.46-5.49a.07.07 0 0 1 .06 0 35.52 35.52 0 0 1 4.18.74 15.25 15.25 0 0 0 1.23 3.67 20.21 20.21 0 0 0 1.68 3 26.86 26.86 0 0 0 2.2 2.77 25.23 25.23 0 0 0 12.11 6.93z"/></g><path d="M755.63 295.68c-3.56 2.67-8.19 4.36-13.71 5.26 0-.39-.13-.8-.2-1.21-.58-2.86-1.78-5.7-1.7-6 1.61-4.65 5.43-5.59 8.46-5.49a.07.07 0 0 1 .06 0 15 15 0 0 1 4.18.74 15.25 15.25 0 0 0 1.23 3.67 20.21 20.21 0 0 0 1.68 3.03z" class="Ed"/><g fill="#ff4cab"><path d="M1098.84 249.31c-12.39 6.25-96.16 2.48-131.31-13.9a11.86 11.86 0 0 1-3.1-2 43.74 43.74 0 0 1-11.34-17.73 46.75 46.75 0 0 1-1.45-22.68 51.45 51.45 0 0 1 3.23-11.61 40 40 0 0 1 6.23-10.35 67.65 67.65 0 0 1 6.87-7h0a49 49 0 0 1 7.27-5.26l48.83-29.66c5.86-3.51 10.78-6.74 14.65-9.61a97.34 97.34 0 0 0 9.21-7.6 24.12 24.12 0 0 0 4.28-5.15 12.46 12.46 0 0 0 1.22-2.83 5.75 5.75 0 0 0 .18-.8 6.39 6.39 0 0 0-2-6.26c-2.6-2.56-7.22-4.45-13.33-5.45a51.57 51.57 0 0 0-19.21.16 81.65 81.65 0 0 0-15.76 4.94 9.84 9.84 0 0 1-11-1.93A41.26 41.26 0 0 1 983 80.48a34.71 34.71 0 0 1-1.9-18.94 36.2 36.2 0 0 1 7.78-17.63c4.39-5.31 10.46-9.28 18.06-11.8 12.53-4.12 28.37-4.65 47.11-1.61 13.19 2.17 24.81 5.78 34.57 10.77 9.93 5.1 18.12 11.29 24.3 18.43A60.57 60.57 0 0 1 1126 84.34a66.24 66.24 0 0 1 1.15 27.59 69.74 69.74 0 0 1-11.23 27.94c-8.84 13.18-22.53 25-40.9 35.32l-21.72 12.28 42.92 7c6 .68 16.29 6.77 17.2 23.48a45.21 45.21 0 0 1-.17 7.55c-1 10.25-7.77 20.5-14.41 23.81z"/><path class="EU Ea" d="M1053.45 103.92a5.75 5.75 0 0 0 .18-.8 6.39 6.39 0 0 0-2-6.26c-2.6-2.56-7.22-4.45-13.33-5.45a51.57 51.57 0 0 0-19.21.16 81.65 81.65 0 0 0-15.76 4.94 9.84 9.84 0 0 1-11-1.93 41.26 41.26 0 0 1-9.33-14.1 34.71 34.71 0 0 1-1.9-18.94 36.2 36.2 0 0 1 7.78-17.63c-.29.87-4.94 15.24-1.58 27.2a14.94 14.94 0 0 0 20.25 9.51c6.26-2.59 16.38-4.73 30.6-1.57 20.18 4.49 17.48 18.76 15.3 24.87zm45.39 145.39c-12.39 6.25-96.16 2.48-131.31-13.9a11.86 11.86 0 0 1-3.1-2 43.74 43.74 0 0 1-11.34-17.73 46.75 46.75 0 0 1-1.45-22.68 51.45 51.45 0 0 1 3.23-11.61c1.09 13 7 34.56 33.13 43 36.64 11.84 103.55 17.13 125.43-6.48a45.21 45.21 0 0 1-.17 7.55c-1.01 10.29-7.78 20.54-14.42 23.85zm17.09-109.44c-8.84 13.18-22.53 25-40.9 35.32l-21.72 12.28s-16.23-1.32-21.22-6.31c-4.31-4.24 52.48-15.61 83.84-41.29z"/></g><g class="Ed"><path class="ES" d="M1117.78 79c4.85 10.91 2.76 22.37-4.66 25.6s-17.38-3-22.23-13.91-2.76-22.37 4.66-25.6 17.38 2.98 22.23 13.91zm-1.36 43.76c-1.86 4.1-6 6.21-9.27 4.73s-4.4-6-2.54-10.11 6-6.21 9.27-4.73 4.4 6.01 2.54 10.11zm-96.33 66.59s36.56 9.51 56.72 9.81 27.26 3 25.9 10.05c-2.17 11.26-51.82 3.06-82.62-19.86zm35.45-149s-25.54 3.52-37.94 10.1-17.64 6.48-19.22-.61c-2.53-11.29 30.55-20.49 57.16-9.49zm-37.69 101.72s-7.09 12.79-22.13 26.21-22.09 16.27-25.87 10.14c-6.03-9.76 13.79-21.07 48-36.35z"/></g><use xlink:href="#De" fill="#e3f3f9"/><g fill="#ff4cab"><use xlink:href="#De"/><path d="M1044.51 271.37a22.83 22.83 0 0 0-16.4-2.54c-7.59 1.86-19.13-1.55-19.13-1.55s7.5-4.19 11.93-10.93a9.71 9.71 0 0 0 1.05-2.19c.15-.37.26-.77.4-1.16a40 40 0 0 0 1.33-6.05c3.63-3.32 7.43-2.33 10-.8a.1.1 0 0 1 0 0 34.13 34.13 0 0 1 3.33 2.65 14.8 14.8 0 0 0-.67 3.81 20.8 20.8 0 0 0 .06 3.4 29.66 29.66 0 0 0 .62 3.49 25.38 25.38 0 0 0 7.48 11.87z"/></g><path d="M1036.51 256.05c-4.39.66-9.27-.07-14.55-1.89.15-.37.26-.77.4-1.16.84-2.8 1.14-5.87 1.33-6.05 3.63-3.32 7.43-2.33 10-.8a.1.1 0 0 1 0 0 15.1 15.1 0 0 1 3.33 2.65 14.8 14.8 0 0 0-.67 3.81 20.8 20.8 0 0 0 .16 3.44z" class="Ed"/><g fill="#00b8e0"><path d="M1256.06 285.32c-13.77 1.69-91.33-30.18-118.87-57.49a12 12 0 0 1-2.24-2.92 43.59 43.59 0 0 1-4.67-20.52 46.81 46.81 0 0 1 6.3-21.83 51.06 51.06 0 0 1 7-9.83 39.3 39.3 0 0 1 9.36-7.63 68.26 68.26 0 0 1 8.84-4.31h0a48.74 48.74 0 0 1 8.62-2.49l56-11.39c6.7-1.32 12.42-2.7 17-4.09a98.36 98.36 0 0 0 11.24-4 24.25 24.25 0 0 0 5.76-3.39 12.86 12.86 0 0 0 2.11-2.26 5.72 5.72 0 0 0 .44-.69 6.37 6.37 0 0 0 .25-6.56c-1.58-3.29-5.29-6.63-10.7-9.64a51.28 51.28 0 0 0-18.13-6.34 82 82 0 0 0-16.5-.69 9.82 9.82 0 0 1-9.67-5.53 41.32 41.32 0 0 1-4.09-16.45 34.76 34.76 0 0 1 4.62-18.47 36.15 36.15 0 0 1 13.29-14c5.92-3.51 13-5.19 21-5 13.18.36 28.27 5.21 44.88 14.41 11.68 6.51 21.39 13.84 28.89 21.83 7.62 8.16 13.23 16.75 16.63 25.57a60.59 60.59 0 0 1 4 27.62 66.32 66.32 0 0 1-8.26 26.35 69.81 69.81 0 0 1-20 22.5c-12.79 9.41-29.66 15.88-50.45 19.4l-24.59 4.21 38 21.09c5.37 2.66 13 11.89 8.25 27.92a46 46 0 0 1-2.72 7.05c-4.38 9.35-14.2 16.66-21.59 17.57z"/><path class="EX Ea" d="M1262.53 133.15a5.72 5.72 0 0 0 .44-.69 6.37 6.37 0 0 0 .25-6.56c-1.58-3.29-5.29-6.63-10.7-9.64a51.28 51.28 0 0 0-18.13-6.34 82 82 0 0 0-16.5-.69 9.82 9.82 0 0 1-9.67-5.53 41.32 41.32 0 0 1-4.09-16.45 34.76 34.76 0 0 1 4.62-18.47 36.15 36.15 0 0 1 13.29-14c-.57.72-9.81 12.67-10.69 25a15 15 0 0 0 15.84 15.81c6.76-.32 17 1.09 29.33 8.87 17.48 11.16 10.13 23.68 6.01 28.69zm-6.47 152.17c-13.77 1.69-91.33-30.18-118.87-57.49a12 12 0 0 1-2.24-2.92 43.59 43.59 0 0 1-4.67-20.52 46.81 46.81 0 0 1 6.3-21.83 51.06 51.06 0 0 1 7-9.83c-3.38 12.62-5.14 34.88 16.62 51.68 30.48 23.54 91.65 51.14 120.24 36.33a46 46 0 0 1-2.72 7.05c-4.45 9.31-14.27 16.62-21.66 17.53zm53.11-97.2c-12.79 9.41-29.66 15.88-50.45 19.4l-24.59 4.21s-14.82-6.73-17.83-13.12c-2.62-5.45 54.7 3.06 92.87-10.49z"/></g><g class="Ed"><path class="ES" d="M1331.5 131.44c.88 11.91-5 22-13 22.52s-15.34-8.7-16.21-20.61 5-22 13-22.51 15.34 8.7 16.21 20.6zm-16.08 40.74c-3.14 3.23-7.76 3.82-10.33 1.32s-2.11-7.15 1-10.37 7.77-3.82 10.34-1.32 2.12 7.19-1.01 10.37zm-113.18 30.08s31.18 21.31 50 28.42 24.65 12 21 18.22c-5.82 9.87-49.77-14.65-71-46.64zM1286 74s-25.23-5.33-39.12-3.34-18.79.14-17.88-7.07c1.44-11.44 35.68-8.91 57 10.41zm-69.88 83s-11 9.64-29.69 17.18-26.29 7.84-27.78.79c-2.37-11.21 20.11-15.15 57.47-17.97z"/></g><use xlink:href="#Df" fill="#e3f3f9"/><g fill="#00b8e0"><use xlink:href="#Df"/><path d="M1197.47 287.7a22.87 22.87 0 0 0-14.57-7.93c-7.78-.82-17.47-7.93-17.47-7.93s8.47-1.41 14.91-6.25a9.26 9.26 0 0 0 1.73-1.71c.27-.29.51-.63.77-1a37.7 37.7 0 0 0 3.3-5.24c4.55-1.89 7.79.33 9.73 2.65a.06.06 0 0 1 0 .06 35.69 35.69 0 0 1 2.24 3.61 15.09 15.09 0 0 0-1.92 3.36 20.94 20.94 0 0 0-1.09 3.23 27.3 27.3 0 0 0-.6 3.48 25.38 25.38 0 0 0 2.97 13.67z"/></g><path d="M1195.13 270.59c-4.36-.88-8.71-3.2-13.06-6.71.27-.29.51-.63.77-1 1.74-2.34 3.06-5.13 3.3-5.24 4.55-1.89 7.79.33 9.73 2.65a.06.06 0 0 1 0 .06 15 15 0 0 1 2.24 3.61 15.09 15.09 0 0 0-1.92 3.36 20.94 20.94 0 0 0-1.06 3.27z" class="Ed"/><g fill="#00b7b7"><path d="M957.9 64.55c-2.5-17-7.06-32.06-13.51-44.73C937.83 6.93 929.64-3.74 920-11.89a83.3 83.3 0 0 0-33.27-17.32A96.19 96.19 0 0 0 848.31-31a96.89 96.89 0 0 0-36.62 12.91 83.21 83.21 0 0 0-26.85 26.16c-6.85 10.59-11.54 23.19-14 37.44-2.38 14-2.33 29.65.19 46.64a167.34 167.34 0 0 0 8.54 34.3 0 0 0 0 0 0 0 114.69 114.69 0 0 0 4.87 11.32c6.47 12.92 14.62 23.63 24.24 31.8a80.11 80.11 0 0 0 33.39 17 100.87 100.87 0 0 0 38.59 1.43c2.72-.4 5.38-.89 8-1.47a97.64 97.64 0 0 0 28.18-11 80.26 80.26 0 0 0 27-26c6.84-10.57 11.59-23.16 14.15-37.38 2.58-13.91 2.53-29.95-.09-47.6zM884 115.12c-3.38 8.85-8.59 10.68-12.78 11.33s-9.59.36-15.11-7.06a49.91 49.91 0 0 1-6.7-13.62 138.92 138.92 0 0 1-5.53-24.38c-2.46-16.69-2.15-29.82 1-39 2.78-8.23 7.08-10.6 10.87-11.46.46-.09.91-.18 1.37-.24 4.11-.6 9.57-.27 15.49 7.75 5.78 7.84 9.95 20.27 12.42 36.88 2.61 17.8 2.28 31.18-1.03 39.8z"/><path class="EZ Ea" d="M958.05 112.23c-2.56 14.22-7.31 26.81-14.15 37.38a80.26 80.26 0 0 1-27 26 97.64 97.64 0 0 1-28.18 11c-2.64.58-5.3 1.07-8 1.47a100.87 100.87 0 0 1-38.57-1.41 80.11 80.11 0 0 1-33.39-17c-9.62-8.17-17.77-18.88-24.24-31.8a114.69 114.69 0 0 1-4.87-11.32c1.5 1.72 56.46 54.49 110 37.23C944 146.16 957.9 64.55 957.9 64.55c2.62 17.65 2.67 33.69.15 47.68zM885 75.31c-2.47-16.61-6.64-29-12.42-36.88-5.92-8-11.38-8.35-15.49-7.75-.46.06-.91.15-1.37.24-3.79.86-8.09 3.23-10.87 11.46-3.11 9.19-3.42 22.32-1 39a138.92 138.92 0 0 0 5.53 24.38s-38.11-76.47 2.84-86.85C894.56 8.2 885 75.31 885 75.31z"/></g><use xlink:href="#Dg" class="Ew"/><g fill="#00b7b7"><use xlink:href="#Dg"/><path d="M915.24 194.33a22.84 22.84 0 0 0-16.16 3.74c-6.36 4.56-18.33 5.68-18.33 5.68s5.4-6.68 7-14.57a9.36 9.36 0 0 0 .15-2.43c0-.4 0-.81-.06-1.23a38.61 38.61 0 0 0-1-6.11c2.14-4.43 6-4.93 9-4.48a.07.07 0 0 1 .06 0 34 34 0 0 1 4.07 1.22 15.15 15.15 0 0 0 .8 3.78 21.05 21.05 0 0 0 1.33 3.14 27.82 27.82 0 0 0 1.87 3 25.33 25.33 0 0 0 11.27 8.26z"/></g><g class="Ed"><path d="M902.12 183.09c-3.84 2.24-8.63 3.39-14.22 3.66 0-.4 0-.81-.06-1.23-.25-2.91-1.12-5.87-1-6.11 2.14-4.43 6-4.93 9-4.48a.07.07 0 0 1 .06 0 15.1 15.1 0 0 1 4.07 1.22 15.15 15.15 0 0 0 .8 3.78 21.05 21.05 0 0 0 1.35 3.16z"/><path class="ES" d="M786 19.31c-7.19 13.7-5.46 28.7 3.87 33.5s22.72-2.41 29.92-16.11S825.29 8 816 3.2s-22.76 2.41-30 16.11zm-1.9 56.74c2.06 5.45 7.25 8.54 11.6 6.9s6.2-7.4 4.14-12.86-7.26-8.54-11.6-6.9-6.24 7.4-4.14 12.86zm112.77 15.52c-3.35 2.18 5.41 20.91-12.44 36.55-13.84 12.13 3.6 24.1 13.21 9 12.83-20.01 2.58-47.73-.77-45.55z"/></g></g></g></g></g></svg>