<?xml version="1.0" encoding="UTF-8"?>
<svg xmlns="http://www.w3.org/2000/svg" xmlns:xlink="http://www.w3.org/1999/xlink" width="190px" height="22px" viewBox="0 0 188 22" version="1.1">
<g id="surface1">
<path style=" stroke:none;fill-rule:nonzero;fill:rgb(10.588235%,16.862745%,27.843137%);fill-opacity:1;" d="M 12.160156 10.59375 L 12.160156 15.339844 C 12.007812 16.253906 11.222656 16.917969 10.304688 16.917969 C 9.386719 16.917969 8.597656 16.253906 8.449219 15.339844 L 8.449219 10.59375 C 8.449219 8.769531 7.609375 7.945312 6.375 7.945312 C 4.496094 7.945312 4.046875 9.886719 4.046875 10.144531 L 4.046875 15.339844 C 4.046875 16.382812 3.203125 17.226562 2.167969 17.226562 C 1.128906 17.226562 0.289062 16.382812 0.289062 15.339844 L 0.289062 2.242188 C 0.289062 1.199219 1.128906 0.355469 2.167969 0.355469 C 3.203125 0.355469 4.046875 1.199219 4.046875 2.242188 L 4.046875 7.457031 C 4.113281 6.589844 5.445312 4.792969 7.804688 4.792969 C 10.167969 4.792969 12.160156 6.476562 12.160156 10.59375 Z M 12.160156 10.59375 "/>
<path style=" stroke:none;fill-rule:nonzero;fill:rgb(10.588235%,16.862745%,27.843137%);fill-opacity:1;" d="M 27.105469 11.035156 C 27.105469 15.222656 23.464844 17.234375 20.804688 17.234375 C 18.140625 17.234375 14.488281 15.214844 14.488281 11.035156 C 14.488281 6.859375 18.121094 4.753906 20.804688 4.753906 C 23.484375 4.753906 27.105469 6.871094 27.105469 11.035156 Z M 18.171875 11.035156 C 18.171875 12.789062 19.339844 14.003906 20.804688 14.003906 C 22.269531 14.003906 23.441406 12.789062 23.441406 11.035156 C 23.441406 9.285156 22.25 7.996094 20.804688 7.996094 C 19.359375 7.996094 18.171875 9.210938 18.171875 11.035156 Z M 18.171875 11.035156 "/>
<path style=" stroke:none;fill-rule:nonzero;fill:rgb(10.588235%,16.862745%,27.843137%);fill-opacity:1;" d="M 49.417969 10.59375 L 49.417969 15.339844 C 49.417969 16.382812 48.578125 17.226562 47.539062 17.226562 C 46.503906 17.226562 45.660156 16.382812 45.660156 15.339844 L 45.660156 10.59375 C 45.660156 8.769531 44.820312 7.945312 43.605469 7.945312 C 41.695312 7.945312 41.25 9.886719 41.25 10.144531 L 41.25 15.339844 C 41.101562 16.253906 40.316406 16.917969 39.398438 16.917969 C 38.476562 16.917969 37.691406 16.253906 37.542969 15.339844 L 37.542969 10.59375 C 37.542969 8.769531 36.703125 7.945312 35.46875 7.945312 C 33.589844 7.945312 33.136719 9.886719 33.136719 10.144531 L 33.136719 15.339844 C 33.136719 16.382812 32.296875 17.226562 31.261719 17.226562 C 30.222656 17.226562 29.378906 16.382812 29.378906 15.339844 L 29.378906 6.734375 C 29.378906 5.691406 30.222656 4.847656 31.261719 4.847656 C 32.296875 4.847656 33.136719 5.691406 33.136719 6.734375 L 33.136719 7.457031 C 33.207031 6.589844 34.535156 4.792969 36.898438 4.792969 C 38.6875 4.734375 40.289062 5.894531 40.792969 7.617188 C 41.507812 5.914062 43.167969 4.800781 45.011719 4.792969 C 47.484375 4.792969 49.417969 6.476562 49.417969 10.59375 Z M 49.417969 10.59375 "/>
<path style=" stroke:none;fill-rule:nonzero;fill:rgb(10.588235%,16.862745%,27.843137%);fill-opacity:1;" d="M 63.847656 10.402344 C 63.847656 11.878906 63.050781 12.371094 61.558594 12.371094 L 55.613281 12.300781 C 55.941406 13.496094 56.867188 14.183594 58.410156 14.183594 C 58.910156 14.195312 59.40625 14.117188 59.882812 13.957031 C 60.308594 13.761719 60.765625 13.636719 61.234375 13.589844 C 61.574219 13.5625 61.90625 13.6875 62.148438 13.929688 C 62.386719 14.167969 62.511719 14.507812 62.488281 14.84375 C 62.460938 15.464844 62.128906 16.035156 61.605469 16.363281 C 60.597656 16.964844 59.4375 17.265625 58.265625 17.234375 C 55.09375 17.234375 51.761719 15.347656 51.761719 11.082031 C 51.738281 9.417969 52.375 7.8125 53.535156 6.628906 C 54.699219 5.441406 56.289062 4.769531 57.945312 4.765625 C 60.628906 4.765625 63.847656 6.898438 63.847656 10.402344 Z M 55.613281 9.820312 L 60.183594 9.820312 C 60.066406 8.695312 59.0625 7.882812 57.945312 7.996094 C 56.875 7.996094 55.824219 8.484375 55.613281 9.820312 Z M 55.613281 9.820312 "/>
<path style=" stroke:none;fill-rule:nonzero;fill:rgb(10.588235%,16.862745%,27.843137%);fill-opacity:1;" d="M 74.058594 6.382812 C 74.347656 6.699219 74.515625 7.117188 74.523438 7.550781 C 74.542969 7.929688 74.402344 8.304688 74.128906 8.570312 C 73.855469 8.835938 73.480469 8.96875 73.101562 8.933594 C 72.519531 8.941406 71.964844 8.695312 71.582031 8.253906 C 71.261719 7.898438 70.808594 7.691406 70.332031 7.6875 C 69.703125 7.6875 69.371094 7.996094 69.371094 8.417969 C 69.371094 8.53125 69.304688 8.953125 70.210938 9.234375 L 71.589844 9.65625 C 73.3125 10.171875 74.949219 11.0625 74.949219 13.238281 C 74.949219 15.945312 72.496094 17.191406 70.074219 17.191406 C 68.613281 17.230469 67.199219 16.695312 66.132812 15.695312 C 65.671875 15.21875 65.390625 14.597656 65.335938 13.933594 C 65.320312 13.5625 65.460938 13.195312 65.730469 12.933594 C 65.996094 12.671875 66.359375 12.535156 66.734375 12.558594 C 67.328125 12.589844 67.878906 12.890625 68.230469 13.375 C 68.699219 13.898438 69.371094 14.195312 70.074219 14.191406 C 71.007812 14.191406 71.265625 13.773438 71.265625 13.441406 C 71.265625 13.351562 71.265625 12.816406 70.234375 12.507812 L 69.140625 12.179688 C 66.714844 11.460938 65.714844 10.171875 65.714844 8.410156 C 65.714844 5.898438 68.019531 4.738281 70.1875 4.738281 C 71.726562 4.765625 73.285156 5.324219 74.058594 6.382812 Z M 74.058594 6.382812 "/>
<path style=" stroke:none;fill-rule:nonzero;fill:rgb(10.588235%,16.862745%,27.843137%);fill-opacity:1;" d="M 84.523438 15.273438 C 84.523438 16.484375 83.5 17.191406 81.605469 17.191406 C 79.8125 17.191406 77.964844 16.621094 77.964844 12.789062 L 77.964844 7.785156 L 77.503906 7.785156 C 77.113281 7.8125 76.726562 7.675781 76.441406 7.402344 C 76.15625 7.128906 76 6.75 76.011719 6.355469 C 75.996094 5.960938 76.148438 5.574219 76.433594 5.296875 C 76.71875 5.019531 77.105469 4.878906 77.503906 4.90625 L 77.992188 4.90625 L 77.992188 3.546875 C 77.992188 2.507812 78.832031 1.664062 79.871094 1.664062 C 80.910156 1.664062 81.75 2.507812 81.75 3.546875 L 81.75 4.90625 L 83.105469 4.90625 C 83.496094 4.875 83.882812 5.019531 84.164062 5.296875 C 84.445312 5.574219 84.59375 5.960938 84.574219 6.355469 C 84.589844 6.746094 84.4375 7.128906 84.15625 7.402344 C 83.875 7.671875 83.492188 7.8125 83.105469 7.785156 L 81.75 7.785156 L 81.75 12.953125 C 81.75 13.582031 81.9375 13.984375 82.378906 13.984375 C 82.605469 13.984375 83.003906 13.890625 83.257812 13.914062 C 83.617188 13.898438 83.960938 14.039062 84.207031 14.300781 C 84.449219 14.5625 84.566406 14.917969 84.523438 15.273438 Z M 84.523438 15.273438 "/>
<path style=" stroke:none;fill-rule:nonzero;fill:rgb(10.588235%,16.862745%,27.843137%);fill-opacity:1;" d="M 98.324219 6.683594 L 98.324219 15.367188 C 98.304688 16.40625 97.453125 17.230469 96.417969 17.214844 C 95.542969 17.210938 94.789062 16.609375 94.59375 15.761719 C 93.890625 16.753906 92.726562 17.308594 91.515625 17.234375 C 88.949219 17.234375 85.917969 15.273438 85.917969 10.988281 C 85.917969 6.828125 89 4.765625 91.515625 4.765625 C 92.773438 4.6875 93.964844 5.355469 94.546875 6.476562 L 94.546875 6.683594 C 94.566406 5.65625 95.40625 4.835938 96.429688 4.835938 C 97.445312 4.855469 98.273438 5.664062 98.324219 6.683594 Z M 94.710938 10.988281 C 94.710938 8.695312 93.238281 7.945312 92.207031 7.945312 C 90.871094 7.945312 89.636719 9 89.636719 10.988281 C 89.636719 12.972656 90.890625 14.054688 92.207031 14.054688 C 93.238281 14.054688 94.710938 13.332031 94.710938 10.988281 Z M 94.710938 10.988281 "/>
<path style=" stroke:none;fill-rule:nonzero;fill:rgb(10.588235%,16.862745%,27.843137%);fill-opacity:1;" d="M 112.710938 6.5 C 112.703125 6.8125 112.625 7.113281 112.476562 7.386719 L 106.625 20.296875 C 106.363281 21.066406 105.660156 21.597656 104.855469 21.632812 C 104.410156 21.640625 103.988281 21.464844 103.675781 21.152344 C 103.359375 20.839844 103.1875 20.417969 103.191406 19.972656 C 103.207031 19.664062 103.277344 19.359375 103.40625 19.082031 L 104.597656 16.441406 L 100.398438 7.386719 C 100.273438 7.109375 100.199219 6.808594 100.1875 6.5 C 100.1875 6.050781 100.371094 5.625 100.691406 5.3125 C 101.011719 5 101.445312 4.828125 101.890625 4.835938 C 102.703125 4.867188 103.414062 5.394531 103.675781 6.167969 L 106.402344 12.449219 L 109.226562 6.167969 C 109.484375 5.398438 110.1875 4.867188 111 4.835938 C 111.445312 4.828125 111.878906 5 112.199219 5.3125 C 112.519531 5.621094 112.703125 6.050781 112.710938 6.5 Z M 112.710938 6.5 "/>
<path style=" stroke:none;fill-rule:nonzero;fill:rgb(10.588235%,16.862745%,27.843137%);fill-opacity:1;" d="M 119.28125 6.757812 L 119.28125 18.125 C 119.28125 20.417969 117.765625 21.863281 115.390625 21.863281 C 114.722656 21.882812 114.0625 21.761719 113.449219 21.511719 C 112.652344 21.199219 112.097656 20.46875 112.007812 19.613281 C 111.980469 19.089844 112.210938 18.585938 112.625 18.261719 C 113.035156 17.9375 113.578125 17.832031 114.082031 17.980469 C 114.246094 17.980469 114.457031 18.238281 114.851562 18.238281 C 115.648438 18.238281 115.546875 17.320312 115.546875 17.046875 L 115.546875 6.757812 C 115.546875 5.71875 116.386719 4.875 117.425781 4.875 C 118.464844 4.875 119.304688 5.71875 119.304688 6.757812 Z M 115.523438 1.984375 C 115.523438 0.941406 116.363281 0.0976562 117.398438 0.0976562 C 118.4375 0.0976562 119.28125 0.941406 119.28125 1.984375 C 119.28125 3.023438 118.4375 3.867188 117.398438 3.867188 C 116.363281 3.867188 115.523438 3.023438 115.523438 1.984375 Z M 115.523438 1.984375 "/>
<path style=" stroke:none;fill-rule:nonzero;fill:rgb(10.588235%,16.862745%,27.843137%);fill-opacity:1;" d="M 133.746094 10.402344 C 133.746094 11.878906 132.949219 12.371094 131.457031 12.371094 L 125.511719 12.300781 C 125.835938 13.496094 126.765625 14.183594 128.308594 14.183594 C 128.808594 14.183594 129.304688 14.097656 129.777344 13.929688 C 130.207031 13.734375 130.664062 13.609375 131.132812 13.558594 C 131.46875 13.535156 131.804688 13.65625 132.046875 13.898438 C 132.285156 14.140625 132.410156 14.472656 132.386719 14.8125 C 132.359375 15.4375 132.027344 16.003906 131.503906 16.335938 C 130.492188 16.933594 129.335938 17.234375 128.164062 17.203125 C 124.992188 17.203125 121.660156 15.316406 121.660156 11.050781 C 121.640625 9.382812 122.289062 7.78125 123.460938 6.601562 C 124.632812 5.417969 126.226562 4.757812 127.886719 4.765625 C 130.519531 4.765625 133.746094 6.898438 133.746094 10.402344 Z M 125.511719 9.820312 L 130.078125 9.820312 C 129.960938 8.710938 128.976562 7.898438 127.871094 7.996094 C 126.765625 7.996094 125.710938 8.484375 125.507812 9.820312 Z M 125.511719 9.820312 "/>
<path style=" stroke:none;fill-rule:nonzero;fill:rgb(10.588235%,16.862745%,27.843137%);fill-opacity:1;" d="M 134.898438 15.058594 C 134.90625 13.890625 135.847656 12.953125 137.011719 12.953125 C 138.175781 12.957031 139.117188 13.902344 139.121094 15.070312 C 139.121094 16.234375 138.183594 17.183594 137.019531 17.191406 C 135.847656 17.183594 134.898438 16.234375 134.898438 15.058594 Z M 134.898438 15.058594 "/>
<path style=" stroke:none;fill-rule:nonzero;fill:rgb(10.588235%,16.862745%,27.843137%);fill-opacity:1;" d="M 151.035156 14.472656 C 150.96875 15.199219 150.5625 15.855469 149.9375 16.226562 C 148.957031 16.898438 147.789062 17.234375 146.605469 17.191406 C 143.738281 17.191406 140.285156 15.179688 140.285156 10.988281 C 140.285156 6.796875 143.738281 4.765625 146.605469 4.765625 C 147.789062 4.722656 148.957031 5.058594 149.9375 5.726562 C 150.5625 6.101562 150.96875 6.753906 151.035156 7.480469 C 151.027344 7.863281 150.863281 8.226562 150.589844 8.492188 C 150.3125 8.753906 149.941406 8.894531 149.5625 8.882812 C 149.050781 8.859375 148.558594 8.679688 148.152344 8.367188 C 147.714844 8.113281 147.210938 7.980469 146.707031 7.996094 C 145.007812 7.996094 143.953125 9.164062 143.953125 10.988281 C 143.953125 12.808594 145.019531 13.957031 146.71875 13.957031 C 147.226562 13.972656 147.726562 13.84375 148.164062 13.582031 C 148.570312 13.277344 149.054688 13.101562 149.5625 13.074219 C 149.941406 13.0625 150.3125 13.203125 150.589844 13.464844 C 150.863281 13.730469 151.027344 14.089844 151.035156 14.472656 Z M 151.035156 14.472656 "/>
<path style=" stroke:none;fill-rule:nonzero;fill:rgb(10.588235%,16.862745%,27.843137%);fill-opacity:1;" d="M 165.375 11.035156 C 165.375 15.222656 161.734375 17.234375 159.078125 17.234375 C 156.421875 17.234375 152.757812 15.222656 152.757812 11.035156 C 152.757812 6.851562 156.398438 4.753906 159.078125 4.753906 C 161.757812 4.753906 165.375 6.871094 165.375 11.035156 Z M 156.4375 11.035156 C 156.4375 12.789062 157.605469 14.003906 159.078125 14.003906 C 160.550781 14.003906 161.710938 12.789062 161.710938 11.035156 C 161.710938 9.285156 160.523438 7.996094 159.078125 7.996094 C 157.632812 7.996094 156.4375 9.210938 156.4375 11.035156 Z M 156.4375 11.035156 "/>
<path style=" stroke:none;fill-rule:nonzero;fill:rgb(10.588235%,16.862745%,27.843137%);fill-opacity:1;" d="M 187.6875 10.59375 L 187.6875 15.339844 C 187.6875 16.382812 186.84375 17.226562 185.808594 17.226562 C 184.769531 17.226562 183.929688 16.382812 183.929688 15.339844 L 183.929688 10.59375 C 183.929688 8.769531 183.089844 7.945312 181.878906 7.945312 C 179.964844 7.945312 179.523438 9.886719 179.523438 10.144531 L 179.523438 15.339844 C 179.375 16.253906 178.589844 16.917969 177.667969 16.917969 C 176.75 16.917969 175.964844 16.253906 175.816406 15.339844 L 175.816406 10.59375 C 175.816406 8.769531 174.976562 7.945312 173.734375 7.945312 C 171.824219 7.945312 171.40625 9.886719 171.40625 10.144531 L 171.40625 15.339844 C 171.40625 16.382812 170.5625 17.226562 169.527344 17.226562 C 168.488281 17.226562 167.648438 16.382812 167.648438 15.339844 L 167.648438 6.734375 C 167.648438 5.691406 168.488281 4.847656 169.527344 4.847656 C 170.5625 4.847656 171.40625 5.691406 171.40625 6.734375 L 171.40625 7.457031 C 171.472656 6.589844 172.804688 4.792969 175.164062 4.792969 C 176.953125 4.730469 178.558594 5.894531 179.058594 7.617188 C 179.773438 5.914062 181.4375 4.800781 183.28125 4.792969 C 185.738281 4.792969 187.6875 6.476562 187.6875 10.59375 Z M 187.6875 10.59375 "/>
</g>
</svg>
