<?xml version="1.0" encoding="UTF-8"?>
<svg xmlns="http://www.w3.org/2000/svg" xmlns:xlink="http://www.w3.org/1999/xlink" width="30px" height="px" viewBox="0 0 30 30" version="1.1">
<g id="surface1">
<path style=" stroke:none;fill-rule:nonzero;fill:rgb(93.72549%,28.235294%,13.72549%);fill-opacity:1;" d="M 27.742188 9.601562 C 26.320312 6.980469 24.101562 4.878906 21.40625 3.601562 C 18.800781 2.210938 15.828125 1.667969 12.898438 2.050781 C 8.101562 2.808594 3.457031 6.324219 2.101562 11.039062 C 2.117188 11.089844 2.117188 11.144531 2.101562 11.195312 C 2.074219 11.28125 2.054688 11.371094 2.039062 11.460938 C 2.003906 11.519531 1.976562 11.585938 1.957031 11.652344 C 1.949219 11.703125 1.949219 11.757812 1.957031 11.808594 C 1.894531 12.058594 1.835938 12.3125 1.789062 12.5625 C 1.753906 13.035156 1.679688 13.5 1.558594 13.957031 C 1.558594 14.089844 1.558594 14.207031 1.558594 14.339844 C 1.558594 14.617188 1.5 14.878906 1.476562 15.144531 C 1.425781 15.703125 1.40625 16.261719 1.414062 16.824219 C 1.421875 17.925781 1.5625 19.019531 1.835938 20.089844 C 2.320312 22.136719 3.421875 23.988281 4.992188 25.390625 C 6.101562 26.308594 7.394531 26.976562 8.785156 27.359375 C 10.304688 27.800781 11.878906 28.035156 13.464844 28.054688 C 16.617188 28.097656 19.703125 27.167969 22.308594 25.390625 C 26.941406 22.09375 30.539062 15.300781 27.742188 9.601562 Z M 23.507812 18 C 23.527344 18.683594 23.359375 19.359375 23.027344 19.957031 C 22.617188 20.570312 22.019531 21.03125 21.324219 21.277344 C 19.839844 21.765625 18.269531 21.941406 16.714844 21.792969 C 14.820312 21.792969 12.9375 21.589844 11.039062 21.671875 C 9.746094 21.878906 8.417969 21.730469 7.199219 21.238281 C 6.046875 20.40625 5.371094 19.0625 5.386719 17.640625 C 5.316406 16.871094 5.304688 16.09375 5.28125 15.238281 C 5.257812 14.386719 5.160156 13.726562 5.195312 12.972656 C 5.222656 12.234375 5.417969 11.511719 5.761719 10.859375 C 6.066406 10.289062 6.472656 9.777344 6.960938 9.347656 C 7.3125 9.195312 7.671875 9.0625 8.039062 8.953125 C 9.769531 8.953125 11.472656 8.953125 13.199219 8.953125 C 14.929688 8.953125 16.800781 8.664062 18.671875 8.554688 C 19.875 8.351562 21.109375 8.613281 22.128906 9.289062 C 23.257812 10.234375 23.328125 11.976562 23.328125 13.332031 C 23.328125 14.183594 23.328125 15.046875 23.328125 15.898438 C 23.328125 16.753906 23.519531 17.351562 23.507812 18.070312 Z M 23.507812 18 "/>
<path style=" stroke:none;fill-rule:nonzero;fill:rgb(83.921569%,89.803922%,89.803922%);fill-opacity:1;" d="M 23.449219 17.21875 C 23.449219 16.464844 23.328125 15.707031 23.328125 14.953125 C 23.328125 14.195312 23.328125 13.222656 23.328125 12.359375 C 23.34375 11.5625 23.160156 10.777344 22.800781 10.066406 C 22.128906 9 20.710938 8.964844 19.570312 9.023438 C 17.734375 9.121094 15.972656 9.457031 14.0625 9.433594 C 12.421875 9.433594 10.777344 9.371094 9.132812 9.433594 L 8.675781 9.433594 C 8.582031 9.441406 8.488281 9.464844 8.398438 9.503906 L 8.28125 9.503906 C 7.394531 10.191406 6.816406 11.199219 6.671875 12.3125 C 6.613281 13.464844 6.636719 14.621094 6.742188 15.769531 C 6.667969 16.949219 6.824219 18.136719 7.199219 19.261719 C 7.59375 20.140625 8.445312 20.734375 9.40625 20.796875 C 10.054688 20.875 10.703125 20.894531 11.351562 20.855469 C 12.238281 20.855469 13.140625 20.855469 14.039062 20.855469 C 15.769531 20.855469 17.519531 21.109375 19.246094 21.011719 C 20.605469 20.929688 22.597656 20.675781 23.21875 19.246094 C 23.464844 18.601562 23.542969 17.90625 23.449219 17.21875 Z M 17.089844 14.964844 C 17.085938 15.035156 17.058594 15.101562 17.015625 15.15625 C 16.777344 15.402344 16.503906 15.609375 16.199219 15.769531 L 15.277344 16.367188 C 14.65625 16.757812 14.058594 17.179688 13.488281 17.640625 C 13.382812 17.722656 13.234375 17.722656 13.128906 17.640625 C 13.035156 17.585938 12.972656 17.484375 12.972656 17.375 C 12.886719 15.792969 12.78125 14.21875 12.78125 12.574219 C 12.78125 12.417969 12.890625 12.277344 13.042969 12.238281 C 13.132812 12.191406 13.242188 12.191406 13.332031 12.238281 C 13.738281 12.457031 14.136719 12.695312 14.53125 12.925781 C 14.929688 13.152344 15.359375 13.296875 15.730469 13.523438 L 16.441406 13.992188 C 16.546875 14.066406 16.660156 14.136719 16.777344 14.195312 L 16.90625 14.269531 C 17.207031 14.398438 17.339844 14.832031 17.089844 14.964844 Z M 17.089844 14.964844 "/>
<path style=" stroke:none;fill-rule:nonzero;fill:rgb(93.72549%,28.235294%,13.72549%);fill-opacity:1;" d="M 16.390625 14.855469 L 15.601562 14.398438 C 15.226562 14.160156 14.796875 14.003906 14.398438 13.789062 L 13.535156 13.199219 C 13.535156 14.398438 13.621094 15.601562 13.679688 16.800781 C 14.101562 16.488281 14.542969 16.199219 14.988281 15.910156 L 15.910156 15.3125 L 16.367188 15 L 16.464844 14.929688 Z M 16.390625 14.855469 "/>
<path style=" stroke:none;fill-rule:nonzero;fill:rgb(0%,0%,0%);fill-opacity:1;" d="M 27.730469 8.398438 C 26.097656 5.964844 23.808594 4.039062 21.132812 2.84375 C 18.492188 1.53125 15.515625 1.058594 12.601562 1.488281 C 7.632812 2.398438 2.890625 6 1.488281 10.945312 C 1.328125 11.328125 1.222656 11.730469 1.175781 12.144531 C 1.175781 12.40625 1.066406 12.671875 1.03125 12.949219 C 1.039062 12.972656 1.039062 12.996094 1.03125 13.019531 C 1.03125 13.285156 0.949219 13.535156 0.910156 13.789062 C 0.894531 13.851562 0.894531 13.917969 0.910156 13.980469 C 0.910156 14.472656 0.816406 14.964844 0.769531 15.457031 C 0.726562 16.152344 0.726562 16.847656 0.769531 17.542969 C 0.8125 18.925781 1.058594 20.289062 1.5 21.601562 C 2.410156 24.144531 4.292969 26.222656 6.730469 27.382812 C 8.160156 28.007812 9.671875 28.414062 11.21875 28.585938 C 12.773438 28.800781 14.347656 28.800781 15.898438 28.585938 C 18.996094 28.152344 21.882812 26.777344 24.167969 24.648438 C 26.445312 22.59375 28.109375 19.949219 28.96875 17.003906 C 29.777344 14.089844 29.332031 10.96875 27.730469 8.398438 Z M 22.1875 25.441406 C 19.582031 27.207031 16.492188 28.132812 13.34375 28.09375 C 11.753906 28.078125 10.175781 27.84375 8.652344 27.394531 C 7.261719 27.019531 5.96875 26.347656 4.859375 25.429688 C 3.289062 24.023438 2.1875 22.171875 1.703125 20.125 C 1.4375 19.054688 1.296875 17.960938 1.285156 16.859375 C 1.273438 16.304688 1.296875 15.746094 1.355469 15.191406 L 1.429688 14.398438 C 1.433594 14.273438 1.433594 14.144531 1.429688 14.015625 C 1.542969 13.558594 1.625 13.09375 1.667969 12.625 C 1.667969 12.371094 1.777344 12.121094 1.824219 11.878906 C 1.828125 11.824219 1.828125 11.769531 1.824219 11.710938 L 1.90625 11.519531 L 1.980469 11.257812 C 1.996094 11.207031 1.996094 11.152344 1.980469 11.101562 C 3.359375 6.382812 7.980469 2.867188 12.78125 2.113281 C 15.746094 1.675781 18.773438 2.199219 21.421875 3.601562 C 24.109375 4.882812 26.328125 6.984375 27.757812 9.601562 C 30.550781 15.300781 26.953125 22.078125 22.1875 25.441406 Z M 22.1875 25.441406 "/>
<path style=" stroke:none;fill-rule:nonzero;fill:rgb(0%,0%,0%);fill-opacity:1;" d="M 24 15.695312 C 24 14.84375 24 13.992188 24 13.140625 C 24 11.785156 23.914062 10.042969 22.800781 9.085938 C 21.777344 8.4375 20.550781 8.191406 19.355469 8.398438 C 17.519531 8.507812 15.757812 8.832031 13.871094 8.808594 C 11.988281 8.785156 10.441406 8.808594 8.722656 8.808594 C 8.351562 8.914062 7.988281 9.039062 7.632812 9.191406 C 7.152344 9.628906 6.746094 10.144531 6.433594 10.714844 C 6.109375 11.371094 5.9375 12.085938 5.929688 12.816406 C 5.929688 13.570312 5.929688 14.339844 6 15.097656 C 6.070312 15.851562 6 16.65625 6.109375 17.496094 C 6.097656 18.917969 6.773438 20.257812 7.921875 21.097656 C 9.121094 21.59375 10.433594 21.765625 11.722656 21.589844 C 13.621094 21.515625 15.503906 21.660156 17.398438 21.71875 C 18.949219 21.855469 20.515625 21.679688 21.996094 21.203125 C 22.695312 20.957031 23.300781 20.488281 23.710938 19.871094 C 24.046875 19.28125 24.210938 18.605469 24.179688 17.929688 C 24.15625 17.125 24 16.414062 24 15.695312 Z M 23.207031 19.199219 C 22.585938 20.628906 20.59375 20.878906 19.234375 20.964844 C 17.496094 21.058594 15.757812 20.84375 14.027344 20.808594 C 13.128906 20.808594 12.226562 20.808594 11.339844 20.808594 C 10.691406 20.847656 10.039062 20.828125 9.394531 20.746094 C 8.449219 20.691406 7.605469 20.121094 7.199219 19.261719 C 6.796875 18.148438 6.617188 16.972656 6.660156 15.792969 C 6.558594 14.644531 6.535156 13.488281 6.589844 12.335938 C 6.730469 11.226562 7.304688 10.21875 8.183594 9.527344 L 8.304688 9.527344 C 8.40625 9.480469 8.515625 9.453125 8.628906 9.445312 L 9.058594 9.445312 C 10.703125 9.445312 12.347656 9.445312 13.992188 9.445312 C 15.839844 9.445312 17.664062 9.121094 19.5 9.035156 C 20.640625 9.035156 22.054688 9.035156 22.726562 10.078125 C 23.097656 10.789062 23.285156 11.574219 23.28125 12.371094 C 23.28125 13.234375 23.28125 14.101562 23.28125 14.964844 C 23.28125 15.828125 23.351562 16.476562 23.398438 17.230469 C 23.488281 17.894531 23.421875 18.566406 23.207031 19.199219 Z M 23.207031 19.199219 "/>
<path style=" stroke:none;fill-rule:nonzero;fill:rgb(0%,0%,0%);fill-opacity:1;" d="M 16.921875 14.398438 L 16.800781 14.292969 C 16.683594 14.230469 16.570312 14.164062 16.464844 14.089844 C 16.222656 13.933594 15.996094 13.765625 15.757812 13.621094 C 15.515625 13.476562 14.953125 13.222656 14.554688 13.007812 C 14.160156 12.792969 13.753906 12.539062 13.355469 12.324219 C 13.269531 12.269531 13.15625 12.269531 13.066406 12.324219 C 12.914062 12.363281 12.8125 12.503906 12.816406 12.660156 C 12.816406 14.230469 12.925781 15.816406 12.996094 17.386719 C 12.992188 17.503906 13.058594 17.605469 13.164062 17.652344 C 13.265625 17.746094 13.421875 17.746094 13.523438 17.652344 C 14.089844 17.195312 14.722656 16.789062 15.300781 16.378906 L 16.222656 15.78125 C 16.527344 15.617188 16.808594 15.410156 17.050781 15.167969 C 17.089844 15.113281 17.117188 15.054688 17.125 14.988281 C 17.339844 14.820312 17.207031 14.398438 16.921875 14.398438 Z M 16.285156 14.941406 L 15.828125 15.253906 L 14.902344 15.851562 C 14.460938 16.140625 14.027344 16.429688 13.597656 16.738281 C 13.535156 15.539062 13.476562 14.339844 13.453125 13.140625 L 14.328125 13.644531 C 14.710938 13.859375 15.144531 14.015625 15.527344 14.257812 C 15.910156 14.496094 16.054688 14.617188 16.320312 14.773438 L 16.378906 14.773438 Z M 16.285156 14.941406 "/>
</g>
</svg>
