<?xml version="1.0" encoding="UTF-8"?>
<svg xmlns="http://www.w3.org/2000/svg" xmlns:xlink="http://www.w3.org/1999/xlink" width="30px" height="px" viewBox="0 0 30 30" version="1.1">
<g id="surface1">
<path style=" stroke:none;fill-rule:nonzero;fill:rgb(29.411765%,48.235294%,69.803922%);fill-opacity:1;" d="M 13.777344 1.691406 C 11.863281 1.699219 9.996094 2.269531 8.398438 3.324219 C 4.234375 6.425781 1.691406 11.238281 1.476562 16.429688 C 1.351562 17.636719 1.457031 18.859375 1.789062 20.027344 C 2.292969 21.398438 3.117188 22.632812 4.1875 23.628906 C 6.070312 25.558594 8.421875 26.964844 11.015625 27.707031 C 14.375 28.597656 18.5625 28.65625 21.46875 26.746094 C 24.859375 24.515625 27.320312 21.125 28.390625 17.207031 C 28.753906 14.496094 28.367188 11.738281 27.277344 9.226562 C 26.34375 6.960938 24.644531 5.09375 22.476562 3.949219 C 19.789062 2.554688 16.824219 1.785156 13.800781 1.691406 "/>
<path style=" stroke:none;fill-rule:nonzero;fill:rgb(83.921569%,89.803922%,89.803922%);fill-opacity:1;" d="M 17.050781 28.007812 C 16.917969 27.308594 16.882812 26.59375 16.945312 25.882812 C 16.945312 25.128906 16.945312 24.359375 16.945312 23.59375 C 16.945312 22.824219 16.945312 21.71875 16.945312 20.773438 C 16.945312 20.304688 16.945312 19.835938 17.003906 19.367188 C 17.0625 18.898438 17.003906 18.863281 17.363281 18.851562 C 18.191406 18.851562 19.019531 18.851562 19.835938 18.851562 C 19.875 18.863281 19.917969 18.863281 19.957031 18.851562 C 19.988281 18.816406 20.007812 18.769531 20.015625 18.71875 C 20.046875 18.351562 20.046875 17.984375 20.015625 17.617188 C 20.015625 16.796875 20.164062 15.980469 20.460938 15.214844 C 19.539062 15.144531 18.609375 15.144531 17.6875 15.214844 C 17.46875 15.234375 17.246094 15.234375 17.027344 15.214844 C 16.765625 15.214844 16.777344 15.214844 16.714844 14.941406 C 16.648438 14.488281 16.617188 14.03125 16.621094 13.570312 C 16.585938 13.019531 16.71875 12.472656 17.003906 12 C 17.296875 11.578125 17.71875 11.265625 18.203125 11.101562 C 18.945312 10.867188 19.71875 10.765625 20.496094 10.800781 C 20.496094 10.234375 20.496094 9.683594 20.566406 9.121094 C 20.566406 8.746094 20.796875 8.0625 20.425781 7.824219 C 20.214844 7.714844 19.984375 7.644531 19.753906 7.609375 C 19.261719 7.503906 18.765625 7.449219 18.265625 7.453125 C 17.277344 7.488281 16.300781 7.695312 15.382812 8.0625 C 14.722656 8.277344 14.132812 8.667969 13.679688 9.191406 C 13.40625 9.605469 13.21875 10.070312 13.128906 10.558594 C 12.9375 11.347656 12.824219 12.152344 12.792969 12.960938 C 12.769531 13.359375 12.769531 13.761719 12.792969 14.160156 C 12.792969 14.425781 12.972656 14.964844 12.71875 15.15625 C 12.46875 15.347656 11.964844 15.265625 11.722656 15.289062 C 10.980469 15.359375 10.222656 15.394531 9.46875 15.40625 C 9.613281 16.609375 9.757812 17.808594 9.910156 19.007812 C 10.5 19.007812 11.113281 19.007812 11.699219 19.078125 C 12 19.078125 12.492188 18.984375 12.683594 19.273438 C 12.875 19.558594 12.683594 20.472656 12.683594 20.878906 C 12.683594 21.660156 12.683594 22.453125 12.683594 23.28125 C 12.667969 24.917969 12.746094 26.558594 12.910156 28.1875 "/>
<path style=" stroke:none;fill-rule:nonzero;fill:rgb(0.392157%,0.392157%,0.392157%);fill-opacity:1;" d="M 12.925781 28.429688 C 12.761719 28.429688 12.625 28.304688 12.613281 28.140625 C 12.433594 26.5 12.351562 24.847656 12.371094 23.195312 C 12.371094 22.414062 12.371094 21.625 12.371094 20.796875 C 12.363281 20.632812 12.363281 20.46875 12.371094 20.304688 C 12.457031 20.003906 12.457031 19.683594 12.371094 19.378906 C 12.371094 19.308594 12.046875 19.320312 11.890625 19.320312 L 11.699219 19.320312 C 11.101562 19.320312 10.5 19.296875 9.898438 19.246094 C 9.761719 19.242188 9.640625 19.152344 9.601562 19.019531 L 9.15625 15.421875 C 9.148438 15.328125 9.175781 15.234375 9.238281 15.167969 C 9.300781 15.097656 9.386719 15.058594 9.480469 15.058594 C 10.222656 15.058594 10.96875 15.058594 11.710938 14.941406 L 12 14.941406 C 12.1875 14.96875 12.378906 14.96875 12.5625 14.941406 C 12.585938 14.785156 12.585938 14.628906 12.5625 14.472656 C 12.558594 14.386719 12.558594 14.304688 12.5625 14.21875 C 12.542969 13.820312 12.542969 13.417969 12.5625 13.019531 C 12.601562 12.210938 12.714844 11.40625 12.898438 10.621094 C 13.011719 10.09375 13.222656 9.589844 13.523438 9.144531 C 14.007812 8.578125 14.644531 8.160156 15.359375 7.945312 C 16.316406 7.558594 17.332031 7.339844 18.359375 7.308594 C 18.886719 7.300781 19.410156 7.359375 19.921875 7.476562 L 20.027344 7.476562 C 20.261719 7.519531 20.488281 7.59375 20.699219 7.703125 C 21.15625 8.003906 21.070312 8.617188 21.011719 9.035156 C 21.007812 9.125 21.007812 9.210938 21.011719 9.300781 C 21.011719 9.851562 20.953125 10.402344 20.941406 10.96875 C 20.929688 11.140625 20.789062 11.273438 20.617188 11.28125 L 20.398438 11.28125 C 19.699219 11.269531 19 11.378906 18.335938 11.605469 C 17.910156 11.738281 17.539062 12.007812 17.28125 12.371094 C 17.046875 12.796875 16.945312 13.28125 16.992188 13.765625 L 16.992188 14.050781 C 16.984375 14.394531 17.011719 14.734375 17.074219 15.070312 L 17.699219 15.070312 C 18.636719 15 19.582031 15 20.519531 15.070312 C 20.621094 15.074219 20.710938 15.128906 20.761719 15.214844 C 20.808594 15.304688 20.808594 15.414062 20.761719 15.503906 C 20.527344 16.160156 20.40625 16.847656 20.398438 17.542969 L 20.398438 17.808594 C 20.421875 18.109375 20.421875 18.410156 20.398438 18.707031 C 20.367188 18.957031 20.144531 19.136719 19.894531 19.117188 C 18.949219 19.117188 18.167969 19.117188 17.4375 19.175781 L 17.4375 20.136719 C 17.4375 20.351562 17.4375 20.566406 17.4375 20.785156 C 17.4375 21.707031 17.4375 22.65625 17.4375 23.59375 C 17.4375 24.527344 17.4375 25.117188 17.4375 25.882812 C 17.4375 26.0625 17.4375 26.269531 17.4375 26.484375 C 17.398438 26.957031 17.429688 27.433594 17.53125 27.898438 C 17.5625 27.980469 17.558594 28.070312 17.523438 28.148438 C 17.488281 28.230469 17.421875 28.289062 17.339844 28.320312 C 17.257812 28.351562 17.167969 28.34375 17.089844 28.308594 C 17.015625 28.269531 16.957031 28.199219 16.933594 28.117188 C 16.785156 27.582031 16.738281 27.023438 16.789062 26.472656 C 16.789062 26.269531 16.789062 26.074219 16.789062 25.894531 C 16.789062 25.097656 16.789062 24.328125 16.789062 23.59375 C 16.789062 22.644531 16.789062 21.695312 16.789062 20.761719 C 16.789062 20.542969 16.789062 20.328125 16.789062 20.113281 L 16.789062 19.261719 C 16.789062 18.984375 16.789062 18.550781 17.460938 18.527344 C 18.132812 18.503906 18.910156 18.527344 19.859375 18.527344 C 19.871094 18.304688 19.871094 18.078125 19.859375 17.855469 L 19.859375 17.578125 C 19.859375 16.878906 19.96875 16.183594 20.183594 15.515625 C 19.417969 15.46875 18.648438 15.46875 17.878906 15.515625 L 17.664062 15.515625 C 17.496094 15.535156 17.328125 15.535156 17.160156 15.515625 C 16.738281 15.515625 16.644531 15.347656 16.570312 15 C 16.496094 14.605469 16.464844 14.203125 16.476562 13.800781 L 16.476562 13.523438 C 16.414062 12.945312 16.527344 12.359375 16.800781 11.84375 C 17.113281 11.363281 17.570312 10.996094 18.109375 10.800781 C 18.777344 10.566406 19.476562 10.441406 20.183594 10.429688 C 20.183594 9.972656 20.183594 9.515625 20.242188 9.058594 C 20.234375 8.953125 20.234375 8.84375 20.242188 8.734375 C 20.242188 8.542969 20.328125 8.125 20.242188 8.050781 C 20.101562 7.980469 19.945312 7.933594 19.789062 7.90625 L 19.65625 7.90625 C 19.199219 7.808594 18.730469 7.761719 18.265625 7.765625 C 17.3125 7.816406 16.375 8.03125 15.492188 8.398438 C 14.894531 8.59375 14.359375 8.945312 13.945312 9.421875 C 13.703125 9.785156 13.535156 10.191406 13.441406 10.621094 C 13.261719 11.382812 13.152344 12.164062 13.117188 12.949219 C 13.117188 13.34375 13.117188 13.738281 13.117188 14.148438 L 13.117188 14.339844 C 13.117188 14.664062 13.234375 15.15625 12.898438 15.421875 C 12.625 15.566406 12.3125 15.628906 12 15.601562 L 11.773438 15.601562 C 11.136719 15.601562 10.488281 15.695312 9.851562 15.707031 L 10.210938 18.683594 L 11.914062 18.683594 C 12.296875 18.59375 12.695312 18.71875 12.960938 19.007812 C 13.167969 19.441406 13.210938 19.9375 13.078125 20.398438 C 13.078125 20.554688 13.078125 20.699219 13.078125 20.820312 C 13.078125 21.601562 13.078125 22.378906 13.078125 23.160156 C 13.023438 24.796875 13.066406 26.4375 13.199219 28.066406 C 13.222656 28.242188 13.097656 28.402344 12.925781 28.429688 Z M 12.925781 28.429688 "/>
<path style=" stroke:none;fill-rule:nonzero;fill:rgb(0.392157%,0.392157%,0.392157%);fill-opacity:1;" d="M 15.457031 28.667969 C 13.921875 28.660156 12.390625 28.453125 10.90625 28.054688 C 8.253906 27.300781 5.84375 25.859375 3.925781 23.878906 C 2.8125 22.847656 1.960938 21.5625 1.441406 20.136719 C 1.097656 18.921875 0.992188 17.65625 1.128906 16.402344 C 1.316406 11.105469 3.902344 6.183594 8.160156 3.023438 C 9.824219 1.929688 11.769531 1.339844 13.765625 1.332031 C 16.851562 1.410156 19.886719 2.183594 22.632812 3.601562 C 24.878906 4.78125 26.640625 6.71875 27.601562 9.070312 C 28.753906 11.648438 29.171875 14.492188 28.800781 17.292969 C 27.679688 21.316406 25.117188 24.789062 21.601562 27.046875 C 19.75 28.164062 17.617188 28.726562 15.457031 28.667969 Z M 13.777344 2.050781 C 11.925781 2.050781 10.117188 2.589844 8.566406 3.601562 C 4.484375 6.636719 2.007812 11.367188 1.835938 16.453125 C 1.710938 17.617188 1.808594 18.792969 2.125 19.921875 C 2.605469 21.238281 3.394531 22.425781 4.429688 23.375 C 6.261719 25.265625 8.5625 26.640625 11.101562 27.359375 C 15 28.390625 18.804688 28.054688 21.253906 26.449219 C 24.574219 24.265625 26.984375 20.945312 28.03125 17.113281 C 28.375 14.484375 28 11.8125 26.941406 9.382812 C 26.03125 7.183594 24.386719 5.371094 22.285156 4.261719 C 19.652344 2.890625 16.742188 2.132812 13.777344 2.050781 Z M 13.777344 2.050781 "/>
</g>
</svg>
