<?xml version="1.0" encoding="UTF-8"?>
<svg xmlns="http://www.w3.org/2000/svg" xmlns:xlink="http://www.w3.org/1999/xlink" width="30px" height="px" viewBox="0 0 30 30" version="1.1">
<g id="surface1">
<path style=" stroke:none;fill-rule:nonzero;fill:rgb(83.921569%,89.803922%,89.803922%);fill-opacity:1;" d="M 11.4375 28.285156 C 9.976562 28.421875 8.507812 28.253906 7.117188 27.792969 C 6.390625 27.445312 5.703125 27.023438 5.0625 26.53125 C 4.3125 25.992188 3.660156 25.324219 3.132812 24.5625 C 2.882812 24.085938 2.695312 23.578125 2.578125 23.050781 C 1.621094 19.824219 2.027344 16.367188 1.765625 13.1875 C 1.71875 11.757812 1.796875 10.332031 2.003906 8.914062 C 2.003906 8.617188 2.074219 8.328125 2.125 8.027344 C 2.269531 7.179688 2.570312 6.367188 3.011719 5.628906 C 3.304688 5.125 3.664062 4.667969 4.078125 4.261719 C 4.714844 3.648438 5.457031 3.152344 6.265625 2.796875 C 7.589844 2.261719 9 1.964844 10.429688 1.921875 L 12.828125 1.726562 C 14.398438 1.570312 15.976562 1.507812 17.554688 1.535156 C 18.9375 1.535156 20.28125 1.679688 21.527344 1.777344 C 22.195312 1.808594 22.859375 1.925781 23.496094 2.125 C 24.695312 2.546875 25.726562 3.347656 26.4375 4.402344 C 27.066406 5.207031 27.53125 6.125 27.816406 7.105469 C 28.027344 8.433594 28.109375 9.78125 28.054688 11.125 L 28.054688 12.179688 C 28.054688 12.996094 28.128906 13.8125 28.152344 14.578125 C 28.21875 16.28125 28.199219 17.980469 28.09375 19.679688 C 27.960938 21.550781 28.03125 23.953125 26.484375 25.609375 C 24.359375 27.863281 20.890625 28.414062 18.769531 28.441406 L 17.4375 28.441406 C 16.570312 28.441406 15.71875 28.199219 14.820312 28.285156 C 13.921875 28.367188 13.378906 28.199219 12.695312 28.285156 Z M 16.800781 3.78125 C 15.601562 3.78125 14.292969 3.886719 13.078125 3.984375 L 10.679688 4.175781 C 9.484375 4.210938 8.304688 4.464844 7.199219 4.921875 C 6.636719 5.15625 6.121094 5.496094 5.675781 5.914062 C 5.402344 6.191406 5.160156 6.496094 4.957031 6.828125 C 4.644531 7.304688 4.441406 7.839844 4.355469 8.398438 C 4.355469 8.640625 4.355469 8.878906 4.273438 9.132812 C 4.128906 10.476562 4.042969 11.855469 4.03125 13.222656 C 3.875 16.316406 4.179688 19.414062 4.945312 22.414062 C 5.054688 22.722656 5.203125 23.011719 5.386719 23.28125 C 5.707031 23.753906 6.113281 24.160156 6.589844 24.480469 C 7.105469 24.898438 7.671875 25.261719 8.269531 25.558594 C 9.308594 25.941406 10.417969 26.085938 11.519531 25.992188 L 12.71875 25.992188 C 13.390625 25.992188 14.0625 25.894531 14.734375 25.835938 C 15.695312 25.753906 16.585938 25.667969 17.53125 25.667969 L 18.925781 25.667969 C 20.664062 25.667969 22.957031 25.535156 24.539062 23.855469 C 25.464844 22.679688 25.933594 21.210938 25.859375 19.714844 C 25.96875 18.253906 25.980469 16.691406 25.933594 14.820312 C 25.933594 14.015625 25.933594 13.210938 25.824219 12.421875 L 25.824219 11.328125 C 25.835938 10.1875 25.730469 9.050781 25.511719 7.933594 C 25.328125 7.203125 25.003906 6.515625 24.550781 5.914062 C 24.1875 5.1875 23.5625 4.621094 22.800781 4.332031 C 22.328125 4.183594 21.839844 4.097656 21.347656 4.078125 C 20.148438 3.984375 18.828125 3.839844 17.484375 3.792969 Z M 16.800781 3.78125 "/>
<path style=" stroke:none;fill-rule:nonzero;fill:rgb(0.392157%,0.392157%,0.392157%);fill-opacity:1;" d="M 11.425781 26.242188 C 10.273438 26.296875 9.121094 26.097656 8.050781 25.667969 C 7.453125 25.371094 6.886719 25.011719 6.359375 24.601562 C 5.898438 24.292969 5.492188 23.90625 5.160156 23.460938 C 5.003906 23.152344 4.882812 22.824219 4.800781 22.488281 C 4.035156 19.492188 3.730469 16.394531 3.886719 13.308594 C 3.886719 11.953125 3.984375 10.570312 4.128906 9.226562 C 4.128906 8.976562 4.128906 8.734375 4.222656 8.484375 C 4.308594 7.890625 4.503906 7.316406 4.800781 6.792969 C 5.007812 6.464844 5.253906 6.164062 5.53125 5.890625 C 5.988281 5.4375 6.527344 5.066406 7.117188 4.800781 C 8.222656 4.371094 9.398438 4.136719 10.585938 4.105469 L 12.984375 3.910156 C 14.472656 3.757812 15.964844 3.691406 17.460938 3.71875 C 18.804688 3.71875 20.113281 3.863281 21.347656 3.960938 C 21.839844 3.976562 22.328125 4.058594 22.800781 4.199219 C 23.558594 4.476562 24.207031 4.988281 24.648438 5.664062 C 25.074219 6.3125 25.375 7.039062 25.535156 7.800781 C 25.773438 8.933594 25.894531 10.085938 25.894531 11.242188 L 25.894531 11.398438 C 25.894531 11.722656 25.894531 12.046875 25.894531 12.382812 C 25.894531 13.175781 25.96875 13.980469 25.992188 14.785156 C 26.050781 16.667969 25.992188 18.214844 25.992188 19.667969 C 26.019531 21.230469 25.511719 22.753906 24.550781 23.988281 C 22.992188 25.65625 20.484375 25.882812 18.742188 25.90625 L 17.351562 25.90625 C 16.429688 25.90625 15.492188 25.992188 14.578125 26.074219 C 13.933594 26.136719 13.261719 26.195312 12.589844 26.21875 C 12.203125 26.230469 11.808594 26.242188 11.425781 26.242188 Z M 16.800781 4.390625 C 15.601562 4.390625 14.328125 4.5 13.128906 4.597656 L 10.632812 4.800781 C 9.519531 4.832031 8.421875 5.050781 7.378906 5.449219 C 6.871094 5.667969 6.402344 5.976562 6 6.359375 C 5.757812 6.585938 5.546875 6.84375 5.375 7.128906 C 5.09375 7.574219 4.898438 8.070312 4.800781 8.59375 C 4.800781 8.820312 4.800781 9.058594 4.714844 9.289062 C 4.632812 10.621094 4.546875 12 4.535156 13.320312 C 4.375 16.34375 4.671875 19.375 5.425781 22.308594 C 5.492188 22.59375 5.601562 22.871094 5.746094 23.125 C 6.019531 23.503906 6.363281 23.832031 6.757812 24.085938 C 7.238281 24.476562 7.761719 24.816406 8.316406 25.09375 C 9.671875 25.570312 11.121094 25.734375 12.550781 25.570312 C 13.210938 25.570312 13.882812 25.488281 14.53125 25.429688 C 15.445312 25.34375 16.402344 25.261719 17.351562 25.246094 L 18.769531 25.246094 C 20.53125 25.246094 22.738281 25.019531 24.121094 23.542969 C 24.96875 22.414062 25.417969 21.035156 25.390625 19.621094 C 25.488281 18.191406 25.5 16.65625 25.453125 14.820312 C 25.453125 14.027344 25.390625 13.234375 25.355469 12.421875 C 25.355469 12.097656 25.355469 11.761719 25.355469 11.4375 L 25.355469 11.316406 C 25.351562 10.199219 25.242188 9.085938 25.019531 7.992188 C 24.871094 7.3125 24.597656 6.664062 24.214844 6.085938 C 23.851562 5.527344 23.316406 5.105469 22.691406 4.882812 C 22.269531 4.757812 21.835938 4.683594 21.394531 4.667969 C 20.195312 4.570312 18.863281 4.476562 17.53125 4.429688 Z M 16.800781 4.390625 "/>
<path style=" stroke:none;fill-rule:nonzero;fill:rgb(0.392157%,0.392157%,0.392157%);fill-opacity:1;" d="M 16.378906 28.800781 C 15.742188 28.800781 15.097656 28.800781 14.460938 28.800781 C 13.824219 28.800781 13.261719 28.714844 12.742188 28.65625 C 12.226562 28.597656 11.542969 28.523438 11.015625 28.5 L 10.378906 28.5 C 9.410156 28.484375 8.4375 28.40625 7.476562 28.273438 C 6.835938 28.164062 6.222656 27.933594 5.664062 27.601562 C 5.273438 27.347656 4.917969 27.046875 4.597656 26.710938 L 3.394531 25.511719 C 3.078125 25.21875 2.796875 24.886719 2.554688 24.527344 C 2.320312 24.101562 2.160156 23.640625 2.074219 23.160156 C 1.800781 21.667969 1.695312 20.152344 1.765625 18.636719 C 1.769531 17.742188 1.722656 16.847656 1.632812 15.960938 C 1.632812 15.433594 1.546875 14.914062 1.511719 14.386719 C 1.453125 13.078125 1.414062 11.761719 1.402344 10.453125 C 1.277344 8.859375 1.535156 7.257812 2.160156 5.785156 C 2.949219 4.339844 4.222656 3.21875 5.761719 2.628906 C 7.246094 2.0625 8.804688 1.726562 10.390625 1.632812 L 11.84375 1.5 C 12.863281 1.390625 13.90625 1.296875 14.941406 1.222656 C 16.007812 1.1875 17.078125 1.222656 18.144531 1.332031 L 19.453125 1.414062 C 21.371094 1.394531 23.269531 1.804688 25.007812 2.617188 C 26.746094 3.574219 27.96875 5.253906 28.34375 7.199219 C 28.484375 8.0625 28.546875 8.933594 28.535156 9.804688 C 28.535156 10.1875 28.535156 10.558594 28.535156 10.933594 C 28.535156 11.304688 28.535156 11.652344 28.535156 12.011719 C 28.535156 12.839844 28.535156 13.667969 28.535156 14.507812 C 28.621094 16.328125 28.59375 18.152344 28.453125 19.96875 C 28.304688 21.5625 27.976562 23.132812 27.46875 24.648438 C 27.363281 25.027344 27.191406 25.382812 26.964844 25.703125 C 26.707031 26.03125 26.398438 26.3125 26.050781 26.542969 C 25.261719 27.167969 24.390625 27.679688 23.460938 28.066406 C 22.816406 28.28125 22.152344 28.425781 21.480469 28.488281 C 19.789062 28.703125 18.085938 28.808594 16.378906 28.800781 Z M 15.742188 1.847656 C 15.480469 1.847656 15.226562 1.847656 14.976562 1.847656 C 13.945312 1.90625 12.898438 2.015625 11.890625 2.113281 L 10.429688 2.28125 C 8.910156 2.359375 7.417969 2.679688 6 3.226562 C 4.609375 3.765625 3.453125 4.769531 2.722656 6.070312 C 2.152344 7.460938 1.917969 8.964844 2.039062 10.464844 C 2.039062 11.761719 2.039062 13.078125 2.160156 14.386719 C 2.160156 14.902344 2.230469 15.40625 2.269531 15.925781 C 2.359375 16.835938 2.40625 17.753906 2.398438 18.671875 C 2.328125 20.136719 2.425781 21.609375 2.6875 23.050781 C 2.761719 23.46875 2.898438 23.875 3.097656 24.253906 C 3.304688 24.5625 3.550781 24.847656 3.828125 25.105469 L 5.027344 26.304688 C 5.3125 26.605469 5.625 26.875 5.964844 27.109375 C 6.46875 27.367188 7.019531 27.535156 7.585938 27.601562 C 8.519531 27.738281 9.460938 27.808594 10.402344 27.816406 L 11.039062 27.816406 C 11.640625 27.816406 12.238281 27.898438 12.816406 27.960938 C 13.390625 28.019531 13.945312 28.078125 14.496094 28.117188 C 16.808594 28.222656 19.125 28.128906 21.421875 27.828125 C 22.046875 27.765625 22.667969 27.636719 23.269531 27.445312 C 24.128906 27.074219 24.9375 26.589844 25.667969 26.003906 C 25.960938 25.808594 26.226562 25.574219 26.460938 25.308594 C 26.636719 25.03125 26.773438 24.734375 26.867188 24.421875 C 27.351562 22.949219 27.671875 21.425781 27.816406 19.882812 C 27.957031 18.09375 27.984375 16.300781 27.898438 14.507812 C 27.898438 13.65625 27.898438 12.816406 27.898438 11.988281 C 27.898438 11.628906 27.898438 11.257812 27.898438 10.894531 C 27.898438 10.535156 27.898438 10.152344 27.898438 9.78125 C 27.910156 8.945312 27.851562 8.109375 27.71875 7.285156 C 27.371094 5.519531 26.261719 4 24.683594 3.132812 C 23.027344 2.386719 21.222656 2.023438 19.402344 2.0625 L 18.085938 1.96875 C 17.304688 1.90625 16.511719 1.847656 15.742188 1.847656 Z M 15.742188 1.847656 "/>
<path style=" stroke:none;fill-rule:nonzero;fill:rgb(83.921569%,89.803922%,89.803922%);fill-opacity:1;" d="M 15.886719 14.089844 C 15.367188 13.667969 14.632812 13.621094 14.0625 13.980469 C 13.628906 14.300781 13.496094 14.894531 13.753906 15.371094 C 14.171875 16.164062 15.601562 16.679688 16.152344 15.804688 C 16.339844 15.507812 16.398438 15.148438 16.308594 14.808594 C 16.253906 14.527344 16.105469 14.273438 15.886719 14.089844 Z M 15.886719 14.089844 "/>
<path style=" stroke:none;fill-rule:nonzero;fill:rgb(0.392157%,0.392157%,0.392157%);fill-opacity:1;" d="M 15.289062 16.585938 L 15.203125 16.585938 C 14.488281 16.539062 13.84375 16.144531 13.476562 15.527344 C 13.132812 14.902344 13.308594 14.125 13.882812 13.703125 C 14.574219 13.273438 15.460938 13.328125 16.09375 13.835938 C 16.371094 14.066406 16.5625 14.382812 16.644531 14.734375 C 16.742188 15.148438 16.667969 15.582031 16.441406 15.9375 C 16.199219 16.339844 15.757812 16.585938 15.289062 16.585938 Z M 14.902344 14.0625 C 14.664062 14.058594 14.433594 14.125 14.230469 14.257812 C 13.941406 14.488281 13.859375 14.902344 14.039062 15.226562 C 14.304688 15.640625 14.75 15.90625 15.238281 15.9375 C 15.503906 15.964844 15.761719 15.851562 15.910156 15.636719 C 16.050781 15.410156 16.089844 15.136719 16.019531 14.878906 C 15.972656 14.664062 15.851562 14.472656 15.683594 14.328125 C 15.464844 14.152344 15.1875 14.058594 14.902344 14.0625 Z M 14.902344 14.0625 "/>
<path style=" stroke:none;fill-rule:nonzero;fill:rgb(83.921569%,89.803922%,89.803922%);fill-opacity:1;" d="M 15.253906 21.40625 C 14.179688 21.542969 13.09375 21.417969 12.085938 21.035156 C 11.65625 20.800781 11.253906 20.519531 10.882812 20.195312 L 10.320312 19.714844 C 8.773438 18.742188 8.375 16.429688 8.4375 14.914062 C 8.480469 14.167969 8.664062 13.4375 8.976562 12.757812 C 9.300781 11.828125 9.800781 10.972656 10.453125 10.234375 C 11.417969 9.28125 12.695312 8.703125 14.050781 8.605469 C 14.628906 8.539062 15.214844 8.539062 15.792969 8.605469 C 17.027344 8.785156 18.195312 9.265625 19.199219 10.007812 C 20.347656 10.851562 21.152344 12.078125 21.480469 13.464844 C 22 15.925781 21.125 18.476562 19.199219 20.101562 C 18.066406 20.964844 16.675781 21.425781 15.253906 21.40625 Z M 14.878906 10.957031 C 14.683594 10.980469 14.484375 11.015625 14.292969 11.0625 C 13.34375 11.148438 12.875 11.148438 12.3125 11.722656 C 11.839844 12.277344 11.480469 12.917969 11.257812 13.609375 C 10.988281 14.070312 10.804688 14.578125 10.714844 15.109375 C 10.691406 16.027344 11.144531 16.890625 11.914062 17.386719 C 12.121094 17.519531 12.179688 17.832031 12.371094 18 C 12.664062 18.1875 12.972656 18.347656 13.296875 18.46875 C 14.65625 19.257812 16.355469 19.136719 17.59375 18.167969 C 18.847656 17.175781 19.410156 15.546875 19.03125 13.992188 C 18.898438 13.125 18.4375 12.34375 17.746094 11.808594 C 17.046875 11.371094 16.246094 11.128906 15.421875 11.101562 C 15.191406 11.050781 15.144531 10.957031 14.878906 10.957031 Z M 14.878906 10.957031 "/>
<path style=" stroke:none;fill-rule:nonzero;fill:rgb(0.392157%,0.392157%,0.392157%);fill-opacity:1;" d="M 15.253906 19.273438 C 14.535156 19.273438 13.832031 19.09375 13.199219 18.757812 C 12.902344 18.589844 12.628906 18.382812 12.382812 18.144531 C 12.203125 17.96875 12.003906 17.804688 11.796875 17.664062 C 10.988281 17.039062 10.523438 16.070312 10.535156 15.046875 C 10.582031 14.554688 10.714844 14.070312 10.921875 13.621094 C 11.152344 12.925781 11.519531 12.285156 12 11.734375 C 12.625 11.167969 13.425781 10.835938 14.269531 10.800781 C 14.667969 10.753906 15.070312 10.753906 15.46875 10.800781 C 16.335938 10.910156 17.160156 11.234375 17.867188 11.746094 C 18.609375 12.277344 19.132812 13.058594 19.34375 13.945312 C 19.652344 15.609375 19.058594 17.316406 17.785156 18.433594 C 17.054688 18.980469 16.164062 19.277344 15.253906 19.273438 Z M 14.316406 11.386719 C 13.617188 11.425781 12.953125 11.710938 12.445312 12.191406 C 12.023438 12.679688 11.703125 13.246094 11.507812 13.859375 C 11.324219 14.238281 11.207031 14.644531 11.160156 15.058594 C 11.164062 15.851562 11.515625 16.601562 12.121094 17.113281 C 12.359375 17.273438 12.582031 17.453125 12.792969 17.652344 C 13 17.855469 13.234375 18.03125 13.488281 18.179688 C 14.75 18.847656 16.28125 18.742188 17.4375 17.902344 C 18.53125 16.949219 19.035156 15.480469 18.757812 14.050781 C 18.585938 13.324219 18.160156 12.679688 17.554688 12.238281 C 16.933594 11.785156 16.199219 11.496094 15.433594 11.410156 C 15.070312 11.363281 14.703125 11.363281 14.339844 11.410156 Z M 14.316406 11.386719 "/>
<path style=" stroke:none;fill-rule:nonzero;fill:rgb(0.392157%,0.392157%,0.392157%);fill-opacity:1;" d="M 15.023438 21.9375 C 13.957031 21.945312 12.902344 21.722656 11.929688 21.289062 C 10.191406 20.59375 8.863281 19.144531 8.328125 17.351562 C 8.089844 16.160156 8.132812 14.925781 8.449219 13.753906 C 8.636719 12.757812 8.976562 11.800781 9.457031 10.90625 C 9.898438 10.15625 10.488281 9.5 11.195312 8.988281 C 11.621094 8.683594 12.082031 8.441406 12.574219 8.269531 L 12.648438 8.269531 C 13.953125 7.953125 15.316406 7.953125 16.621094 8.269531 C 18.226562 8.671875 19.667969 9.570312 20.734375 10.835938 C 20.945312 11.085938 21.128906 11.355469 21.289062 11.640625 C 21.53125 12.1875 21.664062 12.78125 21.683594 13.378906 C 21.835938 14.820312 21.6875 16.273438 21.253906 17.652344 C 20.761719 19.441406 19.410156 20.867188 17.652344 21.457031 C 16.800781 21.738281 15.917969 21.898438 15.023438 21.9375 Z M 12.792969 8.605469 L 12.792969 8.914062 C 12.367188 9.074219 11.960938 9.289062 11.59375 9.550781 C 10.96875 10.019531 10.445312 10.605469 10.054688 11.28125 C 9.621094 12.113281 9.304688 13.007812 9.121094 13.933594 C 8.832031 14.996094 8.789062 16.113281 9 17.195312 C 9.472656 18.785156 10.644531 20.074219 12.179688 20.699219 C 13.863281 21.414062 15.75 21.484375 17.484375 20.902344 C 19.046875 20.371094 20.246094 19.105469 20.699219 17.519531 C 21.101562 16.21875 21.234375 14.851562 21.097656 13.5 C 21.082031 12.984375 20.96875 12.472656 20.761719 12 C 20.628906 11.757812 20.472656 11.535156 20.292969 11.328125 C 19.332031 10.15625 18.027344 9.316406 16.558594 8.929688 C 15.359375 8.617188 14.101562 8.589844 12.886719 8.855469 Z M 12.792969 8.605469 Z M 12.792969 8.605469 "/>
</g>
</svg>
